<ttFont>
          <CharString index="0">
            rmoveto
            136 -70 101 -139 -118 -113 -99 -161 -163 108 -96 140 60 64 21 34 49 vhcurveto
            -45 83 rlineto
            -21 -36 -35 -12 -39 hhcurveto
            -63 -61 31 84 -14 hvcurveto
            306 hlineto
            3 12 3 25 25 vvcurveto
            -311 29 rmoveto
            74 14 46 29 45 hhcurveto
            62 27 -41 -62 hvcurveto
            return
          </CharString>
          <CharString index="1">
            145 hlineto
            -207 653 rlineto
            -163 hlineto
            -208 -653 rlineto
            140 hlineto
            44 163 rlineto
            205 hlineto
            -176 106 rmoveto
            18 67 19 67 18 75 16 70 rlinecurve
            4 hlineto
            18 -69 18 -76 19 -67 18 -67 rcurveline
            endchar
          </CharString>
          <CharString index="2">
            -56 -12 106 125 70 53 70 130 106 hstem
            76 -39 callgsubr
            439 151 rmoveto
            -36 -27 -30 -21 -40 hhcurveto
            -60 -41 45 80 -18 hvcurveto
            179 70 -188 hlineto
            -1 9 0 11 10 vvcurveto
            23 229 70 -221 vlineto
            82 17 41 48 62 hhcurveto
            36 28 -19 -27 25 hvcurveto
            76 74 rlineto
            49 -41 -59 29 -60 hhcurveto
            -133 -100 -87 -150 -29 hvcurveto
            -63 -5 rlineto
            -64 55 vlineto
            -9 0 -9 -9 vvcurveto
            -28 vlineto
            -55 -4 rlineto
            -64 63 vlineto
            -151 28 98 -80 124 hhcurveto
            73 60 33 60 48 hvcurveto
            endchar
          </CharString>
          <CharString index="3">
            45 32 31 43 42 -32 31 -45 -45 -32 -31 -42 -43 32 -31 45 hvcurveto
            endchar
          </CharString>
          <CharString index="4">
            rmoveto
            -1 167 rlineto
            -145 hlineto
            2 -175 1 -163 -64 -111 -200 -13 rlinecurve
            -14 115 149 51 41 95 2 137 rlinecurve
            63 -137 -66 vlineto
            1 -101 -12 -51 -56 -28 -29 247 rcurveline
            -64 callsubr
            return
          </CharString>
          <CharString index="5">
            rmoveto
            152 90 92 108 93 -52 51 -79 33 hvcurveto
            -84 34 rlineto
            -56 23 -45 16 44 vvcurveto
            40 35 24 54 53 42 -19 -34 43 vhcurveto
            69 87 rlineto
            54 -54 -77 31 -76 hhcurveto
            -133 -95 -85 -106 -95 65 -54 67 -28 hvcurveto
            86 -37 rlineto
            58 -24 39 -14 -45 vvcurveto
            -43 -34 -27 -65 -56 -61 28 42 -47 vhcurveto
            -79 -94 rlineto
            -62 65 89 -33 86 hhcurveto
            return
          </CharString>
          <CharString index="6">
            rmoveto
            67 47 32 50 42 hvcurveto
            4 hlineto
            10 -70 rlineto
            111 495 -136 -331 hlineto
            -42 -32 -24 -17 -39 hhcurveto
            -46 -21 25 74 hvcurveto
            291 -136 -308 vlineto
            -124 46 -75 107 vhcurveto
            endchar
          </CharString>
          <CharString index="7">
            -56 -12 103 208 97 141 111 hstem
            42 125 195 125 vstem
            299 396 rmoveto
            -42 -55 -26 -44 -35 hvcurveto
            158 6 59 53 73 hhcurveto
            38 39 -21 -25 23 hvcurveto
            72 82 rlineto
            40 -39 -60 35 -81 hhcurveto
            -133 -122 -106 -240 -220 114 -94 123 113 95 81 131 134 -79 62 -109 hvcurveto
            -22 -305 rmoveto
            -50 -43 37 104 -13 hvcurveto
            49 30 38 18 34 hhcurveto
            53 36 -30 -69 -74 -39 -35 -46 hvcurveto
            endchar
          </CharString>
          <CharString index="8">
            rmoveto
            163 91 92 217 hvcurveto
            356 -132 -369 vlineto
            -132 -46 -45 -76 -75 -44 45 132 vhcurveto
            369 -137 -356 vlineto
            -217 93 -92 163 vhcurveto
            endchar
          </CharString>
          <CharString index="9">
            315 -169 83 126 85 -9 20 217 88 141 84 hstemhm
            49 93 114 103 399 87 hintmask 10111111
            424 -169 rmoveto
            71 64 15 33 60 hvcurveto
            -30 75 rlineto
            -23 -42 -59 -17 -53 hhcurveto
            -158 -135 98 197 226 170 147 172 194 80 -126 -146 hvcurveto
            hintmask 11011111
            -113 -61 -72 -61 -46 -16 30 61 15 vhcurveto
            44 217 rlineto
            -84 hlineto
            -14 -41 rlineto
            -2 hlineto
            35 -17 -27 14 -33 hhcurveto
            -115 -85 -123 -120 hvcurveto
            hintmask 10111111
            -91 53 -58 77 41 51 28 39 28 vhcurveto
            2 hlineto
            hintmask 11011111
            -49 10 46 -27 58 hhcurveto
            102 121 92 181 208 -136 145 -214 -242 -204 -183 -278 hvcurveto
            hintmask 10111111
            -252 176 -122 199 vhcurveto
            -9 305 rmoveto
            -34 -22 22 48 63 39 84 62 22 16 -10 -21 12 hvcurveto
            -25 -139 rlineto
            -34 -27 -21 -13 -22 hhcurveto
            endchar
          </CharString>
          <CharString index="10">
            rmoveto
            -101 callgsubr
            return
          </CharString>
          <CharString index="11">
            13 callsubr
            -19 -19 14 -16 20 21 12 16 19 19 -12 16 -21 hvcurveto
            return
          </CharString>
          <CharString index="12">
            vstem
            589 hmoveto
            -138 207 120 364 rlineto
            -27 callsubr
            -40 -148 -27 -91 -72 109 -80 130 rlineto
            -145 hlineto
            93 -151 -31 -77 -111 -343 rlineto
            137 hlineto
            89 291 188 -291 rlineto
            return
          </CharString>
          <CharString index="13">
            -56 30 callsubr
            425 -30 callgsubr
            317 131 vstem
            38 hmoveto
            441 115 -27 callsubr
            -30 -44 -3 -4 -33 hvcurveto
            112 116 101 115 109 vvcurveto
            121 -83 79 -124 -90 -59 -35 -65 -61 vhcurveto
            75 -74 rlineto
            35 32 38 31 46 hhcurveto
            60 35 -37 -63 -93 -113 -109 -166 -159 hvcurveto
            endchar
          </CharString>
          <CharString index="14">
            170 -9 58 78 81 227 81 82 57 hstem
            46 65 84 99 345 64 vstem
            375 -9 rmoveto
            176 152 128 206 205 -152 125 -176 -177 -152 -124 -206 -206 152 -128 177 hvcurveto
            58 vmoveto
            -148 -116 110 166 166 116 107 148 148 116 -107 -166 -166 -116 -110 -148 hvcurveto
            11 78 rmoveto
            53 42 22 31 37 hvcurveto
            -44 64 rlineto
            -21 -26 -23 -15 -35 hhcurveto
            -59 -37 45 71 62 36 49 65 28 21 -13 -23 22 hvcurveto
            52 58 rlineto
            32 -32 -39 27 -61 hhcurveto
            -100 -91 -75 -117 -122 81 -75 110 hvcurveto
            endchar
          </CharString>
          <CharString index="15">
            243 -12 rmoveto
            50 49 27 36 36 hvcurveto
            3 hlineto
            10 -51 rlineto
            112 703 -137 -172 hlineto
            5 -77 rlineto
            32 -35 -34 21 -55 hhcurveto
            -105 -101 -98 -162 -162 79 -97 123 hvcurveto
            35 112 rmoveto
            -61 -36 48 101 97 45 49 52 29 31 -9 -26 28 hvcurveto
            -212 vlineto
            -34 -27 -27 -14 -34 hhcurveto
            return
          </CharString>
          <CharString index="16">
            39 27 28 38 38 -27 29 -39 -39 -28 -29 -38 -38 28 -28 39 hvcurveto
            return
          </CharString>
          <CharString index="17">
            68 hmoveto
            -86 callsubr
            -48 -35 -36 -39 vhcurveto
            6 92 rlineto
            175 -136 vlineto
            return
          </CharString>
          <CharString index="18">
            -56 30 callsubr
            159 85 178 111 hstemhm
            111 131 -87 120 12 callsubr
            228 115 rmoveto
            4 vlineto
            33 37 14 33 52 vvcurveto
            11 -1 11 -1 11 vhcurveto
            132 85 hlineto
            hintmask 11110000
            -151 hlineto
            -7 26 -5 27 27 vvcurveto
            65 35 33 56 33 26 -16 -28 23 vhcurveto
            75 74 rlineto
            51 -43 -53 30 -74 hhcurveto
            -122 -87 -78 -124 -28 8 -30 9 -29 hvcurveto
            -8 hlineto
            -67 -5 rlineto
            -80 vlineto
            hintmask 11101000
            99 hlineto
            2 -11 1 -11 -10 vvcurveto
            -72 -45 -57 -61 -29 vhcurveto
            -84 441 115 vlineto
            endchar
          </CharString>
          <CharString index="19">
            rmoveto
            84 71 33 63 54 hvcurveto
            -73 86 rlineto
            -37 -33 -43 -26 -55 hhcurveto
            -100 -65 82 139 136 72 82 95 49 36 -22 -31 33 hvcurveto
            73 88 rlineto
            44 -43 -67 40 -84 hhcurveto
            -165 -140 -126 -216 -218 136 -117 165 hvcurveto
            endchar
          </CharString>
          <CharString index="20">
            703 rmoveto
            -91 callsubr
            219 hmoveto
            -91 callsubr
            return
          </CharString>
          <CharString index="21">
            136 338 hlineto
            34 35 25 18 39 hhcurveto
            46 20 -25 -74 hvcurveto
            -291 137 308 vlineto
            124 -46 75 -107 -68 return
          </CharString>
          <CharString index="22">
            -241 -152 73 317 81 316 73 hstemhm
            115 115 -43 119 hintmask 11110000
            44 -152 rmoveto
            60 hlineto
            87 39 33 108 hvcurveto
            71 -10 39 64 vvcurveto
            hintmask 11101000
            36 21 37 65 2 vhcurveto
            81 vlineto
            hintmask 11110000
            -65 1 -21 37 36 64 10 39 71 vvcurveto
            108 -39 33 -87 vhcurveto
            -60 -73 20 hlineto
            43 13 -16 -57 hvcurveto
            -55 -5 -49 -62 vvcurveto
            -74 23 -30 49 -12 vhcurveto
            -4 vlineto
            -49 -12 -23 -30 -73 -62 5 -50 -55 vvcurveto
            -57 -13 -16 -43 vhcurveto
            -20 hlineto
            endchar
          </CharString>
          <CharString index="23">
            -122 -188 111 408 176 0 -20 hstemhm
            43 131 -16 168 hintmask 00000000
            hintmask 11001000
            242 331 -97 callsubr
            hintmask 10110000
            -13 -519 rmoveto
            77 64 37 53 47 hvcurveto
            -76 69 rlineto
            -29 -28 -29 -19 -38 hhcurveto
            -43 -29 25 43 81 149 57 -21 140 hvcurveto
            -119 hlineto
            12 -122 -152 -40 -125 vvcurveto
            -115 80 -55 106 vhcurveto
            endchar
          </CharString>
          <CharString index="24">
            -28 callsubr
            hintmask 1111010010100000
            -83 callgsubr
            hintmask 1110110100100000
            -56 callgsubr
            hintmask 1110110010100000
            -38 callsubr
            hintmask 1110111000100000
            -46 -26 -25 -34 -42 vvcurveto
            return
          </CharString>
          <CharString index="25">
            -56 190 88 116 88 hstem
            35 458 vstem
            87 hmoveto
            80 hlineto
            23 190 rlineto
            108 hlineto
            -23 -190 rlineto
            81 hlineto
            23 190 rlineto
            94 88 -84 hlineto
            14 116 rlineto
            90 88 -79 hlineto
            20 168 rlineto
            -79 hlineto
            -21 -168 rlineto
            -108 hlineto
            20 168 rlineto
            -79 hlineto
            -22 -168 rlineto
            -90 -88 79 hlineto
            -14 -116 rlineto
            -85 -88 75 hlineto
            90 88 rmoveto
            15 116 rlineto
            108 hlineto
            -15 -116 rlineto
            endchar
          </CharString>
          <CharString index="26">
            -56 521 115 hstem
            162 138 vstem
            162 hmoveto
            138 hlineto
            11 248 22 124 148 180 rrcurveto
            84 -437 -115 290 vlineto
            -121 -168 -39 -137 -12 -216 rrcurveto
            endchar
          </CharString>
          <CharString index="27">
            -122 -12 176 408 110 hstemhm
            131 168 -16 131 hintmask 11010000
            155 226 rmoveto
            120 hlineto
            -13 122 152 40 125 vvcurveto
            115 -79 54 -107 -77 -64 -37 -52 -46 vhcurveto
            75 -69 rlineto
            28 28 29 20 38 hhcurveto
            44 28 -26 -43 -80 -148 -57 20 -140 hvcurveto
            hintmask 11100000
            60 -238 rmoveto
            2 callsubr
          </CharString>
          <CharString index="28">
            96 409 97 0 -20 93 97 -82 82 hstemhm
            93 90 132 83 170 83 hintmask 01011110
            93 363 rmoveto
            90 231 89 82 -268 -82 89 hlineto
            222 -231 rmoveto
            83 102 hlineto
            -10 114 -5 callgsubr
            hintmask 10101110
            59 -170 rlineto
            64 hlineto
            59 170 -5 callgsubr
            -10 -114 rlineto
            -102 83 313 -103 vlineto
            -40 -101 -23 -69 rlineto
            -4 hlineto
            -23 69 rlineto
            hintmask 01011110
            -40 101 rlineto
            -103 hlineto
            endchar
          </CharString>
          <CharString index="29">
            79 hmoveto
            189 hlineto
            192 125 108 221 222 -125 102 -200 hvcurveto
            -181 hlineto
            137 -542 rmoveto
            431 36 vlineto
            117 75 -55 -158 -157 -75 -61 -117 hvcurveto
            return
          </CharString>
          <CharString index="30">
            -56 149 67 56 67 297 -20 hstem
            193 -39 callgsubr
            193 hmoveto
            137 149 155 67 -155 56 155 67 -125 hlineto
            149 297 rlineto
            -27 callsubr
            -55 -139 -17 -44 -17 -44 -18 -44 -7 callgsubr
            -18 44 -17 44 -16 44 -55 139 rcurveline
            -141 hlineto
            149 -297 rlineto
            -124 -67 154 -56 -154 -67 154 hlineto
            endchar
          </CharString>
          <CharString index="31">
            -56 0 111 384 141 hstem
            211 -39 callgsubr
            71 hmoveto
            398 111 -121 525 -101 hlineto
            -43 -27 -45 -17 -66 -12 rrcurveto
            -85 118 -384 -140 vlineto
            endchar
          </CharString>
          <CharString index="32">
            79 hmoveto
            137 180 hlineto
            82 106 165 -286 rlineto
            150 hlineto
            -234 394 199 259 rlineto
            -151 hlineto
            -207 -277 rlineto
            -4 277 -27 callsubr
            return
          </CharString>
          <CharString index="33">
            703 rmoveto
            148 hlineto
            92 111 -59 37 -105 -85 rlineto
            -4 hlineto
            -105 85 -59 -37 rlineto
            return
          </CharString>
          <CharString index="34">
            -54 89 rlineto
            -21 -27 -32 -17 -35 hhcurveto
            -68 -49 58 90 90 48 59 74 26 21 -10 -21 25 hvcurveto
            65 88 rlineto
            31 -37 -46 23 -62 hhcurveto
            -135 -119 -95 -165 return
          </CharString>
          <CharString index="35">
            114 50 70 86 3 hvcurveto
            -78 13 rlineto
            -44 -7 -27 -39 -55 hhcurveto
            -55 -27 39 44 return
          </CharString>
          <CharString index="36">
            115 165 115 143 115 return
          </CharString>
          <CharString index="37">
            -247 -12 176 hstemhm
            82 168 -150 132.5 -121 109 hintmask 10010000
            121 226 rmoveto
            90 hlineto
            19 318 rlineto
            hintmask 10100000
            5 126 rlineto
            -27 callsubr
            4 -126 rlineto
            hintmask 11000000
            64 -556 rmoveto
            2 callsubr
          </CharString>
          <CharString index="38">
            393 108 -223 hlineto
            216 314 rlineto
            73 -362 -108 192 vlineto
            -216 -314 rlineto
            return
          </CharString>
          <CharString index="39">
            -66 callsubr
            endchar
          </CharString>
          <CharString index="40">
            -5 callsubr
            53 hmoveto
            236 hlineto
            141 92 94 162 hvcurveto
            60 vlineto
            154 -82 101 -140 vhcurveto
            -211 hlineto
            -40 -180 -17 -103 36 -81 146 -3 rlinecurve
            23 90 -56 11 -15 24 10 49 rlinecurve
            18 85 rlineto
            72 hlineto
            77 35 -60 -80 hvcurveto
            -74 vlineto
            -88 -46 -53 -77 vhcurveto
            -202 hlineto
            return
          </CharString>
          <CharString index="41">
            -54 callsubr
            4 0 1 3 hvcurveto
            -59 -30 -86 callgsubr
            return
          </CharString>
          <CharString index="42">
            699 rmoveto
            98 53 49 86 10 hvcurveto
            -76 13 rlineto
            -42 -8 -30 -26 -47 hhcurveto
            -47 -29 26 42 -9 hvcurveto
            -75 -13 rlineto
            -86 9 53 -49 98 hhcurveto
            return
          </CharString>
          <CharString index="43">
            -27 callsubr
            75 -581 366 -9 160 147 -2 276 rlinecurve
            return
          </CharString>
          <CharString index="44">
            -250 204 98 hstem
            43 243 vstem
            43 204 rmoveto
            243 98 -243 hlineto
            endchar
          </CharString>
          <CharString index="45">
            -241 -122 -21 hstem
            74 110 vstem
            206 -179 rmoveto
            85 36 rlineto
            -74 129 -33 149 143 vvcurveto
            144 33 148 74 129 vhcurveto
            -85 36 rlineto
            -84 -137 -48 -144 -176 vvcurveto
            -176 48 -144 84 -137 vhcurveto
            endchar
          </CharString>
          <CharString index="46">
            141 vstem
            107 -10 rmoveto
            285 12 182 98 -9 244 -1 28 rcurveline
            -4 136 -95 65 -116 6 -61 3 rcurveline
            -11 -111 49 -3 rlineto
            69 -4 29 -52 -55 vvcurveto
            -31 vlineto
            2 -121 -48 -73 -144 -14 -49 453 rcurveline
            -145 hlineto
            return
          </CharString>
          <CharString index="47">
            -241 -122 -21 hstem
            154 110 vstem
            132 -179 rmoveto
            84 137 48 144 176 vvcurveto
            176 -48 144 -84 137 vhcurveto
            -85 -36 rlineto
            74 -129 33 -148 -144 vvcurveto
            -143 -33 -149 -74 -129 vhcurveto
            endchar
          </CharString>
          <CharString index="48">
            rmoveto
            52 41 -112 153 112 153 -52 42 -135 -146 rlineto
            -97 vlineto
            return
          </CharString>
          <CharString index="49">
            -56 276 394 -123 123 hstemhm
            52 420 hintmask 10100000
            52 276 rmoveto
            113 hlineto
            49 136 rlineto
            hintmask 01100000
            46 135 -5 callgsubr
            46 -135 49 -136 rlineto
            113 hlineto
            -155 394 6 callgsubr
          </CharString>
          <CharString index="50">
            301 571 rmoveto
            -220 hlineto
            -37 -168 -9 -111 13 -64 146 -4 rlinecurve
            26 87 -49 5 -3 31 6 49 rlinecurve
            12 67 rlineto
            76 hlineto
            76 28 -60 -80 hvcurveto
            -523 144 516 vlineto
            154 -69 101 -140 vhcurveto
            return
          </CharString>
          <CharString index="51">
            rmoveto
            135 146 rlineto
            97 vlineto
            -135 146 return
          </CharString>
          <CharString index="52">
            1 callsubr
            297 111 return
          </CharString>
          <CharString index="53">
            -42 -31 -30 -47 -43 33 -27 40 3 return
          </CharString>
          <CharString index="54">
            vstem
            106 58 -46 callgsubr
            return
          </CharString>
          <CharString index="55">
            79 hmoveto
            137 278 238 -278 -31 callgsubr
            -255 -238 255 -27 callsubr
            return
          </CharString>
          <CharString index="56">
            -12 117 rlineto
            -144 hlineto
            12 -117 rlineto
            return
          </CharString>
          <CharString index="57">
            75 -11 85 -7 71 vhcurveto
            4 hlineto
            66 -142 181 -339 rlineto
            140 653 -130 -248 hlineto
            -76 11 -88 6 -69 vhcurveto
            -4 hlineto
            -65 142 -181 339 rlineto
            -141 hlineto
            endchar
          </CharString>
          <CharString index="58">
            -17 rmoveto
            153 14 69 50 154 vvcurveto
            262 118 vlineto
            43 25 -21 -52 hvcurveto
            -390 144 383 vlineto
            136 -72 52 -100 vhcurveto
            -303 -389 hlineto
            1 -67 -13 -26 -77 -8 rrcurveto
            return
          </CharString>
          <CharString index="59">
            rmoveto
            136 495 -136 hlineto
            endchar
          </CharString>
          <CharString index="60">
            -35 vlineto
            -66 -5 rlineto
            -102 66 -387 137 387 91 108 -91 37 vlineto
            53 21 22 37 return
          </CharString>
          <CharString index="61">
            -5 callsubr
            446 108 rmoveto
            275 vlineto
            136 -72 52 -100 vhcurveto
            -236 -108 196 hlineto
            43 25 -21 -52 hvcurveto
            -282 -264 -108 264 vlineto
            211 108 hlineto
            return
          </CharString>
          <CharString index="62">
            683 rmoveto
            60 69 -166 138 -73 -89 rlineto
            return
          </CharString>
          <CharString index="63">
            -55 -12 106 304 109 return
          </CharString>
          <CharString index="64">
            -509 rmoveto
            -58 234 -124 hlineto
            -144 -250 rlineto
            -50 179 -90 89 90 58 vlineto
            -232 66 rmoveto
            45 84 41 78 -5 callgsubr
            -5 -116 rlineto
            -46 vlineto
            endchar
          </CharString>
          <CharString index="65">
            -52 callgsubr
            hintmask 11010110
            -34 -34 67 -64 hhcurveto
            -76 -41 -50 -99 -3 hvcurveto
            86 -5 rlineto
            41 4 11 18 22 hhcurveto
            return
          </CharString>
          <CharString index="66">
            vstem
            181 hmoveto
            157 hlineto
            164 495 rlineto
            -131 hlineto
            -69 -241 -13 -49 -14 -51 -13 -51 -7 callgsubr
            -13 51 -13 51 -13 49 -69 241 rcurveline
            -138 hlineto
            return
          </CharString>
          <CharString index="67">
            -224 147 return
          </CharString>
          <CharString index="68">
            -36 -32 59 -72 hhcurveto
            -68 -49 -44 -96 -5 hvcurveto
            88 -7 rlineto
            38 4 15 14 20 hhcurveto
            return
          </CharString>
          <CharString index="69">
            -31 -21 -24 -35 -36 vvcurveto
            -41 19 -26 26 -17 vhcurveto
            -4 vlineto
            return
          </CharString>
          <CharString index="70">
            145 383 hlineto
            136 -73 52 -100 vhcurveto
            return
          </CharString>
          <CharString index="71">
            rmoveto
            -20 -14 -17 10 callgsubr
            21 12 17 19 18 -12 17 -21 hvcurveto
            endchar
          </CharString>
          <CharString index="72">
            112 295 112 196 -20 return
          </CharString>
          <CharString index="73">
            -241 127 272 hstem
            40 258 vstem
            169 127 rmoveto
            72 57 58 78 78 -57 58 -72 -72 -57 -58 -78 -78 57 -58 72 hvcurveto
            endchar
          </CharString>
          <CharString index="74">
            67 hintmask 00000000
            hintmask 11011000
            261 -71 rmoveto
            13 callsubr
            -19 -19 14 -16 20 20 13 16 19 19 -13 16 -20 hvcurveto
            hintmask 10111000
            -65 -14 rmoveto
            -166 -39 return
          </CharString>
          <CharString index="75">
            208 hmoveto
            137 538 183 115 -502 -115 182 hlineto
            return
          </CharString>
          <CharString index="76">
            -5 callsubr
            263 hmoveto
            144 346 hlineto
            36 5 47 16 34 vhcurveto
            79 108 -468 -108 252 hlineto
            -17 -24 -11 -41 -52 vvcurveto
            return
          </CharString>
          <CharString index="77">
            -5 callsubr
            112 hmoveto
            144 346 hlineto
            36 5 47 16 34 vhcurveto
            89 108 -331 -108 105 hlineto
            -17 -24 -11 -41 -52 vvcurveto
            return
          </CharString>
          <CharString index="78">
            -36 -28 37 94 95 28 34 36 36 29 -34 -95 -94 -29 -37 -36 hvcurveto
            return
          </CharString>
          <CharString index="79">
            rmoveto
            167 105 75 101 88 -66 37 -120 hvcurveto
            return
          </CharString>
          <CharString index="80">
            -137 hlineto
            return
          </CharString>
          <CharString index="81">
            -241 -152 73 714 73 hstem
            148 102 vstem
            44 -152 rmoveto
            206 860 -206 -73 104 -714 -104 hlineto
            endchar
          </CharString>
          <CharString index="82">
            520 5 callsubr
            591 -36 callsubr
          </CharString>
          <CharString index="83">
            hstem
            63 136 162 136 vstem
            return
          </CharString>
          <CharString index="84">
            hstem
            47 -8 callgsubr
            vstem
            return
          </CharString>
          <CharString index="85">
            -241 -152 73 714 73 hstem
            88 102 vstem
            88 -152 rmoveto
            206 73 -104 714 104 73 -206 hlineto
            endchar
          </CharString>
          <CharString index="86">
            hmoveto
            -32 224 rlineto
            177 vlineto
            92 -38 62 -82 12 vhcurveto
            -118 16 -18 -106 63 -10 rlineto
            35 -5 13 -16 -49 vvcurveto
            return
          </CharString>
          <CharString index="87">
            -5 callsubr
            61 210 rmoveto
            143 25 1 63 rlineto
            156 vlineto
            -51 callsubr
            return
          </CharString>
          <CharString index="88">
            83 -12 119 546 -20 return
          </CharString>
          <CharString index="89">
            rmoveto
            -54 callsubr
            return
          </CharString>
          <CharString index="90">
            455 97 -455 hlineto
            return
          </CharString>
          <CharString index="91">
            463 -30 callgsubr
            return
          </CharString>
          <CharString index="92">
            -69 -385 rlineto
            144 hlineto
            62 378 rlineto
            55 10 37 34 53 hhcurveto
            72 39 -51 -126 1 hvcurveto
            return
          </CharString>
          <CharString index="93">
            hlineto
            65 -49 rmoveto
            -20 -14 -18 -18 -19 14 -16 20 20 13 16 19 18 -13 18 -20 hvcurveto
            endchar
          </CharString>
          <CharString index="94">
            hstem
            31 callsubr
            198 14 callgsubr
            return
          </CharString>
          <CharString index="95">
            724 rmoveto
            297 88 -297 hlineto
            return
          </CharString>
          <CharString index="96">
            573 rmoveto
            67 67 -151 179 return
          </CharString>
          <CharString index="97">
            221 209 88 hstem
            43 714 vstem
            43 209 rmoveto
            714 88 -714 hlineto
            endchar
          </CharString>
          <CharString index="98">
            18 -12 17 -21 16 callgsubr
            return
          </CharString>
          <CharString index="99">
            68 136 return
          </CharString>
          <CharString index="100">
            -93 -67 -75 -131 -131 67 -77 93 94 67 77 131 131 -67 75 -94 hvcurveto
            return
          </CharString>
          <CharString index="101">
            -99 209 88 hstem
            43 394 vstem
            43 209 rmoveto
            394 88 -394 hlineto
            endchar
          </CharString>
          <CharString index="102">
            144 vstem
            return
          </CharString>
          <CharString index="103">
            79 hmoveto
            237 hlineto
            142 111 60 132 88 -52 49 -69 17 hvcurveto
            4 vlineto
            return
          </CharString>
          <CharString index="104">
            vmoveto
            3 callgsubr
          </CharString>
          <CharString index="105">
            rmoveto
            17 callgsubr
            21 12 17 19 18 -12 17 -21 hvcurveto
            endchar
          </CharString>
          <CharString index="106">
            -56 -13 -26 -41 -14 -13 3 4 return
          </CharString>
          <CharString index="107">
            -78 31 -46 58 43 30 30 48 return
          </CharString>
          <CharString index="108">
            -12 111 return
          </CharString>
          <CharString index="109">
            -101 callgsubr
            endchar
          </CharString>
          <CharString index="110">
            rmoveto
            43 34 30 43 43 -34 30 -43 -44 -33 -30 -43 -43 33 -30 44 hvcurveto
            return
          </CharString>
          <CharString index="111">
            137 -66 67 83 144.5 return
          </CharString>
          <CharString index="112">
            71 21 callgsubr
            return
          </CharString>
          <CharString index="113">
            hstemhm
            7 callgsubr
            return
          </CharString>
          <CharString index="114">
            39 29 30 38 38 -29 30 -39 -40 -28 -30 -38 -38 28 -30 40 hvcurveto
            return
          </CharString>
          <CharString index="115">
            63 -12.15 11.15 1 99.57 return
          </CharString>
          <CharString index="116">
            -284 31 callgsubr
            return
          </CharString>
          <CharString index="117">
            572 rmoveto
            return
          </CharString>
          <CharString index="118">
            -200 rmoveto
            129 41 87 107 hvcurveto
            return
          </CharString>
          <CharString index="119">
            hintmask 00000000
            hintmask 11101000
            return
          </CharString>
          <CharString index="120">
            -20 -14 -16 return
          </CharString>
          <CharString index="121">
            52 -114 rcurveline
            77 26 44 45 34 58 19 -110 rcurveline
            return
          </CharString>
          <CharString index="122">
            573 rmoveto
            68 67 -152 179 -93 -90 rlineto
            endchar
          </CharString>
          <CharString index="123">
            137 84 144.5 return
          </CharString>
          <CharString index="124">
            367 320 hstem
            79 134 return
          </CharString>
          <CharString index="125">
            96 -81 -20 65 95 hstemhm
            return
          </CharString>
          <CharString index="126">
            147 hstem
            157 80 return
          </CharString>
          <CharString index="127">
            -58 callgsubr
            hvcurveto
            return
          </CharString>
          <CharString index="128">
            hstem
            -5 578 vstem
            return
          </CharString>
          <CharString index="129">
            133 86 133 return
          </CharString>
          <CharString index="130">
            -12 77 -9 77 192 77 -9 77 195 -20 hstemhm
            return
          </CharString>
          <CharString index="131">
            47 141 return
          </CharString>
          <CharString index="132">
            -56 167 97 133 97 hstem
            34 455 vstem
            return
          </CharString>
          <CharString index="133">
            290 rmoveto
            195 -2 -79 96 -140 hhcurveto
            -68 return
          </CharString>
          <CharString index="134">
            -140 -12 102 315 102 return
          </CharString>
          <CharString index="135">
            104 -10 119 return
          </CharString>
          <CharString index="136">
            hstemhm
            44 131 return
          </CharString>
          <CharString index="137">
            0 115 return
          </CharString>
          <CharString index="138">
            38 140 return
          </CharString>
          <CharString index="139">
            4 71 31 66 vvcurveto
            42 -27 21 -49 11 vhcurveto
            return
          </CharString>
          <CharString index="140">
            21 25 25 21 -21 -30 -31 -21 -20 -25 hvcurveto
            return
          </CharString>
          <CharString index="141">
            -12 4 callgsubr
            return
          </CharString>
          <CharString index="142">
            vstem
            -39 768 rmoveto
            25 24 -62 66 rlineto
            return
          </CharString>
          <CharString index="143">
            hlineto
            139 114 67 151 156 return
          </CharString>
          <CharString index="144">
            rlineto
            -110 vlineto
            158 8 rlineto
            endchar
          </CharString>
        <CharString name=".notdef">
          105 0 86 488 86 hstem
          81 94 334 94 vstem
          81 hmoveto
          522 660 -522 hlineto
          259 -250 rmoveto
          -44 95 -37 69 rlineto
          166 hlineto
          -37 -69 -44 -95 rlineto
          -169 -262 rmoveto
          386 vlineto
          100 -194 rlineto
          234 -192 rmoveto
          -99 192 99 194 rlineto
          -257 -448 rmoveto
          45 86 43 99 -5 callgsubr
          43 -99 44 -86 rlineto
          endchar
        </CharString>
        <CharString name="A">
          -43 callgsubr
          21 callsubr
          428 hmoveto
          -106 callsubr
        </CharString>
        <CharString name="AE">
          263 30 callsubr
          41 106 18 115 143 115 -104 104 hstemhm
          389 137 hintmask 10110100
          526 115 rmoveto
          165 214 115 -214 143 254 115 -475 vlineto
          -315 -653 rlineto
          144 hlineto
          hintmask 11101100
          72 156 rlineto
          183 -156 401 115 hlineto
          -534 147 rmoveto
          45 97 28 60 27 65 29 65 rlinecurve
          4 -287 hlineto
          endchar
        </CharString>
        <CharString name="Aacute">
          -43 callgsubr
          99 -20 21 callsubr
          448 801 rmoveto
          -73 89 -166 -138 61 -69 rlineto
          158 -683 rmoveto
          -106 callsubr
        </CharString>
        <CharString name="Abreve">
          -43 callgsubr
          46 80 21 callsubr
          281 -65 callsubr
          147 -699 rmoveto
          -106 callsubr
        </CharString>
        <CharString name="Acircumflex">
          -43 callgsubr
          120 63 21 callsubr
          279 773 rmoveto
          4 hlineto
          105 -85 59 37 -92 111 rlineto
          -148 hlineto
          -92 -111 59 -37 rlineto
          254 -688 rmoveto
          -106 callsubr
        </CharString>
        <CharString name="Adieresis">
          -43 callgsubr
          50 133 hstem
          105 22 callsubr
          vstem
          172 -87 callsubr
          37 -703 rmoveto
          -106 callsubr
        </CharString>
        <CharString name="Agrave">
          -43 callgsubr
          99 -20 21 callsubr
          353 752 rmoveto
          -166 138 -73 -89 179 -118 rlineto
          135 -683 rmoveto
          -106 callsubr
        </CharString>
        <CharString name="Amacron">
          -43 callgsubr
          71 88 hstemhm
          133 297 hintmask 00000000
          hintmask 11110000
          430 812 rmoveto
          -297 -88 297 hlineto
          -2 -724 rmoveto
          -106 callsubr
        </CharString>
        <CharString name="Aring">
          -43 callgsubr
          44 52 91 52 hstem
          170 68 86 68 vstem
          281 697 rmoveto
          8 callgsubr
          143 vmoveto
          24 19 -18 -27 -29 -19 -17 -24 -24 -19 17 29 27 19 18 24 hvcurveto
          147 -840 rmoveto
          -106 callsubr
        </CharString>
        <CharString name="Atilde">
          -43 callgsubr
          42 18 callsubr
          87 88 212 89 hintmask 11011110
          214 755 rmoveto
          hintmask 11100110
          35 32 -60 72 hhcurveto
          -42 callgsubr
          hintmask 11011110
          -39 callsubr
          214 -755 rmoveto
          -106 callsubr
        </CharString>
        <CharString name="B">
          24 0 106 181 102 158 106 6 callsubr
          186 134 -101 134 hintmask 11110100
          -4 callsubr
          hintmask 11111000
          -45 callgsubr
          hintmask 11110100
          86 45 -25 -61 -64 -46 -31 -85 hvcurveto
          endchar
        </CharString>
        <CharString name="Bethb">
          -39 endchar
        </CharString>
        <CharString name="C">
          1 34 callsubr
          vstem
          348 -12 -88 callsubr
        </CharString>
        <CharString name="Ccaron">
          1 -55 callgsubr
          38 63 hstem
          24 callsubr
          vstem
          267 -74 callsubr
          173 -826 -88 callsubr
        </CharString>
        <CharString name="Ccedilla">
          1 34 callsubr
          vstem
          348 -12 -88 callsubr
        </CharString>
        <CharString name="D">
          53 0 111 431 111 hstem
          7 callgsubr
          228 141 vstem
          -78 callsubr
          endchar
        </CharString>
        <CharString name="E">
          -34 0 -71 callsubr
          -10 callgsubr
          79 hmoveto
          -93 callgsubr
          endchar
        </CharString>
        <CharString name="Eacute">
          -34 0 -71 callsubr
          99 19 callgsubr
          277 -63 callgsubr
          -137 -752 rmoveto
          -93 callgsubr
          endchar
        </CharString>
        <CharString name="Ebreve">
          -34 0 -71 callsubr
          46 80 -10 callgsubr
          288 -65 callsubr
          -209 -699 rmoveto
          -93 callgsubr
          endchar
        </CharString>
        <CharString name="Ecircumflex">
          -34 0 -71 callsubr
          120 63 -10 callgsubr
          181 -76 callgsubr
          -43 -725 rmoveto
          -93 callgsubr
          endchar
        </CharString>
        <CharString name="Edieresis">
          -34 0 -71 callsubr
          50 133 6 callsubr
          -104 22 callsubr
          hintmask 00000000
          hintmask 11110110
          179 -87 callsubr
          hintmask 11101000
          -319 -703 rmoveto
          -93 callgsubr
          endchar
        </CharString>
        <CharString name="Egrave">
          -34 0 -71 callsubr
          99 19 callgsubr
          300 -45 callsubr
          -42 -801 rmoveto
          -93 callgsubr
          endchar
        </CharString>
        <CharString name="Emacron">
          -34 0 -71 callsubr
          71 88 6 callsubr
          -76 297 hintmask 00000000
          hintmask 11110100
          140 -12 callsubr
          hintmask 11111000
          -61 -812 rmoveto
          -93 callgsubr
          endchar
        </CharString>
        <CharString name="Eogonek">
          -34 -222 90 132 -71 callsubr
          hstem
          7 callgsubr
          84 101 vstem
          412 -222 rmoveto
          33 43 15 19 24 hvcurveto
          -32 70 rlineto
          -7 -10 -13 -7 -13 hhcurveto
          -22 -21 12 27 46 41 44 46 3 hvcurveto
          5 115 -277 165 227 115 -227 143 267 115 -404 -653 299 hlineto
          -35 -22 -43 -46 -60 vvcurveto
          -60 50 -34 62 vhcurveto
          endchar
        </CharString>
        <CharString name="Eth">
          77 0 111 194 67 170 111 hstem
          104 137 228 14 callgsubr
          285 653 rmoveto
          -181 -282 hlineto
          -76 -4 rlineto
          -62 76 -305 188 vlineto
          192 125 108 221 222 -125 102 -199 hvcurveto
          -9 -542 rmoveto
          -35 194 129 67 -129 170 35 hlineto
          118 75 -55 -158 -157 -75 -61 -118 hvcurveto
          endchar
        </CharString>
        <CharString name="Euro">
          -105 callsubr
        </CharString>
        <CharString name="Euro.001">
          -105 callsubr
        </CharString>
        <CharString name="Euro.heb">
          -39 endchar
        </CharString>
        <CharString name="Euro.heb.001">
          -39 endchar
        </CharString>
        <CharString name="Euro.lat">
          -105 callsubr
        </CharString>
        <CharString name="Euro.lat.001">
          -105 callsubr
        </CharString>
        <CharString name="F">
          -59 260 115 163 115 -10 callgsubr
          79 hmoveto
          137 260 230 115 -230 163 269 115 -406 hlineto
          endchar
        </CharString>
        <CharString name="G">
          -28 callgsubr
          hstem
          24 callsubr
          266 122 vstem
          363 -12 rmoveto
          -96 callgsubr
          -1 callgsubr
          hvcurveto
          endchar
        </CharString>
        <CharString name="Gcaron">
          -28 callgsubr
          38 63 hstem
          24 callsubr
          266 122 vstem
          291 -74 callsubr
          164 -826 rmoveto
          -96 callgsubr
          -1 callgsubr
          hvcurveto
          endchar
        </CharString>
        <CharString name="Gdotaccent">
          -28 callgsubr
          38 147 hstemhm
          24 callsubr
          97 161 8 122 hintmask 00000000
          hintmask 11111110
          365 703 rmoveto
          47 34 31 43 42 -34 31 -47 -46 -34 -31 -42 -43 34 -31 46 hvcurveto
          -2 -715 rmoveto
          hintmask 11111010
          -96 callgsubr
          hvcurveto
          hintmask 11111110
          -1 callgsubr
          vhcurveto
          endchar
        </CharString>
        <CharString name="H">
          91 278 120 255 -20 hstem
          7 callgsubr
          238 -39 callgsubr
          -52 callsubr
          endchar
        </CharString>
        <CharString name="Hbar">
          129 278 120 89 67 -67 166 hstemhm
          99 137 238 137 hintmask 00000000
          hintmask 11011000
          682 554 rmoveto
          -71 hlineto
          hintmask 10111000
          99 -137 vlineto
          hintmask 11011000
          -99 -238 vlineto
          hintmask 10111000
          99 -137 vlineto
          hintmask 11011000
          -99 vlineto
          -73 -5 rlineto
          hintmask 10111000
          -62 73 -487 137 278 238 -278 137 487 71 vlineto
          -208 -89 rmoveto
          -238 89 238 hlineto
          endchar
        </CharString>
        <CharString name="I">
          -284 653 19 callgsubr
          79 hmoveto
          -31 callgsubr
          hlineto
          endchar
        </CharString>
        <CharString name="Iacute">
          9 callsubr
          119 19 callgsubr
          137 -63 callgsubr
          3 -752 rmoveto
          -31 callgsubr
          hlineto
          endchar
        </CharString>
        <CharString name="Icircumflex">
          9 callsubr
          140 63 -10 callgsubr
          41 -76 callgsubr
          97 -725 rmoveto
          -31 callgsubr
          hlineto
          endchar
        </CharString>
        <CharString name="Idieresis">
          9 callsubr
          70 133 hstemhm
          -28 133 -26 137 -25 133 12 callsubr
          39 703 rmoveto
          39 27 28 38 38 -27 29 -39 -40 -27 -29 -38 -38 27 -28 40 hvcurveto
          219 hmoveto
          -91 callsubr
          hintmask 11010000
          -179 -703 rmoveto
          -31 callgsubr
          hlineto
          endchar
        </CharString>
        <CharString name="Igrave">
          9 callsubr
          119 19 callgsubr
          160 -45 callsubr
          98 -801 rmoveto
          -31 callgsubr
          hlineto
          endchar
        </CharString>
        <CharString name="Imacron">
          9 callsubr
          91 88 -10 callgsubr
          -1 724 rmoveto
          298 88 -298 hlineto
          80 -812 rmoveto
          -31 callgsubr
          hlineto
          endchar
        </CharString>
        <CharString name="J">
          -75 -12 119 546 -20 hstem
          292 -39 callgsubr
          224 -12 rmoveto
          142 63 102 123 hvcurveto
          440 -137 -428 vlineto
          -89 -30 -29 -55 -36 -34 20 46 -25 vhcurveto
          -93 -69 rlineto
          -77 44 64 -39 97 hhcurveto
          endchar
        </CharString>
        <CharString name="K">
          30 653 19 callgsubr
          -75 callsubr
          endchar
        </CharString>
        <CharString name="L">
          -66 30 callsubr
          538 19 callgsubr
          79 hmoveto
          399 115 -262 538 -27 callsubr
          endchar
        </CharString>
        <CharString name="Lslash">
          -60 30 callsubr
          538 -20 hstem
          86 -39 callgsubr
          223 115 rmoveto
          163 vlineto
          207 112 -47 83 -160 -89 rlineto
          269 -137 -331 vlineto
          -107 -60 48 -82 59 35 rlineto
          -215 399 115 vlineto
          endchar
        </CharString>
        <CharString name="M">
          178 58 172 246 177 hstem
          79 123 351 125 vstem
          79 hmoveto
          123 259 hlineto
          63 -11 92 -6 62 vhcurveto
          4 hlineto
          52 -153 97 -265 rlineto
          78 hlineto
          97 265 53 153 -5 callgsubr
          -6 -62 -11 -92 -63 vvcurveto
          -259 125 653 -151 vlineto
          -106 -300 -14 -39 -11 -43 -14 -41 -7 callgsubr
          -13 41 -12 43 -14 39 -109 300 rcurveline
          -151 hlineto
          endchar
        </CharString>
        <CharString name="N">
          83 0 172 309 172 0 -20 hstemhm
          79 131 243 130 hintmask 10111000
          79 hmoveto
          131 250 hlineto
          hintmask 11011000
          -50 callsubr
        </CharString>
        <CharString name="Ntilde">
          83 0 172 309 172 0 -20 62 18 callsubr
          79 131 -71 88 212 89 -75 130 hintmask 0000000000000000
          hintmask 1011001010000000
          405 695 rmoveto
          -42 callgsubr
          hintmask 1010110101000000
          -39 callsubr
          hintmask 1011001010000000
          35 32 -60 72 hhcurveto
          hintmask 1100111001000000
          -326 -695 rmoveto
          131 250 hlineto
          -50 callsubr
        </CharString>
        <CharString name="O">
          102 34 callsubr
          306 140 vstem
          341 -12 rmoveto
          -106 callgsubr
          endchar
        </CharString>
        <CharString name="OE">
          288 0 -71 callsubr
          -111 111 hstemhm
          24 callsubr
          228 137 hintmask 11101100
          372 hmoveto
          443 115 -262 165 212 115 -212 143 252 115 -425 hlineto
          -195 -138 -102 -222 -221 138 -108 187 hvcurveto
          16 111 rmoveto
          -121 -79 59 159 hvcurveto
          hintmask 11011100
          159 79 54 121 vhcurveto
          28 -431 hlineto
          endchar
        </CharString>
        <CharString name="Oacute">
          102 -55 callgsubr
          87 -20 -23 callsubr
          330 -63 callgsubr
          72 -764 rmoveto
          -106 callgsubr
          endchar
        </CharString>
        <CharString name="Obreve">
          102 -55 callgsubr
          34 80 -23 callsubr
          341 -65 callsubr
          -711 vmoveto
          -106 callgsubr
          endchar
        </CharString>
        <CharString name="Ocircumflex">
          102 -55 callgsubr
          108 63 -23 callsubr
          234 -76 callgsubr
          166 -737 rmoveto
          -106 callgsubr
          endchar
        </CharString>
        <CharString name="Odieresis">
          102 -55 callgsubr
          38 133 hstemhm
          24 callsubr
          -23 22 callsubr
          -23 140 hintmask 00000000
          hintmask 11101100
          232 -87 callsubr
          hintmask 11110010
          -110 -715 rmoveto
          -106 callgsubr
          endchar
        </CharString>
        <CharString name="Ograve">
          102 -55 callgsubr
          87 -20 -23 callsubr
          353 -45 callsubr
          167 -813 rmoveto
          -106 callgsubr
          endchar
        </CharString>
        <CharString name="Omacron">
          102 -55 callgsubr
          59 88 hstemhm
          24 callsubr
          5 297 4 140 12 callsubr
          193 -12 callsubr
          hintmask 11110100
          148 -824 rmoveto
          -106 callgsubr
          endchar
        </CharString>
        <CharString name="Oslash">
          102 -12 119 402 -20 57 119 -28 -20 hstemhm
          48 -8 callgsubr
          hintmask 00000000
          hintmask 11011100
          654 637 rmoveto
          hintmask 11101100
          -72 55 -65 -82 rlineto
          36 -48 -59 19 -68 hhcurveto
          -174 -120 -123 -213 -93 23 -76 40 -57 hvcurveto
          -69 -87 71 -56 62 78 rlineto
          -33 46 57 -17 64 hhcurveto
          174 119 129 212 hvcurveto
          hintmask 11011100
          87 -20 73 -36 55 vhcurveto
          -390 -215 rmoveto
          hintmask 11101100
          136 59 81 94 37 32 -13 -24 25 vhcurveto
          -231 -289 rlineto
          hintmask 11011100
          -11 31 -5 37 41 vvcurveto
          306 hmoveto
          hintmask 11101100
          -136 -60 -86 -93 -34 -29 11 21 -24 vhcurveto
          228 285 rlineto
          hintmask 11011100
          8 -28 4 -31 -36 vvcurveto
          endchar
        </CharString>
        <CharString name="Otilde">
          102 -55 callgsubr
          30 18 callsubr
          24 callsubr
          -41 88 212 89 -42 140 hintmask 0000000000000000
          hintmask 1110010100000000
          413 695 rmoveto
          -42 callgsubr
          hintmask 1101101010000000
          -39 callsubr
          hintmask 1110010100000000
          35 32 -60 72 hhcurveto
          hintmask 1101110010000000
          -72 -707 rmoveto
          -106 callgsubr
          endchar
        </CharString>
        <CharString name="P">
          13 228 109 207 109 hstem
          7 callgsubr
          204 134 vstem
          79 hmoveto
          137 228 85 36 callsubr
          -113 51 -144 hvcurveto
          -218 hlineto
          137 -316 rmoveto
          207 72 vlineto
          86 46 -26 -72 -72 -41 -37 -87 hvcurveto
          endchar
        </CharString>
        <CharString name="Q">
          102 -179 110 615 119 -23 callsubr
          641 -58 rmoveto
          -6 -19 -25 -5 -28 hhcurveto
          -58 -59 19 48 -30 hvcurveto
          129 35 83 119 177 vvcurveto
          212 -119 124 -174 -174 -120 -123 -213 -186 91 -121 139 -28 vhcurveto
          -100 45 95 -73 136 hhcurveto
          49 40 9 11 23 hvcurveto
          -477 488 rmoveto
          136 59 81 94 93 60 -81 -136 -143 -60 -86 -93 -94 -59 86 143 vhcurveto
          endchar
        </CharString>
        <CharString name="R">
          27 242 109 193 109 hstem
          7 callgsubr
          207 134 vstem
          587 hmoveto
          -151 264 rlineto
          73 31 48 60 98 vvcurveto
          152 -110 48 -138 vhcurveto
          -230 -653 137 242 87 hlineto
          130 -242 rlineto
          -217 544 rmoveto
          81 hlineto
          82 44 -23 -68 -68 -44 -34 -82 hvcurveto
          -81 hlineto
          endchar
        </CharString>
        <CharString name="S">
          -27 -55 callgsubr
          12 callgsubr
          276 -12 -102 callsubr
          endchar
        </CharString>
        <CharString name="Sacute">
          -27 -55 callgsubr
          87 -20 12 callgsubr
          278 -63 callgsubr
          59 -764 -102 callsubr
          endchar
        </CharString>
        <CharString name="Scaron">
          -27 -55 callgsubr
          38 63 12 callgsubr
          215 -74 callsubr
          153 -826 -102 callsubr
          endchar
        </CharString>
        <CharString name="T">
          -26 538 115 hstem
          208 -39 callgsubr
          -32 callsubr
          endchar
        </CharString>
        <CharString name="Thorn">
          33 127 109 207 109 101 -20 hstem
          7 callgsubr
          214 134 vstem
          79 hmoveto
          137 127 95 36 callsubr
          -111 51 -142 hvcurveto
          -95 101 -27 callsubr
          137 -417 rmoveto
          207 86 vlineto
          84 44 -25 -73 -72 -41 -37 -87 hvcurveto
          endchar
        </CharString>
        <CharString name="U">
          83 -12 119 546 35 callgsubr
          332 -12 -99 callsubr
        </CharString>
        <CharString name="Uacute">
          2 callgsubr
          320 -63 callgsubr
          73 -764 -99 callsubr
        </CharString>
        <CharString name="Ucircumflex">
          -19 callsubr
          140 63 -23 callgsubr
          224 -76 callgsubr
          167 -737 -99 callsubr
        </CharString>
        <CharString name="Udieresis">
          -19 callsubr
          70 133 hstemhm
          76 137 -58 22 callsubr
          -53 132 hintmask 11110010
          222 703 rmoveto
          hintmask 11101010
          39 27 28 38 38 -27 29 -39 hvcurveto
          hintmask 11110010
          -39 -28 -29 -38 -38 28 -28 39 hvcurveto
          219 hmoveto
          39 27 28 38 38 -27 29 -39 hvcurveto
          hintmask 11110100
          -39 -28 -29 -38 hvcurveto
          hintmask 11110010
          -38 28 -28 39 vhcurveto
          -109 -715 -99 callsubr
        </CharString>
        <CharString name="Ugrave">
          2 callgsubr
          343 -45 callsubr
          168 -813 -99 callsubr
        </CharString>
        <CharString name="Umacron">
          -19 callsubr
          91 88 -23 callgsubr
          183 -12 callsubr
          149 -824 -99 callsubr
        </CharString>
        <CharString name="V">
          -29 0 130 523 -20 hstem
          -6 562 -40 callgsubr
          endchar
        </CharString>
        <CharString name="W">
          230 0 133 330 190 0 -20 hstemhm
          15 779 hintmask 10110000
          139 hmoveto
          169 hlineto
          67 312 rlineto
          hintmask 11010000
          11 51 8 51 9 49 rrcurveto
          4 hlineto
          7 -49 9 -51 11 -51 69 -312 rcurveline
          172 hlineto
          119 653 rlineto
          -131 hlineto
          -49 -313 -10 -68 -9 -70 -9 -69 -7 callgsubr
          -14 69 -13 71 -14 67 -73 313 rcurveline
          -117 hlineto
          -74 -313 -13 -69 -14 -69 -13 -69 -7 callgsubr
          -9 69 -10 69 -9 69 -49 313 rcurveline
          -141 hlineto
          endchar
        </CharString>
        <CharString name="X">
          -20 31 callgsubr
          hstem
          12 535 vstem
          12 hmoveto
          146 hlineto
          67 140 15 34 15 33 16 40 rlinecurve
          4 hlineto
          18 -40 15 -33 17 -34 69 -140 rcurveline
          153 hlineto
          -182 330 171 323 rlineto
          -146 hlineto
          -58 -131 -13 -30 -14 -32 -15 -41 -7 callgsubr
          -19 41 -14 32 -15 30 -62 131 rcurveline
          -153 hlineto
          171 -317 rlineto
          endchar
        </CharString>
        <CharString name="Y">
          -62 31 callgsubr
          hstem
          190 -39 callgsubr
          190 hmoveto
          -77 callgsubr
        </CharString>
        <CharString name="Yacute">
          -62 31 callgsubr
          119 -20 hstem
          190 -39 callgsubr
          248 -63 callgsubr
          3 -752 rmoveto
          -77 callgsubr
        </CharString>
        <CharString name="Ydieresis">
          -62 31 callgsubr
          70 133 hstemhm
          83 133 -26 137 -25 133 12 callsubr
          150 -87 callsubr
          hintmask 11010000
          -179 -703 rmoveto
          -77 callgsubr
        </CharString>
        <CharString name="Z">
          -38 30 callsubr
          423 115 hstem
          37 469 vstem
          37 hmoveto
          -69 callgsubr
          endchar
        </CharString>
        <CharString name="ZWJ">
          29 callgsubr
          -150 34 233 34 vstem
          -150 785 rmoveto
          34 73 233 -73 34 109 -301 hlineto
          endchar
        </CharString>
        <CharString name="ZWNJ">
          767 217 hstem
          -104 207 vstem
          -81 767 rmoveto
          81 81 79 -80 24 24 -79 83 79 82 -24 25 -79 -82 -81 84 -23 -27 78 -82 -78 -83 rlineto
          endchar
        </CharString>
        <CharString name="Zcaron">
          -38 30 callsubr
          423 115 50 63 hstem
          37 469 vstem
          209 -74 callsubr
          -80 -814 rmoveto
          -69 callgsubr
          endchar
        </CharString>
        <CharString name="a">
          -44 callsubr
          -12 callgsubr
          191 -12 -107 callgsubr
          endchar
        </CharString>
        <CharString name="a.sups">
          -81 callgsubr
        </CharString>
        <CharString name="aacute">
          -44 callsubr
          133 -20 -12 callgsubr
          290 -71 callgsubr
          -31 -652 -107 callgsubr
          endchar
        </CharString>
        <CharString name="abreve">
          -44 callsubr
          65 86 29 callsubr
          -59 79 131 137 -91 78 hintmask 11101100
          283 10 callsubr
          hintmask 11101010
          -72 callsubr
          22 callgsubr
          hintmask 11101100
          -86 4 50 30 callgsubr
          hintmask 11110100
          -92 -584 -107 callgsubr
          endchar
        </CharString>
        <CharString name="acircumflex">
          -44 callsubr
          151 86 -12 callgsubr
          157 -68 callgsubr
          -139 hlineto
          -109 -133 rlineto
          86 -623 -107 callgsubr
          endchar
        </CharString>
        <CharString name="acute">
          -26 640 -20 hstem
          216 244 vstem
          283 573 rmoveto
          177 156 -93 90 -151 -179 rlineto
          endchar
        </CharString>
        <CharString name="acutecomb">
          640 -20 hstem
          -61 245 vstem
          7 -71 callgsubr
          endchar
        </CharString>
        <CharString name="acutecomb.cap">
          752 -20 hstem
          -72 239 vstem
          -12 683 rmoveto
          179 118 -73 89 -166 -138 rlineto
          endchar
        </CharString>
        <CharString name="adieresis">
          -44 callsubr
          65 136 29 callsubr
          -67 1 callgsubr
          -132 137 hintmask 11101010
          176 10 callsubr
          -98 callgsubr
          hintmask 11110100
          214 hmoveto
          -98 callgsubr
          -199 -584 rmoveto
          56 48 27 37 43 hvcurveto
          3 hlineto
          10 -52 rlineto
          hintmask 11110010
          112 286 hlineto
          147 -67 74 -126 -78 -70 -28 -37 -60 vhcurveto
          49 -90 rlineto
          27 46 43 19 44 hhcurveto
          58 22 -34 -46 2 hvcurveto
          -198 -21 -84 -56 -105 vvcurveto
          hintmask 11110100
          -84 58 -64 89 vhcurveto
          45 106 rmoveto
          -37 -24 17 36 hvcurveto
          hintmask 11110010
          41 37 32 114 15 vhcurveto
          -95 vlineto
          hintmask 11110100
          -28 -29 -25 -18 -36 hhcurveto
          endchar
        </CharString>
        <CharString name="ae">
          207 -12 108 112 85 105 109 -105 105 hstemhm
          49 131 148 125 179 117 hintmask 11011110
          196 -12 rmoveto
          65 57 23 57 70 hvcurveto
          -47 40 56 -33 74 hhcurveto
          60 63 21 34 50 hvcurveto
          -47 89 rlineto
          -21 -36 -32 -15 -39 hhcurveto
          -64 -50 38 74 -10 hvcurveto
          290 hlineto
          3 12 3 22 25 vvcurveto
          136 -66 104 -129 -60 -48 -29 -51 -41 vhcurveto
          49 -28 -47 31 -64 hhcurveto
          -72 -67 -28 -37 -60 hvcurveto
          hintmask 11101110
          49 -90 rlineto
          27 46 43 19 43 hhcurveto
          58 20 -34 -46 2 hvcurveto
          -196 -21 -83 -56 -105 vvcurveto
          hintmask 11011110
          -84 58 -64 89 vhcurveto
          257 305 rmoveto
          72 8 39 37 49 hhcurveto
          57 26 -43 -66 hvcurveto
          -391 -199 rmoveto
          -37 -24 17 36 42 40 31 107 15 hvcurveto
          1 -22 2 -24 5 -26 8 -21 rlinecurve
          -30 -30 -37 -18 -35 hhcurveto
          endchar
        </CharString>
        <CharString name="agrave">
          -44 callsubr
          133 -20 -12 callgsubr
          277 -11 callsubr
          -93 -90 rlineto
          91 -741 -107 callgsubr
          endchar
        </CharString>
        <CharString name="alphalatin">
          -4 callgsubr
          243 -12 rmoveto
          51 55 30 37 33 hvcurveto
          4 hlineto
          -42 13 31 -25 49 hhcurveto
          27 15 3 7 14 hvcurveto
          1 103 rlineto
          -2 -7 -4 0 -2 hhcurveto
          -12 -8 8 25 hvcurveto
          hintmask 11011000
          363 -108 vlineto
          hintmask 10111000
          -11 -49 rlineto
          -3 hlineto
          42 -40 -40 19 -51 hhcurveto
          -105 -104 -98 -162 -162 79 -97 123 hvcurveto
          35 112 rmoveto
          -61 -36 48 101 97 45 49 52 29 31 -9 -26 28 hvcurveto
          -212 vlineto
          -34 -27 -27 -14 -34 hhcurveto
          endchar
        </CharString>
        <CharString name="amacron">
          -44 callsubr
          86 88 29 callsubr
          -37 291 -103 137 12 callsubr
          138 -13 callgsubr
          hintmask 11110100
          53 -693 -107 callgsubr
          endchar
        </CharString>
        <CharString name="ampersand">
          -95 callgsubr
        </CharString>
        <CharString name="ampersand.lat">
          -95 callgsubr
        </CharString>
        <CharString name="approxequal">
          -56 128 97 -20 97 56 97 -20 97 -19 -20 hstemhm
          30 463 hintmask 10101100
          347 358 rmoveto
          -20 callgsubr
          hintmask 10010100
          -38 callgsubr
          hintmask 10101100
          55 36 -77 82 hhcurveto
          -230 vmoveto
          -20 callgsubr
          hintmask 01101100
          -38 callgsubr
          hintmask 10101100
          55 36 -77 82 hhcurveto
          endchar
        </CharString>
        <CharString name="aring">
          -44 callsubr
          56 52 102 52 29 callsubr
          -20 83 88 137 -134 82 hintmask 11110110
          283 563 rmoveto
          hintmask 11110101
          84 44 45 58 57 -44 46 -84 -83 -45 -46 -57 hvcurveto
          hintmask 11110110
          -58 45 -45 83 vhcurveto
          hintmask 11110101
          52 vmoveto
          -25 -20 20 31 30 20 33 callsubr
          hintmask 11111010
          -92 -627 -107 callgsubr
          endchar
        </CharString>
        <CharString name="asciicircum">
          -58 callsubr
        </CharString>
        <CharString name="asciicircum.lat">
          -58 callsubr
        </CharString>
        <CharString name="asciitilde">
          -56 243 97 -20 97 hstemhm
          30 463 hintmask 10100000
          347 243 rmoveto
          -20 callgsubr
          hintmask 01100000
          -38 callgsubr
          hintmask 10100000
          55 36 -77 82 hhcurveto
          endchar
        </CharString>
        <CharString name="asterisk">
          -57 callgsubr
        </CharString>
        <CharString name="asterisk.lat">
          -57 callgsubr
        </CharString>
        <CharString name="at">
          -98 callsubr
        </CharString>
        <CharString name="at.lat">
          -98 callsubr
        </CharString>
        <CharString name="atilde">
          -44 callsubr
          67 95 -28 95 29 callsubr
          -79 86 144 137 -79 86 hintmask 00000000
          hintmask 11100001
          350 -42 callsubr
          hintmask 11100001
          34 33 -67 64 hhcurveto
          hintmask 11011010
          -159 -586 -107 callgsubr
          endchar
        </CharString>
        <CharString name="b">
          -9 -12 -35 callsubr
          13 callgsubr
          186 14 callgsubr
          -70 callgsubr
          endchar
        </CharString>
        <CharString name="backslash">
          -18 callgsubr
        </CharString>
        <CharString name="backslash.lat">
          -18 callgsubr
        </CharString>
        <CharString name="bar">
          -315 -229 -21 1000 -20 hstem
          87 90 vstem
          87 -250 rmoveto
          90 1000 -90 hlineto
          endchar
        </CharString>
        <CharString name="braceleft">
          -85 callgsubr
        </CharString>
        <CharString name="braceleft.lat">
          -85 callgsubr
        </CharString>
        <CharString name="braceright">
          -85 callsubr
        </CharString>
        <CharString name="braceright.lat">
          -85 callsubr
        </CharString>
        <CharString name="bracketleft">
          -22 callsubr
        </CharString>
        <CharString name="bracketleft.lat">
          -22 callsubr
        </CharString>
        <CharString name="bracketright">
          -26 callsubr
        </CharString>
        <CharString name="bracketright.lat">
          -26 callsubr
        </CharString>
        <CharString name="breve">
          -26 572 86 hstem
          365 79 vstem
          277 10 callsubr
          113 50 70 86 4 hvcurveto
          -79 13 rlineto
          -44 -6 -28 -39 -54 hhcurveto
          -55 -27 39 44 -7 hvcurveto
          -78 -13 rlineto
          -86 3 51 30 callgsubr
          endchar
        </CharString>
        <CharString name="brokenbar">
          -315 -119 737 hstem
          87 90 vstem
          87 618 rmoveto
          -280 vlineto
          -457 90 297 vlineto
          440 vlineto
          endchar
        </CharString>
        <CharString name="bullet">
          -34 callsubr
        </CharString>
        <CharString name="bullet.lat">
          -34 callsubr
        </CharString>
        <CharString name="c">
          -113 -55 callsubr
          hstem
          38 14 callgsubr
          280 -12 rmoveto
          55 60 18 42 48 hvcurveto
          -73 callsubr
          -164 105 -95 137 hvcurveto
          endchar
        </CharString>
        <CharString name="caron">
          -26 577 5 callgsubr
          98 357 vstem
          207 577 rmoveto
          139 hlineto
          109 132 -52 49 -124 -95 rlineto
          -4 hlineto
          -124 95 -53 -49 rlineto
          endchar
        </CharString>
        <CharString name="ccaron">
          -113 -55 callsubr
          70 5 callgsubr
          38 14 callgsubr
          208 -67 callgsubr
          181 -721 rmoveto
          55 60 18 42 48 hvcurveto
          -73 callsubr
          -164 105 -95 137 hvcurveto
          endchar
        </CharString>
        <CharString name="ccedilla">
          -113 -237 56 577 111 hstem
          31 callsubr
          93 99 vstem
          294 -62 rmoveto
          22 53 44 6 45 18 38 33 rlinecurve
          -73 callsubr
          -146 83 -91 115 -19 hvcurveto
          -42 -84 rlineto
          60 -8 17 -14 -21 vvcurveto
          -29 -25 -12 -79 -4 vhcurveto
          11 -56 rlineto
          121 32 callsubr
          endchar
        </CharString>
        <CharString name="cedilla">
          -26 -237 56 119 66 hstem
          270 99 vstem
          177 -237 rmoveto
          122 4 70 31 66 vvcurveto
          42 -26 21 -50 11 vhcurveto
          29 -6 callgsubr
        </CharString>
        <CharString name="cent">
          -84 callgsubr
        </CharString>
        <CharString name="cent.heb">
          -39 endchar
        </CharString>
        <CharString name="cent.lat">
          -84 callgsubr
        </CharString>
        <CharString name="chi">
          -60 507 -20 hstem
          9 523 vstem
          149 -189 rmoveto
          115 245 -5 callgsubr
          129 -245 135 30 -199 327 171 327 rlineto
          -142 hlineto
          -94 -210 rlineto
          -4 hlineto
          -120 222 -135 -30 189 -312 -189 -342 rlineto
          endchar
        </CharString>
        <CharString name="circledotted">
          0 -13 84 -57 84 -2 85 24 84 25 85 -64 84 -23 84 hstemhm
          38 82 -54 81 -4 82 25 81 -35 114 -56 82 -23 82 -63 83 -56 83 hintmask 0000000000000000
          hintmask 0000001001010000
          368 402 rmoveto
          25 17 16 27 26 -19 16 -23 -9 -9 -3 -6 -7 hvcurveto
          1 -3 -2 0 -3 hhcurveto
          -21 -18 -15 -26 -26 18 -17 21 10 9 3 5 7 hvcurveto
          -1 2 2 0 3 hhcurveto
          -184 78 rmoveto
          -22 -19 -14 -28 -26 19 -16 22 24 17 16 26 28 -19 14 -22 hvcurveto
          hintmask 0000010000000100
          270 -145 rmoveto
          25 16 16 26 27 -18 15 -23 -22 -19 -15 -27 -26 19 -16 22 hvcurveto
          hintmask 0000100010000000
          -348 -21 rmoveto
          25 16 17 27 27 -17 14 -24 -21 -19 -14 -27 -27 19 -17 21 hvcurveto
          hintmask 0001000100000001
          14 -66 rmoveto
          26 -18 15 -24 -21 -19 -15 -26 -27 19 -16 21 25 17 16 27 vhcurveto
          381 41 rmoveto
          -23 -19 -15 -26 -27 19 -16 23 24 17 16 27 26 -20 15 -21 hvcurveto
          hintmask 0010000010000010
          -395 -108 rmoveto
          -21 -19 -16 -27 -26 19 -16 21 25 16 16 26 27 -17 16 -24 hvcurveto
          368 hmoveto
          -22 -20 -16 -27 -26 20 -16 22 24 17 16 26 27 -19 16 -22 hvcurveto
          hintmask 0100000001001000
          -290 -83 rmoveto
          -22 -19 -14 -26 -28 19 -16 22 24 17 16 28 26 -19 14 -22 hvcurveto
          210 hmoveto
          -21 -19 -14 -26 -28 19 -16 21 26 16 16 28 26 -19 14 -23 hvcurveto
          hintmask 1000000000100000
          -105 -27 rmoveto
          -21 -18 -14 -26 -28 18 -16 21 25 17 16 28 26 -18 14 -24 hvcurveto
          endchar
        </CharString>
        <CharString name="circumflex">
          -26 658 86 hstem
          98 357 vstem
          151 562 rmoveto
          124 96 -5 callgsubr
          124 -96 52 -17 callgsubr
          -139 hlineto
          -109 -133 rlineto
          endchar
        </CharString>
        <CharString name="colon">
          -287 -12 176 154 -11 callgsubr
          318 -97 callsubr
          -330 vmoveto
          2 callsubr
        </CharString>
        <CharString name="comma">
          -287 5 159 hstem
          155 92 vstem
          150 164 -33 callgsubr
        </CharString>
        <CharString name="copyright">
          -93 callsubr
        </CharString>
        <CharString name="copyright.lat">
          -93 callsubr
        </CharString>
        <CharString name="currency">
          -56 131 95 208 95 -27 -20 21 -20 hstemhm
          48 122 183 122 hintmask 10011100
          90 87 rmoveto
          69 70 rlineto
          -18 31 36 -8 36 hhcurveto
          35 36 8 18 31 hvcurveto
          70 -70 68 69 -62 62 rlineto
          22 30 13 38 44 vvcurveto
          43 -13 38 -21 30 vhcurveto
          61 62 rlineto
          hintmask 10101100
          -68 69 -69 -70 rlineto
          hintmask 11001100
          18 -32 -36 9 -35 hhcurveto
          hintmask 10101100
          -36 -36 -9 -18 -31 hvcurveto
          hintmask 10011100
          -69 70 -69 -69 61 -62 rlineto
          -21 -30 -13 -38 -43 vvcurveto
          -44 13 -38 21 -30 vhcurveto
          -61 -62 rlineto
          241 70 rmoveto
          -51 -41 41 63 hvcurveto
          hintmask 11001100
          63 41 41 51 51 40 -41 -63 vhcurveto
          hintmask 10011100
          -63 -40 -41 -51 vhcurveto
          endchar
        </CharString>
        <CharString name="d">
          -9 -12 -35 callsubr
          hstem
          41 140 185 -39 callgsubr
          -92 callsubr
          endchar
        </CharString>
        <CharString name="dagger">
          -78 443 102 167 -20 hstem
          200 102 vstem
          196 -80 rmoveto
          110 hlineto
          -8 527 158 -8 -72 callgsubr
          8 rlineto
          endchar
        </CharString>
        <CharString name="dagger.lat">
          -78 443 102 167 -20 hstem
          200 102 vstem
          196 -80 rmoveto
          110 hlineto
          -8 527 158 -8 -72 callgsubr
          8 rlineto
          endchar
        </CharString>
        <CharString name="daggerdbl">
          -82 callgsubr
        </CharString>
        <CharString name="daggerdbl.lat">
          -82 callgsubr
        </CharString>
        <CharString name="degree">
          -60 callgsubr
        </CharString>
        <CharString name="degree.lat">
          -60 callgsubr
        </CharString>
        <CharString name="dieresis">
          -26 572 136 hstem
          102 1 callgsubr
          vstem
          170 10 callsubr
          7 callsubr
          214 hmoveto
          7 callsubr
          endchar
        </CharString>
        <CharString name="divide">
          -56 77 146 59 97 58 146 hstem
          185 154 vstem
          262 437 3 callsubr
          -228 -155 rmoveto
          -17 callsubr
          228 -302 3 callsubr
          endchar
        </CharString>
        <CharString name="dollar">
          -89 callgsubr
        </CharString>
        <CharString name="dollar.heb">
          -39 endchar
        </CharString>
        <CharString name="dollar.lat">
          -89 callgsubr
        </CharString>
        <CharString name="dotaccent">
          -26 572 146 hstem
          200 154 vstem
          277 10 callsubr
          3 callgsubr
        </CharString>
        <CharString name="dotbelowcomb">
          -223 146 hstem
          -77 154 vstem
          -223 -3 callsubr
        </CharString>
        <CharString name="dotlessi">
          -307 0 495 13 callgsubr
          vstem
          68 hmoveto
          136 495 -136 hlineto
          endchar
        </CharString>
        <CharString name="dotlessj">
          -310 -200 -30 callgsubr
          74 136 vstem
          40 11 callsubr
          2 501 rlineto
          -27 callsubr
          -1 -505 rlineto
          -1 callsubr
          -14 vhcurveto
          -24 -101 rlineto
          -8 20 26 -6 39 hhcurveto
          endchar
        </CharString>
        <CharString name="e">
          -65 -12 -36 callgsubr
          hstem
          361 117 vstem
          478 270 -107 callsubr
          endchar
        </CharString>
        <CharString name="e.sups">
          -75 callgsubr
        </CharString>
        <CharString name="eacute">
          -65 -12 -36 callgsubr
          133 -20 hstem
          361 117 vstem
          459 729 rmoveto
          -93 90 -152 -179 68 -67 rlineto
          196 -303 -107 callsubr
          endchar
        </CharString>
        <CharString name="ebreve">
          -65 -12 -36 callgsubr
          65 86 hstemhm
          108 79 174 117 -114 78 hintmask 11111100
          275 10 callsubr
          hintmask 11111010
          -72 callsubr
          22 callgsubr
          hintmask 11111100
          -86 4 50 30 callgsubr
          203 -302 -107 callsubr
          endchar
        </CharString>
        <CharString name="ecircumflex">
          -65 -12 -36 callgsubr
          151 86 hstem
          361 117 vstem
          273 658 rmoveto
          4 hlineto
          124 -96 53 -17 callgsubr
          -139 hlineto
          -109 -133 52 -49 rlineto
          329 -292 -107 callsubr
          endchar
        </CharString>
        <CharString name="edieresis">
          -65 -12 -36 callgsubr
          65 136 hstemhm
          100 1 callgsubr
          -89 117 hintmask 11111010
          168 10 callsubr
          -98 callgsubr
          hintmask 11111100
          214 hmoveto
          -98 callgsubr
          hintmask 11111010
          96 -302 -107 callsubr
          endchar
        </CharString>
        <CharString name="egrave">
          -65 -12 -36 callgsubr
          133 -20 hstem
          361 117 vstem
          336 640 rmoveto
          -151 179 -93 -90 177 -156 rlineto
          209 -303 -107 callsubr
          endchar
        </CharString>
        <CharString name="eight">
          -103 callgsubr
        </CharString>
        <CharString name="eight.heb">
          -103 callgsubr
        </CharString>
        <CharString name="eight.lat">
          -103 callgsubr
        </CharString>
        <CharString name="eight.pnumheb">
          -56 endchar
        </CharString>
        <CharString name="eight.pnumlat">
          -56 endchar
        </CharString>
        <CharString name="ellipsis">
          417 -12 176 hstem
          82 168 166 168 166 168 vstem
          166 -12 -97 callsubr
          334 hmoveto
          -101 callgsubr
          334 hmoveto
          2 callsubr
        </CharString>
        <CharString name="emacron">
          -65 -12 -36 callgsubr
          86 88 hstemhm
          130 291 -60 117 hintmask 00000000
          hintmask 11111000
          421 681 rmoveto
          -291 -88 291 hlineto
          hintmask 11110100
          57 -323 -107 callsubr
          endchar
        </CharString>
        <CharString name="emdash">
          -10 callsubr
        </CharString>
        <CharString name="emdash.lat">
          -10 callsubr
        </CharString>
        <CharString name="endash">
          -6 callsubr
        </CharString>
        <CharString name="endash.lat">
          -6 callsubr
        </CharString>
        <CharString name="eogonek">
          -65 -210 82 116 -36 callgsubr
          hstemhm
          38 131 91 91 10 117 hintmask 00000000
          hintmask 11111110
          362 -210 rmoveto
          30 43 13 20 24 hvcurveto
          -29 62 rlineto
          -7 -10 -12 -6 -14 hhcurveto
          -23 -20 13 26 40 21 31 87 61 hvcurveto
          -45 83 rlineto
          -21 -36 -35 -12 -39 hhcurveto
          -70 -52 38 77 -12 hvcurveto
          hintmask 01111010
          302 hlineto
          3 12 3 25 25 vvcurveto
          136 -70 101 -139 -118 -113 -99 -161 -163 108 -96 140 vhcurveto
          hintmask 11111110
          9 8 0 4 13 hvcurveto
          -25 -23 -31 -40 -48 vvcurveto
          -60 44 -31 58 vhcurveto
          hintmask 00111010
          -193 509 rmoveto
          68 10 43 35 50 hhcurveto
          62 27 -41 -62 hvcurveto
          endchar
        </CharString>
        <CharString name="eogonek.sups">
          -75 callgsubr
        </CharString>
        <CharString name="equal">
          25 callsubr
          34 397 rmoveto
          -17 callsubr
          -327 vmoveto
          -17 callsubr
          endchar
        </CharString>
        <CharString name="estimated">
          221 -11 20 307 19 306 20 hstem
          46 130 450 129 vstem
          401 -11 rmoveto
          114 102 52 79 65 hvcurveto
          -52 hlineto
          -68 -55 -82 -43 -91 hhcurveto
          -86 -78 38 61 -54 hvcurveto
          -4 6 -4 7 8 vvcurveto
          183 vlineto
          3 2 1 2 vhcurveto
          575 9 hlineto
          186 -158 150 -196 -196 -159 -150 -186 -186 159 -150 196 vhcurveto
          -221 346 rmoveto
          -2 -2 2 3 hvcurveto
          180 vlineto
          9 4 8 5 6 vhcurveto
          60 55 76 38 86 hhcurveto
          83 76 -37 -58 56 hvcurveto
          5 -6 4 -7 -9 vvcurveto
          -184 vlineto
          -3 -2 -2 -3 vhcurveto
          endchar
        </CharString>
        <CharString name="eth">
          -21 1 callsubr
          253 102 201 -20 28 -20 hstemhm
          44 125 209 128 hintmask 11011100
          371 602 rmoveto
          122 61 rlineto
          hintmask 11101100
          -36 62 -143 -73 -43 34 -48 28 -47 25 rlinecurve
          -60 -84 35 -18 31 -18 27 -19 rlinecurve
          -117 -60 36 -61 141 71 41 -39 29 -46 18 -56 rlinecurve
          32 -28 -41 13 -40 hhcurveto
          -107 -97 -85 -142 -147 106 -92 122 145 89 116 161 hvcurveto
          hintmask 11011100
          150 -55 107 -80 80 vhcurveto
          -94 -503 rmoveto
          -58 -50 46 82 82 43 43 63 35 35 -11 -37 31 hvcurveto
          1 -15 1 -15 -16 vvcurveto
          -106 -39 -53 -62 vhcurveto
          endchar
        </CharString>
        <CharString name="exclam">
          -70 callsubr
        </CharString>
        <CharString name="exclam.lat">
          -70 callsubr
        </CharString>
        <CharString name="exclamdown">
          -247 331 176 0 -20 hstemhm
          82 168 -150 132.5 -121 109 hintmask 00000000
          hintmask 10100000
          166 331 -97 callsubr
          hintmask 01010000
          -68 -507 rmoveto
          137 hlineto
          -5 127 rlineto
          hintmask 01001000
          -19 318 rlineto
          -90 hlineto
          -19 -318 rlineto
          endchar
        </CharString>
        <CharString name="exclamdown.lat">
          -247 endchar
        </CharString>
        <CharString name="f">
          -246 387 108 112 108 0 -20 hstemhm
          91 137 hintmask 11010000
          286 607 rmoveto
          17 18 -4 -7 17 hvcurveto
          hintmask 10110000
          25 101 rlineto
          hintmask 11010000
          -9 callgsubr
          -47 callsubr
          vhcurveto
          endchar
        </CharString>
        <CharString name="fi">
          26 387 108 77 146 -111 108 0 -20 hstemhm
          91 137 164 154 -145 28 callgsubr
          hintmask 11001100
          469 10 callsubr
          -78 callgsubr
          hintmask 10101010
          -378 -43 rmoveto
          -47 callsubr
          17 18 -4 -7 17 vhcurveto
          hintmask 10011010
          25 101 rlineto
          hintmask 10101010
          -9 callgsubr
          310 -529 -48 callsubr
        </CharString>
        <CharString name="five">
          -97 callgsubr
        </CharString>
        <CharString name="five.heb">
          -97 callgsubr
        </CharString>
        <CharString name="five.lat">
          -97 callgsubr
        </CharString>
        <CharString name="five.pnumheb">
          -56 endchar
        </CharString>
        <CharString name="five.pnumlat">
          -56 endchar
        </CharString>
        <CharString name="fl">
          35 1 callsubr
          288 108 112 108 -12 -20 32 -20 hstemhm
          91 137 173 136 hintmask 01100110
          91 529 rmoveto
          -47 callsubr
          17 18 -4 -7 17 vhcurveto
          hintmask 01001110
          25 101 rlineto
          hintmask 01100110
          -9 callgsubr
          hintmask 11010110
          490 -428 rmoveto
          -2 -8 -4 0 -6 hhcurveto
          -12 -14 10 30 hvcurveto
          564 -136 -558 vlineto
          -95 33 -62 94 32 22 5 6 16 vhcurveto
          endchar
        </CharString>
        <CharString name="florin">
          -88 callgsubr
        </CharString>
        <CharString name="florin.heb">
          -39 endchar
        </CharString>
        <CharString name="florin.lat">
          -88 callgsubr
        </CharString>
        <CharString name="four">
          -90 callgsubr
        </CharString>
        <CharString name="four.heb">
          -90 callgsubr
        </CharString>
        <CharString name="four.lat">
          -90 callgsubr
        </CharString>
        <CharString name="four.pnumheb">
          -56 endchar
        </CharString>
        <CharString name="four.pnumlat">
          -56 endchar
        </CharString>
        <CharString name="fraction">
          -80 callgsubr
        </CharString>
        <CharString name="fraction.lat">
          -80 callgsubr
        </CharString>
        <CharString name="g">
          -37 callgsubr
          -21 callgsubr
          156 119 -61 131 hintmask 0000000000000000
          hintmask 1110110001000000
          243 -213 -28 callsubr
          hintmask 1111000110000000
          -83 callgsubr
          hintmask 1110101010000000
          -56 callgsubr
          hintmask 1110100110000000
          -38 callsubr
          hintmask 1110110010000000
          -46 -26 -25 -34 -42 vvcurveto
          hintmask 1110110001000000
          18 callgsubr
          hintmask 1110101010000000
          -61 callgsubr
          hintmask 1110110001000000
          -79 callgsubr
        </CharString>
        <CharString name="gammalatin">
          -65 -206 72 21 -21 hstemhm
          144 111 10 112 hintmask 01010000
          502 495 rmoveto
          -131 hlineto
          -69 -216 -13 -43 -14 -32 -13 -45 -7 callgsubr
          -13 45 -13 32 -13 43 -69 216 rcurveline
          -138 hlineto
          hintmask 10110000
          166 -431 rlineto
          -23 -54 -11 -38 -46 vvcurveto
          -79 48 -53 68 vhcurveto
          hintmask 10010000
          69 48 53 79 46 -13 38 -23 56 hvcurveto
          hintmask 01010000
          -81 -200 rmoveto
          hintmask 01110000
          0 -5 20 32 vvcurveto
          26 0 27 4 40 vhcurveto
          hintmask 10010000
          6 -40 0 -27 -26 vvcurveto
          hintmask 01010000
          -32 -4 -20 -1 vhcurveto
          endchar
        </CharString>
        <CharString name="gcaron">
          -37 callgsubr
          70 86 46 -20 69 -20 -21 callgsubr
          156 119 -61 131 hintmask 1110111101010000
          203 -67 callgsubr
          hintmask 1110111110001000
          149 -922 -28 callsubr
          hintmask 1111011100110000
          -83 callgsubr
          hintmask 1110111101010000
          -56 callgsubr
          hintmask 1110111100110000
          -38 callsubr
          hintmask 1110111110010000
          -46 -26 -25 -34 -42 vvcurveto
          hintmask 1110111110001000
          18 callgsubr
          hintmask 1110111101010000
          -61 callgsubr
          hintmask 1110111110001000
          -79 callgsubr
        </CharString>
        <CharString name="gdotaccent">
          -37 callgsubr
          65 146 -21 callgsubr
          25 154 -23 119 -61 131 hintmask 0000000000000000
          hintmask 1110111001010000
          272 10 callsubr
          -78 callgsubr
          -29 -785 -83 callsubr
          hintmask 1110111001010000
          18 callgsubr
          hintmask 1110110100100000
          -61 callgsubr
          hintmask 1110111000010000
          -79 callgsubr
        </CharString>
        <CharString name="germandbls">
          44 -12 102 515 108 hstemhm
          68 135 89 125 -52 131 -25 125 hintmask 11110100
          416 -12 rmoveto
          117 63 72 90 hvcurveto
          155 -179 -7 71 54 79 30 97 vvcurveto
          hintmask 11101000
          84 -66 79 -131 -156 -75 -93 -128 vhcurveto
          -492 135 475 vlineto
          82 33 48 62 44 23 -30 -41 vhcurveto
          hintmask 11110100
          -75 -73 -28 -79 -132 179 5 -82 vvcurveto
          -30 -22 -23 -38 -32 -31 11 26 -33 vhcurveto
          -48 -93 rlineto
          -29 46 45 -17 58 hhcurveto
          endchar
        </CharString>
        <CharString name="glottalstopreversedsupmod">
          -243 772 78 hstemhm
          27 97 8 96 hintmask 10100000
          132 379 rmoveto
          96 209 hlineto
          hintmask 11100000
          -76 48 -28 31 44 vvcurveto
          39 27 22 43 31 27 -18 -24 19 vhcurveto
          48 60 rlineto
          33 -30 -43 27 -63 hhcurveto
          -84 -72 -46 -90 hvcurveto
          hintmask 10100000
          -72 44 -43 61 -47 vhcurveto
          endchar
        </CharString>
        <CharString name="grave">
          -26 640 -20 hstem
          93 245 vstem
          270 15 callsubr
        </CharString>
        <CharString name="gravecomb">
          640 -20 hstem
          -184 245 vstem
          -7 15 callsubr
        </CharString>
        <CharString name="gravecomb.cap">
          752 -20 hstem
          -167 239 vstem
          12 -45 callsubr
          endchar
        </CharString>
        <CharString name="greater">
          -56 109 447 32 callgsubr
          109 rmoveto
          hintmask 10100000
          455 175 rlineto
          96 vlineto
          -455 176 rlineto
          -113 vlineto
          182 -61 135 -48 rlineto
          -4 vlineto
          -135 -47 -182 -61 rlineto
          endchar
        </CharString>
        <CharString name="greaterequal">
          -56 0 97 32 callgsubr
          154 rmoveto
          hintmask 10100000
          455 144 rlineto
          114 vlineto
          -455 144 rlineto
          -113 vlineto
          179 -51 138 -35 rlineto
          -4 vlineto
          -138 -36 -179 -50 rlineto
          -267 vmoveto
          -17 callsubr
          endchar
        </CharString>
        <CharString name="guillemotleft">
          -107 58 389 hstem
          48 75 109 74 vstem
          367 58 rmoveto
          51 41 -112 153 112 153 -51 42 -135 -146 rlineto
          -97 vlineto
          -49 -146 -59 callsubr
          endchar
        </CharString>
        <CharString name="guillemotleft.lat">
          -107 58 389 hstem
          48 75 109 74 vstem
          183 58 -59 callsubr
          319 -146 rmoveto
          51 41 -112 153 112 153 -51 42 -135 -146 rlineto
          -97 vlineto
          endchar
        </CharString>
        <CharString name="guillemotright">
          -107 9 callgsubr
          109 74 vstem
          289 58 -56 callsubr
          -51 -44 callgsubr
          -132 -41 -46 callgsubr
          endchar
        </CharString>
        <CharString name="guillemotright.lat">
          -107 9 callgsubr
          109 74 -53 callsubr
          235 -41 -56 callsubr
          -51 -44 callgsubr
          endchar
        </CharString>
        <CharString name="guilsinglleft">
          -290 58 389 hstem
          48 75 vstem
          183 58 -59 callsubr
          endchar
        </CharString>
        <CharString name="guilsinglleft.lat">
          -290 58 389 hstem
          48 75 vstem
          183 58 -59 callsubr
          endchar
        </CharString>
        <CharString name="guilsinglright">
          -290 9 callgsubr
          -53 callsubr
          endchar
        </CharString>
        <CharString name="guilsinglright.lat">
          -290 9 callgsubr
          -53 callsubr
          endchar
        </CharString>
        <CharString name="h">
          -12 390 117 196 -20 13 callgsubr
          165 -39 callgsubr
          -90 callsubr
          endchar
        </CharString>
        <CharString name="hbar">
          -12 343 117 99 63.5 -63.5 67 -67 144 hstemhm
          -8 callsubr
          165 137 hintmask 10011100
          353 460 rmoveto
          -68 -48 -35 -36 -39 hvcurveto
          6 92 rlineto
          78 171 vlineto
          hintmask 10101100
          67 -171 vlineto
          hintmask 10011100
          77 -136 vlineto
          hintmask 11001100
          -78 vlineto
          -70 -5 rlineto
          hintmask 10011100
          -61 70 -559 136 291 vlineto
          34 35 25 18 39 hhcurveto
          46 20 -25 -74 hvcurveto
          -244 137 261 vlineto
          124 -46 75 -107 vhcurveto
          endchar
        </CharString>
        <CharString name="hungarumlaut">
          -26 566 212 hstem
          153 354 vstem
          225 566 rmoveto
          107 170 -92 15 callgsubr
          -88 -180 rlineto
          endchar
        </CharString>
        <CharString name="hyphen">
          -63 callsubr
        </CharString>
        <CharString name="i">
          -307 572 146 hstemhm
          59 154 -145 28 callgsubr
          hintmask 11000000
          136 10 callsubr
          -78 callgsubr
          hintmask 10100000
          -68 -572 -48 callsubr
        </CharString>
        <CharString name="iacute">
          -307 640 -20 13 callgsubr
          vstem
          143 -71 callgsubr
          -7 -640 -48 callsubr
        </CharString>
        <CharString name="icircumflex">
          -307 658 86 13 callgsubr
          vstem
          10 -68 callgsubr
          -139 hlineto
          -110 -133 rlineto
          111 -611 -48 callsubr
        </CharString>
        <CharString name="idieresis">
          -307 572 136 hstemhm
          -39 136 -29 136 -29 28 callgsubr
          hintmask 11010000
          29 10 callsubr
          -98 callgsubr
          214 hmoveto
          -98 callgsubr
          hintmask 10100000
          -175 -572 -48 callsubr
        </CharString>
        <CharString name="igrave">
          -307 640 -20 13 callgsubr
          vstem
          130 -11 callsubr
          -94 -90 rlineto
          116 -729 -48 callsubr
        </CharString>
        <CharString name="imacron">
          -307 593 88 13 callgsubr
          vstem
          -10 593 27 callgsubr
          78 -681 -48 callsubr
        </CharString>
        <CharString name="infinity">
          230 119 126 -102 100 149 127 -84 100 hstemhm
          38 100 533 100 hintmask 10011100
          578 119 rmoveto
          107 86 81 140 113 -81 82 -106 -80 -61 -45 -66 -51 hvcurveto
          -4 hlineto
          hintmask 01101100
          49 -36 -52 46 -77 hhcurveto
          -109 -76 -74 -127 -93 73 -82 93 76 55 49 45 35 hvcurveto
          4 hlineto
          hintmask 10011100
          -80 62 58 -38 84 hhcurveto
          126 vmoveto
          -57 -40 45 59 -43 hvcurveto
          57 41 45 29 47 hhcurveto
          61 39 -39 -60 -48 -35 -43 -58 hvcurveto
          hintmask 01101100
          -361 -2 rmoveto
          -49 -30 37 42 41 26 29 48 42 39 -33 -46 31 hvcurveto
          -41 -28 -36 -29 -43 hhcurveto
          endchar
        </CharString>
        <CharString name="integral">
          -198 -158 103 743 103 hstemhm
          118 123 -84 122 hintmask 11010000
          99 -158 rmoveto
          150 30 105 139 hvcurveto
          hintmask 11100000
          163 -38 150 152 vvcurveto
          95 12 42 52 14 12 -1 -3 9 vhcurveto
          14 100 rlineto
          3 -11 -22 4 -23 hhcurveto
          -150 -30 -105 -139 hvcurveto
          hintmask 11010000
          -162 39 -151 -152 vvcurveto
          -97 -12 -40 -52 -14 -12 1 3 -10 vhcurveto
          -13 -100 rlineto
          -3 11 21 -4 23 hhcurveto
          endchar
        </CharString>
        <CharString name="ismall">
          -192 0 20 callgsubr
          hstem
          125 -39 callgsubr
          51 hmoveto
          285 108 -74 279 74 108 -285 -108 74 -279 -74 hlineto
          endchar
        </CharString>
        <CharString name="j">
          -306 -200 108 664 146 hstemhm
          61 154 -141 28 callgsubr
          hintmask 11100000
          138 10 callsubr
          -78 callgsubr
          hintmask 11010000
          -64 -582 rmoveto
          -1 callsubr
          -14 vhcurveto
          -24 -101 rlineto
          -8 20 26 -6 39 hhcurveto
          129 41 87 107 hvcurveto
          2 501 rlineto
          -27 callsubr
          endchar
        </CharString>
        <CharString name="j.sups">
          -392 242 76 389 -20 67 101 hstem
          46 97 vstem
          95 754 rmoveto
          32 24 21 30 29 -24 21 -32 -34 -23 -21 -29 -30 23 -21 34 hvcurveto
          -69 -512 rmoveto
          88 29 59 73 hvcurveto
          333 -97 -337 vlineto
          -37 -8 -15 -26 -12 -8 2 2 -7 vhcurveto
          -17 -72 rlineto
          -5 14 16 -3 28 hhcurveto
          endchar
        </CharString>
        <CharString name="k">
          -40 703 -20 hstem
          68 133 vstem
          -74 callgsubr
          endchar
        </CharString>
        <CharString name="l">
          -54 callgsubr
        </CharString>
        <CharString name="lefttorightembed">
          29 callgsubr
          -129 88 11 callgsubr
          -76 -36 76 hlineto
          -63 -66 rlineto
          -143 66 rmoveto
          88 36 -88 hlineto
          endchar
        </CharString>
        <CharString name="less">
          -56 109 447 25 callgsubr
          109 rmoveto
          113 vlineto
          -181 61 rlineto
          hintmask 11000000
          -135 47 rlineto
          4 vlineto
          135 48 181 61 rlineto
          113 vlineto
          -455 -176 rlineto
          -96 vlineto
          endchar
        </CharString>
        <CharString name="lessequal">
          -56 0 97 25 callgsubr
          154 rmoveto
          113 vlineto
          -178 50 rlineto
          hintmask 11000000
          -138 36 rlineto
          4 vlineto
          138 35 178 51 rlineto
          113 vlineto
          -455 -144 rlineto
          -114 vlineto
          -298 vmoveto
          -17 callsubr
          endchar
        </CharString>
        <CharString name="litre">
          -118 -12 114 513 100 hstem
          108 133 93 112 vstem
          413 146 rmoveto
          -21 -24 -30 -23 -39 hhcurveto
          -43 -36 27 71 hvcurveto
          26 vlineto
          141 105 64 94 124 vvcurveto
          104 -64 62 -93 -104 -77 -73 -166 vhcurveto
          -224 vlineto
          -30 -19 -32 -20 -34 -20 51 -84 rcurveline
          17 10 16 10 16 10 rrcurveto
          -100 18 79 -51 90 hhcurveto
          68 54 37 38 43 hvcurveto
          -223 432 rmoveto
          87 25 33 27 24 17 -21 -46 -74 -32 -60 -61 -59 vhcurveto
          endchar
        </CharString>
        <CharString name="logicalnot">
          -56 282 97 hstem
          388 101 vstem
          388 96 rmoveto
          101 283 -455 -97 354 hlineto
          endchar
        </CharString>
        <CharString name="lozenge">
          -36 -10 115 451 114 hstem
          53 438 vstem
          216 -10 rmoveto
          112 hlineto
          163 340 -163 340 rlineto
          -112 hlineto
          -163 -340 rlineto
          217 -225 rmoveto
          -55 122 -49 103 49 103 55 123 -5 callgsubr
          55 -123 48 -103 -48 -103 -55 -122 rlineto
          endchar
        </CharString>
        <CharString name="lslash">
          -283 1 callsubr
          604 -20 hstem
          77 136 vstem
          239 99 rmoveto
          -12 -14 10 30 hvcurveto
          213 vlineto
          96 55 -47 85 -49 -29 rlineto
          240 -136 -307 vlineto
          -95 -54 48 -85 47 29 rlineto
          -141 vlineto
          -95 33 -62 94 32 22 5 6 16 vhcurveto
          -17 102 rlineto
          -2 -8 -4 0 -6 hhcurveto
          endchar
        </CharString>
        <CharString name="m">
          274 390 105 -105 117 hstemhm
          -8 callsubr
          157 136 157 136 hintmask 01111000
          68 hmoveto
          136 338 hlineto
          35 34 30 17 27 hhcurveto
          45 21 -25 -74 hvcurveto
          -291 136 338 vlineto
          35 34 30 17 27 hhcurveto
          45 21 -25 -74 hvcurveto
          -291 136 308 vlineto
          124 -48 75 -106 -64 -48 -38 -47 -44 vhcurveto
          54 -25 -41 31 -71 hhcurveto
          -64 -45 -35 -42 -41 hvcurveto
          -4 hlineto
          hintmask 10111000
          -10 65 6 callgsubr
        </CharString>
        <CharString name="macron">
          -26 593 88 hstem
          131 291 vstem
          131 -13 callgsubr
          endchar
        </CharString>
        <CharString name="minus">
          -56 282 97 hstem
          34 455 vstem
          34 282 rmoveto
          -17 callsubr
          endchar
        </CharString>
        <CharString name="multiply">
          -56 135 -21 hstem
          48 427 vstem
          117 114 rmoveto
          145 147 144 -147 69 69 -145 146 145 146 -69 70 -144 -147 -145 147 -69 -70 145 -146 -145 -146 rlineto
          endchar
        </CharString>
        <CharString name="n">
          -11 390 105 -105 117 hstemhm
          -8 callsubr
          165 137 hintmask 01110000
          68 hmoveto
          -86 callsubr
          -50 -35 -41 -42 vhcurveto
          -4 hlineto
          hintmask 10110000
          -10 64 6 callgsubr
        </CharString>
        <CharString name="newsheqel">
          -56 endchar
        </CharString>
        <CharString name="newsheqel.heb">
          -39 endchar
        </CharString>
        <CharString name="newsheqel.lat">
          -86 endchar
        </CharString>
        <CharString name="nine">
          -99 callgsubr
        </CharString>
        <CharString name="nine.heb">
          -99 callgsubr
        </CharString>
        <CharString name="nine.lat">
          -99 callgsubr
        </CharString>
        <CharString name="nine.pnumheb">
          -56 endchar
        </CharString>
        <CharString name="nine.pnumlat">
          -56 endchar
        </CharString>
        <CharString name="notequal">
          25 callsubr
          53 44 rmoveto
          88 hlineto
          73 123 rlineto
          275 97 -221 hlineto
          76 133 rlineto
          145 97 -91 hlineto
          72 122 rlineto
          -88 hlineto
          -72 -122 rlineto
          -276 -97 222 hlineto
          -76 -133 rlineto
          -146 -97 92 hlineto
          endchar
        </CharString>
        <CharString name="ntilde">
          -11 390 105 -105 117 67 95 -28 95 hstemhm
          -8 callsubr
          -81 86 160 137 -95 86 hintmask 00000000
          hintmask 01101001
          377 -52 callgsubr
          hintmask 01010110
          -34 -34 67 -64 hhcurveto
          -76 -41 -50 -99 -3 hvcurveto
          86 -5 rlineto
          41 4 11 18 22 hhcurveto
          hintmask 01101001
          34 33 -67 64 hhcurveto
          hintmask 01011010
          -309 -574 rmoveto
          -86 callsubr
          -50 -35 -41 -42 vhcurveto
          -4 hlineto
          hintmask 10011010
          -10 64 6 callgsubr
        </CharString>
        <CharString name="numbersign">
          -82 callsubr
        </CharString>
        <CharString name="numbersign.heb">
          -39 endchar
        </CharString>
        <CharString name="numbersign.lat">
          -82 callsubr
        </CharString>
        <CharString name="o">
          -26 -55 callsubr
          -13 callsubr
          277 -12 rmoveto
          -105 callgsubr
          endchar
        </CharString>
        <CharString name="o.sups">
          -64 callgsubr
        </CharString>
        <CharString name="oacute">
          -26 -55 callsubr
          133 -20 -13 callsubr
          284 -71 callgsubr
          61 -652 rmoveto
          -105 callgsubr
          endchar
        </CharString>
        <CharString name="obreve">
          -26 -55 callsubr
          65 86 hstemhm
          31 callsubr
          -68 79 177 78 -68 140 hintmask 00000000
          hintmask 11101100
          277 10 callsubr
          -72 callsubr
          22 callgsubr
          -86 4 50 30 callgsubr
          hintmask 11110010
          -584 vmoveto
          -105 callgsubr
          endchar
        </CharString>
        <CharString name="ocircumflex">
          -26 -55 callsubr
          151 86 -13 callsubr
          151 -68 callgsubr
          -139 hlineto
          -109 -133 rlineto
          178 -623 rmoveto
          -105 callgsubr
          endchar
        </CharString>
        <CharString name="odieresis">
          -26 -55 callsubr
          65 136 hstemhm
          31 callsubr
          -76 1 callgsubr
          -76 140 hintmask 00000000
          hintmask 11101100
          170 10 callsubr
          -98 callgsubr
          214 hmoveto
          -98 callgsubr
          hintmask 11110010
          -107 -584 rmoveto
          -105 callgsubr
          endchar
        </CharString>
        <CharString name="oe">
          246 -12 108 -108 111 109 85 103 111 -105 105 hstemhm
          38 138 189 126 181 117 hintmask 01101111
          267 -12 rmoveto
          74 53 32 61 40 hvcurveto
          hintmask 10101111
          -59 40 60 -34 63 hhcurveto
          60 64 21 34 49 hvcurveto
          -47 89 rlineto
          -21 -36 -33 -15 -39 hhcurveto
          -64 -50 38 74 -10 hvcurveto
          292 hlineto
          3 12 3 22 25 vvcurveto
          136 -67 104 -130 -62 -57 -34 -59 -40 vhcurveto
          58 -37 -56 35 -70 hhcurveto
          -125 -107 -95 -165 hvcurveto
          hintmask 01101111
          -164 104 -95 125 vhcurveto
          224 305 rmoveto
          72 8 39 37 50 hhcurveto
          57 27 -43 -66 hvcurveto
          -402 -194 rmoveto
          -58 -36 58 90 hvcurveto
          hintmask 01110111
          90 36 59 58 58 37 -59 -90 vhcurveto
          hintmask 01101111
          -90 -37 -58 -58 vhcurveto
          endchar
        </CharString>
        <CharString name="ogonek">
          -26 endchar
        </CharString>
        <CharString name="ograve">
          -26 -55 callsubr
          133 -20 -13 callsubr
          271 -11 callsubr
          -93 -90 rlineto
          183 -741 rmoveto
          -105 callgsubr
          endchar
        </CharString>
        <CharString name="omacron">
          -26 -55 callsubr
          86 88 hstemhm
          31 callsubr
          -46 291 -47 140 12 callsubr
          132 -13 callgsubr
          hintmask 11110100
          145 -693 rmoveto
          -105 callgsubr
          endchar
        </CharString>
        <CharString name="one">
          -76 callsubr
        </CharString>
        <CharString name="one.heb">
          -76 callsubr
        </CharString>
        <CharString name="one.lat">
          -76 callsubr
        </CharString>
        <CharString name="one.pnumheb">
          -90 endchar
        </CharString>
        <CharString name="one.pnumlat">
          -175 495 141 hstem
          159 -39 callgsubr
          159 hmoveto
          137 636 -101 hlineto
          -43 -27 -45 -17 -66 -12 rrcurveto
          -85 118 vlineto
          endchar
        </CharString>
        <CharString name="one.sups">
          -204 endchar
        </CharString>
        <CharString name="one.supsheb">
          -84 endchar
        </CharString>
        <CharString name="one.supslat">
          -114 endchar
        </CharString>
        <CharString name="onehalf">
          261 665 -20 hstem
          194 434 vstem
          194 -12 rmoveto
          80 hlineto
          354 677 rlineto
          -80 hlineto
          endchar
        </CharString>
        <CharString name="onehalf.heb">
          -39 endchar
        </CharString>
        <CharString name="onehalf.lat">
          261 0 85 234 83 -49 105 207 -20 hstemhm
          161 102 421 98 hintmask 10111100
          548 665 rmoveto
          -285 -546 rlineto
          339 23 callgsubr
          75 vlineto
          -42 -80 rlineto
          80 hlineto
          354 677 rlineto
          43 -580 rmoveto
          60 65 51 56 65 vvcurveto
          hintmask 11011100
          84 -57 47 -85 -59 -49 -28 -51 -38 vhcurveto
          57 -53 rlineto
          30 22 24 19 27 hhcurveto
          38 22 -24 -41 -50 -70 -63 -103 -86 hvcurveto
          -55 286 85 vlineto
          endchar
        </CharString>
        <CharString name="onequarter">
          256 665 -20 hstem
          200 434 vstem
          200 -12 rmoveto
          80 hlineto
          354 677 rlineto
          -80 hlineto
          endchar
        </CharString>
        <CharString name="onequarter.heb">
          -39 endchar
        </CharString>
        <CharString name="onequarter.lat">
          256 68 40 -18 66 162 72 -37 105 207 -20 hstemhm
          161 102 412 89 hintmask 01011110
          554 665 rmoveto
          hintmask 10011110
          -291 -557 rlineto
          350 23 callgsubr
          81 vlineto
          -42 -80 rlineto
          80 hlineto
          354 677 rlineto
          hintmask 01101110
          188 -43 callsubr
        </CharString>
        <CharString name="ordfeminine">
          -81 callgsubr
        </CharString>
        <CharString name="ordmasculine">
          -64 callgsubr
        </CharString>
        <CharString name="oslash">
          -26 endchar
        </CharString>
        <CharString name="otilde">
          -26 -55 callsubr
          67 95 -28 95 hstemhm
          31 callsubr
          -88 86 200 140 -138 86 hintmask 00000000
          hintmask 11101001
          344 -42 callsubr
          hintmask 11101001
          34 33 -67 64 hhcurveto
          hintmask 11011010
          -67 -586 rmoveto
          -105 callgsubr
          endchar
        </CharString>
        <CharString name="p">
          -9 -12 112 295 100 -100 112 hstemhm
          -8 callsubr
          186 140 hintmask 10111000
          68 -188 rmoveto
          136 149 hlineto
          -4 80 rlineto
          -34 37 41 -19 43 hhcurveto
          108 101 98 169 153 -73 99 -121 -52 -52 -27 -35 -39 hvcurveto
          -4 hlineto
          hintmask 11011000
          -10 50 rlineto
          -111 hlineto
          222 -395 rmoveto
          -26 -30 9 26 -30 hvcurveto
          hintmask 10111000
          212 vlineto
          33 32 29 15 32 hhcurveto
          64 29 -49 -92 hvcurveto
          hintmask 11011000
          -106 -44 -48 -56 vhcurveto
          endchar
        </CharString>
        <CharString name="paragraph">
          -53 callgsubr
        </CharString>
        <CharString name="paragraph.lat">
          -53 callgsubr
        </CharString>
        <CharString name="parenleft">
          -62 callsubr
        </CharString>
        <CharString name="parenleft.lat">
          -62 callsubr
        </CharString>
        <CharString name="parenright">
          -60 callsubr
        </CharString>
        <CharString name="parenright.lat">
          -60 callsubr
        </CharString>
        <CharString name="partialdiff">
          -10 1 callsubr
          209 105 141 111 hstem
          47 126 220 130 vstem
          293 665 rmoveto
          -68 -58 -27 -46 -52 hvcurveto
          59 -84 rlineto
          30 32 33 16 40 hhcurveto
          80 34 -61 -121 hvcurveto
          -23 vlineto
          40 -35 -48 24 -48 hhcurveto
          -127 -88 -92 -137 -121 89 -75 105 166 116 154 234 182 -79 107 -151 hvcurveto
          -37 -566 rmoveto
          -44 -39 32 61 78 42 38 63 37 37 -17 -45 30 hvcurveto
          -106 -21 -50 -41 -55 hhcurveto
          endchar
        </CharString>
        <CharString name="percent">
          266 665 -20 hstem
          205 434 vstem
          205 -12 rmoveto
          80 hlineto
          354 677 rlineto
          -80 hlineto
          endchar
        </CharString>
        <CharString name="percent.heb">
          -39 endchar
        </CharString>
        <CharString name="percent.lat">
          273 23 callsubr
          27 96 129 96 149 96 129 96 hintmask 1001111110000000
          559 665 rmoveto
          -211 -403 rlineto
          2 vlineto
          130 -67 76 -93 -94 -67 -76 -130 vhcurveto
          hintmask 0110111110000000
          -131 67 -77 94 21 19 3 8 18 vhcurveto
          -41 -79 rlineto
          80 hlineto
          354 677 rlineto
          18 -263 rmoveto
          -93 -67 -75 -131 hvcurveto
          hintmask 1001111110000000
          -131 67 -77 93 94 67 77 131 vhcurveto
          hintmask 0110111110000000
          131 -67 75 -94 vhcurveto
          hintmask 0101111110000000
          -469 -3 callgsubr
          hintmask 1010111110000000
          469 -68 rmoveto
          -29 callsubr
          endchar
        </CharString>
        <CharString name="period">
          -287 -12 -11 callgsubr
          -12 rmoveto
          2 callsubr
        </CharString>
        <CharString name="periodcentered">
          -287 233 -11 callgsubr
          233 rmoveto
          2 callsubr
        </CharString>
        <CharString name="periodcentered.lat">
          -287 233 -11 callgsubr
          233 rmoveto
          2 callsubr
        </CharString>
        <CharString name="perthousand">
          -80 callgsubr
        </CharString>
        <CharString name="perthousand.heb">
          -39 endchar
        </CharString>
        <CharString name="perthousand.lat">
          661 23 callsubr
          327 96 73 96 129 96 53 96 129 96 hintmask 0000000000000000
          hintmask 0101110000000000
          263 470 rmoveto
          -5 -4 -1 -4 hhcurveto
          103 196 rlineto
          -80 hlineto
          -354 -677 rlineto
          80 hlineto
          109 209 rlineto
          -90 19 59 -51 77 hhcurveto
          93 67 77 131 130 -67 76 -93 hvcurveto
          hintmask 1010001111000000
          393 -68 rmoveto
          -7 callsubr
          374 hmoveto
          -7 callsubr
          hintmask 0101010000000000
          -767 -3 callgsubr
          hintmask 1010001111000000
          393 -68 rmoveto
          -29 callsubr
          374 hmoveto
          -29 callsubr
          endchar
        </CharString>
        <CharString name="pi">
          48 1 callsubr
          288 -30 callgsubr
          127 128 120 128 vstem
          516 -12 rmoveto
          36 31 7 7 19 hvcurveto
          -17 101 rlineto
          -2 -15 -13 -2 -9 hhcurveto
          -29 -16 11 34 27 1 125 6 91 hvcurveto
          94 108 -512 hlineto
          -73 -6 rlineto
          -102 108 vlineto
          -114 -12 -139 -23 -134 vhcurveto
          137 -8 rlineto
          13 131 13 142 122 vvcurveto
          124 hlineto
          -87 -4 -117 -33 vvcurveto
          -99 36 -63 105 vhcurveto
          endchar
        </CharString>
        <CharString name="plus">
          -56 282 97 hstem
          211 101 vstem
          211 96 rmoveto
          101 186 177 97 -177 186 -101 -186 -177 -97 177 hlineto
          endchar
        </CharString>
        <CharString name="plusminus">
          -56 0 97 199 97 hstem
          211 101 vstem
          211 153 rmoveto
          101 143 177 97 -177 172 -101 -172 -177 -97 177 hlineto
          -177 -296 rmoveto
          -17 callsubr
          endchar
        </CharString>
        <CharString name="popdirectionformat">
          765 229 hstem
          -19 36 vstem
          -19 765 rmoveto
          36 160 hlineto
          62 -64 25 26 -104 107 -104 -107 25 -26 60 63 rlineto
          endchar
        </CharString>
        <CharString name="product">
          125 516 120 hstem
          81 137 268 -39 callgsubr
          81 -120 rmoveto
          137 636 268 -636 137 756 -542 hlineto
          endchar
        </CharString>
        <CharString name="q">
          -4 callgsubr
          366 -188 rmoveto
          137 hlineto
          hintmask 11011000
          683 -107 vlineto
          hintmask 10111000
          -12 -49 rlineto
          -3 hlineto
          42 -40 -40 19 -54 hhcurveto
          -105 -101 -98 -162 -162 79 -97 123 47 48 24 33 33 hvcurveto
          -5 -78 rlineto
          -88 133 rmoveto
          -61 -36 48 101 97 45 49 52 29 31 -9 -26 28 hvcurveto
          -212 vlineto
          -34 -27 -27 -14 -34 hhcurveto
          endchar
        </CharString>
        <CharString name="question">
          -80 callsubr
        </CharString>
        <CharString name="question.lat">
          -80 callsubr
        </CharString>
        <CharString name="questiondown">
          -84 callsubr
        </CharString>
        <CharString name="questiondown.lat">
          -84 callsubr
        </CharString>
        <CharString name="quotedbl">
          -60 17 callsubr
          93 134 vstem
          335 367 -51 callgsubr
          -200 -194 -51 callgsubr
          endchar
        </CharString>
        <CharString name="quotedbl.lat">
          -60 endchar
        </CharString>
        <CharString name="quotedblbase">
          -60 20 147 hstem
          158 79 148 79 vstem
          148 167 rmoveto
          -66 callsubr
          227 hmoveto
          -68 callsubr
        </CharString>
        <CharString name="quotedblbase.lat">
          -60 endchar
        </CharString>
        <CharString name="quotedblleft">
          -60 353 147 hstem
          55 80 147 80 vstem
          223 625 rmoveto
          -31 60 rlineto
          -92 -46 -45 -70 -92 vvcurveto
          0 callsubr
          43 -33 26 -40 -3 -3 0 -1 -3 vhcurveto
          59 29 37 59 30 vhcurveto
          148 -125 rmoveto
          -3 -3 0 -1 -3 hvcurveto
          59 29 37 59 30 vhcurveto
          -31 60 rlineto
          -92 -46 -45 -70 -92 vvcurveto
          0 callsubr
          43 -33 26 -40 vhcurveto
          endchar
        </CharString>
        <CharString name="quotedblleft.lat">
          -60 endchar
        </CharString>
        <CharString name="quotedblright">
          -60 550 19 callsubr
          148 79 vstem
          148 697 -18 callsubr
          3 0 1 3 hvcurveto
          -59 -29 -86 callgsubr
          227 hmoveto
          -68 callsubr
        </CharString>
        <CharString name="quotedblright.lat">
          -60 endchar
        </CharString>
        <CharString name="quoteleft">
          -62 callgsubr
        </CharString>
        <CharString name="quoteleft.lat">
          -62 callgsubr
        </CharString>
        <CharString name="quoteright">
          -287 550 19 callsubr
          vstem
          148 697 -18 callsubr
          3 0 1 3 hvcurveto
          -59 -29 -86 callgsubr
          endchar
        </CharString>
        <CharString name="quoteright.lat">
          -287 550 19 callsubr
          vstem
          148 697 -18 callsubr
          3 0 1 3 hvcurveto
          -59 -29 -86 callgsubr
          endchar
        </CharString>
        <CharString name="quotesinglbase">
          -287 20 147 hstem
          158 79 vstem
          148 167 rmoveto
          -68 callsubr
        </CharString>
        <CharString name="quotesinglbase.lat">
          -287 20 19 callsubr
          vstem
          148 167 -18 callsubr
          3 0 1 3 hvcurveto
          -59 -29 -86 callgsubr
          endchar
        </CharString>
        <CharString name="quotesingle">
          -287 17 callsubr
          vstem
          108 367 -51 callgsubr
          endchar
        </CharString>
        <CharString name="quotesingle.lat">
          -287 17 callsubr
          vstem
          108 367 -51 callgsubr
          endchar
        </CharString>
        <CharString name="r">
          -189 387 108 -108 120 hstemhm
          -8 callsubr
          hintmask 01100000
          68 hmoveto
          136 292 hlineto
          70 28 46 25 38 hhcurveto
          21 14 -4 -4 17 hvcurveto
          23 118 rlineto
          6 -14 -17 4 -27 hhcurveto
          -51 -54 -34 -65 -35 hvcurveto
          -4 hlineto
          hintmask 10100000
          -10 87 6 callgsubr
        </CharString>
        <CharString name="radical">
          4 -83 136 hstemhm
          30 560 hintmask 00000000
          hintmask 11000000
          278 -83 rmoveto
          95 hlineto
          217 903 rlineto
          -92 hlineto
          -161 -688 -5 -26 -5 -27 -4 -26 -7 callgsubr
          -6 26 -7 27 -7 26 -102 303 rcurveline
          -167 -69 24 -65 74 30 rlineto
          endchar
        </CharString>
        <CharString name="registered">
          -87 callgsubr
        </CharString>
        <CharString name="registered.lat">
          -87 callgsubr
        </CharString>
        <CharString name="righttoleftembed">
          29 callgsubr
          41 88 35 callsubr
          75 36 -76 hlineto
          63 64 -25 26 -105 -109 rlineto
          185 -17 rmoveto
          88 36 -88 hlineto
          endchar
        </CharString>
        <CharString name="ring">
          -26 563 52 102 52 hstem
          149 82 91 83 vstem
          277 563 rmoveto
          83 45 45 58 57 -45 46 -83 34 callgsubr
          -26 -20 20 31 30 20 21 26 25 20 -21 -30 -31 -20 -20 -25 hvcurveto
          endchar
        </CharString>
        <CharString name="ringhalfleftmod">
          -404 endchar
        </CharString>
        <CharString name="ringhalfrightmod">
          -404 endchar
        </CharString>
        <CharString name="rsmall">
          -53 167 93 134 101 13 callgsubr
          130 134 vstem
          509 hmoveto
          -124 194 rlineto
          48 25 35 45 70 vvcurveto
          121 -89 40 -112 vhcurveto
          -199 -495 136 167 60 hlineto
          93 -167 rlineto
          -153 394 rmoveto
          45 hlineto
          56 29 -21 -43 -43 -29 -27 -56 hvcurveto
          -45 hlineto
          endchar
        </CharString>
        <CharString name="rsmallinverted">
          -53 0 101 135 93 hstem
          58 135 129 -39 callgsubr
          322 495 rmoveto
          -166 -60 vlineto
          -93 166 rlineto
          -151 hlineto
          123 -193 rlineto
          -48 -26 -35 -45 -69 vvcurveto
          -121 89 -41 112 vhcurveto
          200 495 hlineto
          -137 -394 rmoveto
          -45 hlineto
          -55 -29 21 43 43 29 28 55 hvcurveto
          45 hlineto
          endchar
        </CharString>
        <CharString name="s">
          27 callsubr
          hstem
          47 128 108 128 vstem
          211 -12 -100 callgsubr
          endchar
        </CharString>
        <CharString name="sacute">
          27 callsubr
          133 -20 hstem
          47 128 108 128 vstem
          246 -71 callgsubr
          33 -652 -100 callgsubr
          endchar
        </CharString>
        <CharString name="scaron">
          27 callsubr
          70 5 callgsubr
          47 128 108 128 vstem
          170 -67 callgsubr
          150 -721 -100 callgsubr
          endchar
        </CharString>
        <CharString name="section">
          -56 endchar
        </CharString>
        <CharString name="section.lat">
          -56 endchar
        </CharString>
        <CharString name="semicolon">
          -287 5 159 154 176 hstemhm
          62 168 -75 92 hintmask 00000000
          hintmask 11100000
          146 318 -97 callsubr
          hintmask 11010000
          4 -154 -33 callgsubr
        </CharString>
        <CharString name="seven">
          -81 callsubr
        </CharString>
        <CharString name="seven.heb">
          -81 callsubr
        </CharString>
        <CharString name="seven.lat">
          -81 callsubr
        </CharString>
        <CharString name="seven.pnumheb">
          -56 endchar
        </CharString>
        <CharString name="seven.pnumlat">
          -67 521 115 hstem
          152 138 vstem
          152 hmoveto
          138 hlineto
          11 248 20 124 146 180 rrcurveto
          84 -423 -115 276 vlineto
          -119 -168 -37 -137 -12 -216 rrcurveto
          endchar
        </CharString>
        <CharString name="six">
          -100 callsubr
        </CharString>
        <CharString name="six.heb">
          -100 callsubr
        </CharString>
        <CharString name="six.lat">
          -100 callsubr
        </CharString>
        <CharString name="six.pnumheb">
          -56 endchar
        </CharString>
        <CharString name="six.pnumlat">
          -56 endchar
        </CharString>
        <CharString name="slash">
          -15 callgsubr
        </CharString>
        <CharString name="slash.lat">
          -15 callgsubr
        </CharString>
        <CharString name="space">
          -379 endchar
        </CharString>
        <CharString name="sterling">
          -89 callsubr
        </CharString>
        <CharString name="sterling.heb">
          -39 endchar
        </CharString>
        <CharString name="sterling.lat">
          -89 callsubr
        </CharString>
        <CharString name="summation">
          -49 -120 115 526 115 hstem
          26 495 vstem
          26 -120 rmoveto
          495 115 -326 4 hlineto
          182 259 -174 259 rlineto
          4 294 115 -461 -82 vlineto
          201 -297 -211 -296 rlineto
          endchar
        </CharString>
        <CharString name="t">
          -203 -12 108 291 -30 callgsubr
          87 136 vstem
          253 -12 -94 callgsubr
          endchar
        </CharString>
        <CharString name="theta">
          -34 1 callsubr
          505 111 hstem
          50 74 298 73 vstem
          273 -12 rmoveto
          134 88 119 247 242 -88 119 -134 -134 -89 -118 -243 -247 89 -119 134 hvcurveto
          111 vmoveto
          -51 -39 53 202 201 39 49 51 50 40 -49 -201 -202 -40 -53 -50 hvcurveto
          -149 210 rmoveto
          91 298 -91 vlineto
          endchar
        </CharString>
        <CharString name="thorn">
          -9 -12 -35 callsubr
          13 callgsubr
          186 14 callgsubr
          68 -188 rmoveto
          136 149 hlineto
          -3 75 rlineto
          -30 36 36 -18 48 hhcurveto
          108 101 98 169 153 -76 99 -125 -47 -45 -21 -31 -36 hvcurveto
          3 72 rlineto
          176 -136 vlineto
          222 -603 rmoveto
          -26 -30 9 26 -30 hvcurveto
          212 vlineto
          33 32 29 15 32 hhcurveto
          64 29 -49 -92 -106 -44 -48 -56 hvcurveto
          endchar
        </CharString>
        <CharString name="three">
          -104 callgsubr
        </CharString>
        <CharString name="three.heb">
          -104 callgsubr
        </CharString>
        <CharString name="three.lat">
          -104 callgsubr
        </CharString>
        <CharString name="three.pnumheb">
          -56 endchar
        </CharString>
        <CharString name="three.pnumlat">
          -104 callgsubr
        </CharString>
        <CharString name="three.sups">
          -204 endchar
        </CharString>
        <CharString name="three.supsheb">
          -84 endchar
        </CharString>
        <CharString name="three.supslat">
          -114 endchar
        </CharString>
        <CharString name="threequarters">
          261 665 -20 hstem
          213 433 vstem
          213 -12 rmoveto
          80 hlineto
          353 677 rlineto
          -80 hlineto
          endchar
        </CharString>
        <CharString name="threequarters.heb">
          -39 endchar
        </CharString>
        <CharString name="threequarters.lat">
          261 56 77 -43 66 81 59 22 72 3 77 195 -20 hstemhm
          221 99 360 89 hintmask 01101111
          566 665 rmoveto
          -238 -456 -11 29 -26 21 -30 12 rlinecurve
          37 20 22 28 43 vvcurveto
          67 -63 41 -71 -60 -40 -22 -45 -41 vhcurveto
          57 -51 rlineto
          23 19 22 18 26 hhcurveto
          31 21 -17 -28 -34 -32 -18 -51 hvcurveto
          -59 vlineto
          64 33 -18 -36 hvcurveto
          hintmask 10101111
          -32 -27 -18 -33 -34 -27 16 33 -24 vhcurveto
          -61 -48 rlineto
          -50 33 56 -28 67 hhcurveto
          25 24 4 9 21 hvcurveto
          -42 -81 rlineto
          80 hlineto
          353 677 rlineto
          hintmask 01110111
          181 -43 callsubr
        </CharString>
        <CharString name="tilde">
          -26 574 95 -28 95 hstemhm
          90 86 202 86 hintmask 10110000
          344 574 rmoveto
          76 41 50 99 3 hvcurveto
          -86 5 rlineto
          -40 -4 -11 -19 -22 hhcurveto
          hintmask 01110000
          -34 -33 -19 callgsubr
        </CharString>
        <CharString name="tildecomb">
          574 95 -28 95 hstemhm
          -187 86 202 86 hintmask 00000000
          hintmask 10110000
          67 -52 callgsubr
          hintmask 01110000
          -34 -34 -19 callgsubr
        </CharString>
        <CharString name="tildecomb.cap">
          695 18 callsubr
          -195 89 212 89 hintmask 00000000
          hintmask 10011000
          72 695 rmoveto
          -42 callgsubr
          hintmask 01111000
          -36 -32 59 -72 hhcurveto
          -68 -50 -44 -96 -5 hvcurveto
          89 -7 rlineto
          38 4 15 14 19 hhcurveto
          hintmask 10011000
          36 32 -60 72 hhcurveto
          endchar
        </CharString>
        <CharString name="trademark">
          -79 callsubr
        </CharString>
        <CharString name="trademark.lat">
          -79 callsubr
        </CharString>
        <CharString name="two">
          -94 callsubr
        </CharString>
        <CharString name="two.heb">
          -94 callsubr
        </CharString>
        <CharString name="two.lat">
          -94 callsubr
        </CharString>
        <CharString name="two.pnumheb">
          -54 endchar
        </CharString>
        <CharString name="two.pnumlat">
          -57 30 callsubr
          425 -30 callgsubr
          317 131 vstem
          45 hmoveto
          426 115 -122 hlineto
          -30 -43 -3 -4 -33 hvcurveto
          107 116 98 115 109 vvcurveto
          121 -79 79 -124 -89 -60 -34 -66 -62 vhcurveto
          75 -74 rlineto
          35 32 39 31 47 hhcurveto
          60 30 -37 -63 -93 -108 -109 -164 -159 hvcurveto
          endchar
        </CharString>
        <CharString name="two.sups">
          -204 endchar
        </CharString>
        <CharString name="two.supsheb">
          -84 endchar
        </CharString>
        <CharString name="two.supslat">
          -114 endchar
        </CharString>
        <CharString name="u">
          -14 -12 117 -24 callsubr
          216 -12 -101 callsubr
        </CharString>
        <CharString name="uacute">
          -14 -12 117 535 -20 -24 callsubr
          298 -71 callgsubr
          -14 -652 -101 callsubr
        </CharString>
        <CharString name="ucircumflex">
          -14 -12 117 553 86 -24 callsubr
          165 -68 callgsubr
          -139 hlineto
          -109 -133 rlineto
          103 -623 -101 callsubr
        </CharString>
        <CharString name="udieresis">
          -14 -12 117 467 136 hstemhm
          63 136 -83 1 callgsubr
          -105 28 callgsubr
          hintmask 11011000
          184 10 callsubr
          -98 callgsubr
          214 hmoveto
          -98 callgsubr
          hintmask 11100100
          -182 -584 -101 callsubr
        </CharString>
        <CharString name="ugrave">
          -14 -12 117 535 -20 -24 callsubr
          285 -11 callsubr
          -93 -90 rlineto
          108 -741 -101 callsubr
        </CharString>
        <CharString name="umacron">
          -14 -12 117 488 88 -24 callsubr
          146 -13 callgsubr
          70 -693 -101 callsubr
        </CharString>
        <CharString name="underscore">
          -79 -138 78 hstem
          12 476 vstem
          12 -138 rmoveto
          476 78 -476 hlineto
          endchar
        </CharString>
        <CharString name="uni00A0">
          -372 endchar
        </CharString>
        <CharString name="uni00AD">
          -63 callsubr
        </CharString>
        <CharString name="uni018F">
          94 -12 112 168 100 185 112 hstem
          52 140 297 -39 callgsubr
          339 665 rmoveto
          -99 -74 -34 -46 -51 hvcurveto
          63 -94 rlineto
          33 36 47 29 62 hhcurveto
          101 55 -60 -125 10 hvcurveto
          -434 hlineto
          -1 -15 -2 -16 -14 vvcurveto
          -215 109 -120 174 175 116 119 221 220 -115 117 -172 vhcurveto
          -4 -565 rmoveto
          -82 -54 53 115 -7 hvcurveto
          295 hlineto
          -115 -14 -57 -53 -81 hhcurveto
          endchar
        </CharString>
        <CharString name="uni0250">
          -49 -12 109 304 94 -94 106 hstemhm
          61 137 151 131 hintmask 10111000
          276 -12 rmoveto
          73 68 28 37 58 hvcurveto
          -49 90 rlineto
          -27 -46 -40 -19 -44 hhcurveto
          -68 -27 34 45 -3 hvcurveto
          198 22 84 66 108 vvcurveto
          79 -51 56 -83 -65 -55 -30 -44 -40 vhcurveto
          -3 hlineto
          hintmask 11011000
          -10 62 rlineto
          -112 -281 hlineto
          hintmask 10111000
          -148 75 -78 140 vhcurveto
          -78 272 rmoveto
          84 vlineto
          37 31 31 20 35 hhcurveto
          31 23 -16 -34 -43 -37 -32 -114 -16 hvcurveto
          endchar
        </CharString>
        <CharString name="uni0254">
          -113 -55 callsubr
          hstem
          288 14 callgsubr
          186 -12 rmoveto
          135 107 95 164 167 -109 93 -127 -70 -55 -24 -30 -38 hvcurveto
          65 -88 rlineto
          21 25 22 10 35 hhcurveto
          65 47 -58 -91 -90 -50 -58 -67 -35 -32 17 21 -27 hvcurveto
          -54 -89 rlineto
          -42 48 60 -18 55 hhcurveto
          endchar
        </CharString>
        <CharString name="uni0259">
          -65 -12 105 106 91 112 105 hstem
          37 117 192 131 vstem
          248 -12 rmoveto
          123 106 99 161 161 -99 98 -130 -63 -65 -15 -35 -52 hvcurveto
          46 -89 rlineto
          22 35 36 12 40 hhcurveto
          66 43 -38 -74 10 hvcurveto
          -302 hlineto
          -2 -12 -3 -26 -25 vvcurveto
          -138 73 -101 138 vhcurveto
          -3 105 rmoveto
          -62 -29 41 65 hvcurveto
          192 hlineto
          -73 -10 -39 -33 -52 hhcurveto
          endchar
        </CharString>
        <CharString name="uni025B">
          -121 -12 -36 callgsubr
          hstemhm
          47 134 -111 134 hintmask 11110000
          266 -12 rmoveto
          62 52 12 39 59 hvcurveto
          -54 87 rlineto
          -23 -37 -37 -10 -32 hhcurveto
          -57 -41 23 38 38 27 16 57 hvcurveto
          81 91 hlineto
          hintmask 11101000
          -66 hlineto
          -51 -25 17 32 33 28 21 43 38 28 -10 -19 34 hvcurveto
          51 88 rlineto
          30 -49 -51 16 -58 hhcurveto
          -105 -93 -43 -97 -41 26 -45 55 -17 hvcurveto
          -4 vlineto
          hintmask 11110000
          -60 -16 -44 -36 -68 vvcurveto
          -98 106 -54 113 vhcurveto
          endchar
        </CharString>
        <CharString name="uni026B">
          -54 callgsubr
        </CharString>
        <CharString name="uni0283">
          -306 -200 108 700 107 hstem
          69 -39 callgsubr
          36 11 callsubr
          531 vlineto
          56 15 27 49 10 10 -3 -4 10 vhcurveto
          24 -32 callgsubr
          40 hhcurveto
          endchar
        </CharString>
        <CharString name="uni028E">
          -66 607 108 -10 -20 hstemhm
          12 489 hintmask 10100000
          12 hmoveto
          131 hlineto
          65 223 12 46 12 47 11 47 rlinecurve
          4 hlineto
          14 -48 12 -48 15 -44 75 -223 rcurveline
          138 hlineto
          -192 484 17 51 rlineto
          42 14 27 30 49 hhcurveto
          11 14 -4 -3 9 hvcurveto
          hintmask 01100000
          25 105 rlineto
          hintmask 10100000
          6 -20 -19 4 -30 hhcurveto
          -113 -53 -66 -120 -45 hvcurveto
          endchar
        </CharString>
        <CharString name="uni0292">
          -124 -200 111 213 93 170 -30 callgsubr
          297 -39 callgsubr
          210 -200 rmoveto
          120 104 82 146 106 -65 78 -113 5 hvcurveto
          155 205 rlineto
          73 -372 -108 209 vlineto
          -158 -209 46 -67 rlineto
          9 22 10 4 27 hhcurveto
          63 39 -37 -63 -71 -44 -42 -59 -54 -40 25 30 -33 hvcurveto
          -62 -85 rlineto
          -44 46 63 -37 96 hhcurveto
          endchar
        </CharString>
        <CharString name="uni0294">
          -136 604 111 hstemhm
          132 136 21 137 hintmask 11000000
          132 hmoveto
          136 266 hlineto
          hintmask 11100000
          92 70 66 65 111 vvcurveto
          135 -101 68 -120 -97 -67 -40 -49 -47 vhcurveto
          69 -87 rlineto
          36 32 42 29 54 hhcurveto
          60 38 -36 -62 hvcurveto
          hintmask 11000000
          -68 -43 -47 -114 -73 vhcurveto
          endchar
        </CharString>
        <CharString name="uni0295">
          -83 604 111 hstemhm
          40 137 21 136 hintmask 10100000
          198 hmoveto
          136 318 hlineto
          hintmask 11100000
          -114 73 -43 47 68 vvcurveto
          62 42 36 66 49 39 -29 -36 30 vhcurveto
          68 87 rlineto
          49 -44 -64 40 -92 hhcurveto
          -125 -106 -68 -135 hvcurveto
          hintmask 10100000
          -111 66 -65 92 -70 vhcurveto
          endchar
        </CharString>
        <CharString name="uni02A4">
          349 endchar
        </CharString>
        <CharString name="uni02A6">
          13 endchar
        </CharString>
        <CharString name="uni02A7">
          13 -200 108 80 108 291 108 113 107 hstem
          87 136 220 136 vstem
          409 11 callsubr
          531 vlineto
          56 16 27 48 11 9 -3 -4 10 vhcurveto
          25 -32 callgsubr
          39 hhcurveto
          -156 188 -94 callgsubr
          endchar
        </CharString>
        <CharString name="uni02B9">
          -287 endchar
        </CharString>
        <CharString name="uni02C8">
          -437 539 203 hstem
          19 104 vstem
          22 539 rmoveto
          98 hlineto
          6 203 rlineto
          -110 hlineto
          endchar
        </CharString>
        <CharString name="uni02D0">
          -287 87 312 hstem
          55 182 vstem
          237 399 rmoveto
          -182 hlineto
          63 -156 -63 -156 rlineto
          182 hlineto
          -63 156 rlineto
          endchar
        </CharString>
        <CharString name="uni0302">
          658 86 hstem
          -179 358 vstem
          -126 -68 callgsubr
          -140 hlineto
          -109 -133 rlineto
          endchar
        </CharString>
        <CharString name="uni0302.cap">
          773 63 hstem
          -166 332 vstem
          -107 -76 callgsubr
          endchar
        </CharString>
        <CharString name="uni0304">
          593 88 hstem
          -146 292 vstem
          -146 593 27 callgsubr
          endchar
        </CharString>
        <CharString name="uni0304.cap">
          724 88 hstem
          -149 298 vstem
          -149 724 rmoveto
          298 88 -298 hlineto
          endchar
        </CharString>
        <CharString name="uni0306">
          572 86 hstem
          89 78 vstem
          572 vmoveto
          -72 callsubr
          -7 hvcurveto
          -78 -13 rlineto
          -86 3 51 30 callgsubr
          endchar
        </CharString>
        <CharString name="uni0306.cap">
          699 80 hstem
          -161 322 vstem
          699 vmoveto
          98 53 49 86 10 hvcurveto
          -76 13 rlineto
          -42 -8 -30 -26 -47 hhcurveto
          -47 -30 26 42 -8 hvcurveto
          -76 -13 rlineto
          -86 10 53 -49 98 hhcurveto
          endchar
        </CharString>
        <CharString name="uni0307">
          572 146 hstem
          -77 154 vstem
          572 -3 callsubr
        </CharString>
        <CharString name="uni0307.cap">
          703 147 hstem
          -81 162 vstem
          703 vmoveto
          47 34 31 43 42 -34 31 -47 -47 -34 -31 -42 -43 34 -31 47 hvcurveto
          endchar
        </CharString>
        <CharString name="uni0308">
          572 136 hstem
          -175 1 callgsubr
          vstem
          -107 10 callsubr
          -98 callgsubr
          214 hmoveto
          -98 callgsubr
          endchar
        </CharString>
        <CharString name="uni0308.cap">
          703 133 hstem
          -176 22 callsubr
          vstem
          -110 703 rmoveto
          39 28 28 38 38 -28 29 -39 -39 -27 -29 -38 -38 27 -28 39 hvcurveto
          220 hmoveto
          -91 callsubr
          endchar
        </CharString>
        <CharString name="uni030A">
          563 52 102 52 hstem
          -128 82 92 82 vstem
          563 vmoveto
          84 44 45 58 57 -44 46 -84 34 callgsubr
          -25 -21 20 31 30 21 33 callsubr
          endchar
        </CharString>
        <CharString name="uni030A.cap">
          697 52 91 52 hstem
          -111 67 87 68 vstem
          697 vmoveto
          8 callgsubr
          52 vmoveto
          -24 -20 17 29 27 20 18 24 24 19 -18 -27 -29 -19 -17 -24 hvcurveto
          endchar
        </CharString>
        <CharString name="uni030B">
          566 212 hstem
          -124 354 vstem
          -52 566 rmoveto
          108 170 -93 15 callgsubr
          -87 -180 rlineto
          endchar
        </CharString>
        <CharString name="uni030B.cap">
          695 192 hstem
          -130 370 vstem
          -62 695 rmoveto
          119 143 -88 49 -99 -159 rlineto
          251 -33 rmoveto
          119 143 -87 49 -100 -159 rlineto
          endchar
        </CharString>
        <CharString name="uni030C">
          577 5 callgsubr
          -179 358 vstem
          -70 577 rmoveto
          140 hlineto
          109 132 -53 49 -124 -95 rlineto
          -4 hlineto
          -124 95 -53 -49 rlineto
          endchar
        </CharString>
        <CharString name="uni030C.cap">
          703 63 hstem
          -166 332 vstem
          -74 -74 callsubr
          endchar
        </CharString>
        <CharString name="uni031E">
          -256 172 -67 67 hstemhm
          -37 74 hintmask 10100000
          -37 -256 rmoveto
          74 hlineto
          hintmask 01100000
          105 69 vlineto
          hintmask 10100000
          67 -212 vlineto
          hintmask 01100000
          -67 69 vlineto
          endchar
        </CharString>
        <CharString name="uni0327">
          -237 56 119 66 hstem
          -7 100 vstem
          -100 -237 rmoveto
          122 32 callsubr
          28 -6 callgsubr
        </CharString>
        <CharString name="uni032E">
          -233 86 hstem
          89 78 vstem
          -233 vmoveto
          -72 callsubr
          -7 hvcurveto
          -78 -13 rlineto
          -86 3 51 30 callgsubr
          endchar
        </CharString>
        <CharString name="uni0331">
          24 callgsubr
          hstem
          -146 292 vstem
          -146 -186 27 callgsubr
          endchar
        </CharString>
        <CharString name="uni0361">
          638 88 hstem
          -457 914 vstem
          -421 538 rmoveto
          74 129 163 26 129 hhcurveto
          129 163 -26 -74 129 hvcurveto
          36 64 rlineto
          83 -137 -159 41 -161 hhcurveto
          -161 -159 -41 -83 -137 hvcurveto
          endchar
        </CharString>
        <CharString name="uni0394.math">
          53 endchar
        </CharString>
        <CharString name="uni03A9.math">
          127 endchar
        </CharString>
        <CharString name="uni03BC.math">
          10 endchar
        </CharString>
        <CharString name="uni05B0">
          -244 71 32 70 21 callgsubr
          -71 rmoveto
          -96 callsubr
          -102 vmoveto
          -29 callgsubr
          endchar
        </CharString>
        <CharString name="uni05B1">
          -244 71 32 70 hstemhm
          30 67 -16 67 -14 67 37 67 hintmask 11101100
          64 -71 rmoveto
          -96 callsubr
          104 hmoveto
          -96 callsubr
          104 hmoveto
          -96 callsubr
          hintmask 11010100
          -157 -102 rmoveto
          -29 callgsubr
          157 hmoveto
          -29 callgsubr
          endchar
        </CharString>
        <CharString name="uni05B2">
          -244 71 32 70 -53 39 hstemhm
          30 166 31 -33 callsubr
          166 -14 callsubr
        </CharString>
        <CharString name="uni05B3">
          -244 71 32 70 -53 39 hstemhm
          36 callgsubr
          95 -33 callsubr
          66 hlineto
          -5 -100 rlineto
          44 hlineto
          -6 100 rlineto
          67 -14 callsubr
        </CharString>
        <CharString name="uni05B4">
          -141 70 21 callgsubr
          -71 rmoveto
          -96 callsubr
          endchar
        </CharString>
        <CharString name="uni05B5">
          -141 70 hstem
          30 67 40 67 vstem
          64 -71 rmoveto
          -96 callsubr
          107 hmoveto
          -96 callsubr
          endchar
        </CharString>
        <CharString name="uni05B6">
          -234 70 23 70 hstemhm
          30 67 -14 67 -13 67 hintmask 01101000
          64 -71 rmoveto
          -96 callsubr
          107 hmoveto
          -96 callsubr
          hintmask 11010000
          -54 -93 rmoveto
          13 callsubr
          10 callgsubr
          20 13 17 19 18 -13 16 -20 hvcurveto
          endchar
        </CharString>
        <CharString name="uni05B7">
          -108 39 hstem
          30 166 vstem
          196 -69 rmoveto
          -166 -39 166 hlineto
          endchar
        </CharString>
        <CharString name="uni05B8">
          -108 39 hstem
          36 callgsubr
          vstem
          196 -69 rmoveto
          -166 -39 66 hlineto
          -5 -100 rlineto
          44 hlineto
          -6 100 rlineto
          67 hlineto
          endchar
        </CharString>
        <CharString name="uni05B9">
          516 5 callsubr
          587 -36 callsubr
        </CharString>
        <CharString name="uni05BA">
          516 5 callsubr
          516 -65 callgsubr
          endchar
        </CharString>
        <CharString name="uni05BB">
          -277 70 -2 70 -2 70 hstemhm
          30 67 3 67 3 67 hintmask 10110100
          64 -71 rmoveto
          -96 callsubr
          hintmask 01001000
          70 -68 rmoveto
          -96 callsubr
          hintmask 10110100
          70 -68 rmoveto
          -96 callsubr
          endchar
        </CharString>
        <CharString name="uni05BC">
          254 5 callsubr
          325 -102 callgsubr
        </CharString>
        <CharString name="uni05BE">
          -250 -16 callsubr
          45 239 vstem
          45 463 rmoveto
          239 108 -239 hlineto
          endchar
        </CharString>
        <CharString name="uni05BF">
          523 53 hstem
          32 189 vstem
          221 576 rmoveto
          -189 -53 189 hlineto
          endchar
        </CharString>
        <CharString name="uni05C1">
          -25 callsubr
        </CharString>
        <CharString name="uni05C2">
          -25 callsubr
        </CharString>
        <CharString name="uni05C7">
          -108 39 hstem
          30 102 vstem
          132 -69 rmoveto
          -102 -39 41 hlineto
          -12 -100 rlineto
          44 hlineto
          -13 100 rlineto
          42 hlineto
          endchar
        </CharString>
        <CharString name="uni05D0">
          38 0 571 hstem
          21 568 -95 callsubr
          endchar
        </CharString>
        <CharString name="uni05D1">
          -36 0 callgsubr
          302 -46 callsubr
          endchar
        </CharString>
        <CharString name="uni05D2">
          -155 -19 602 hstem
          208 145 vstem
          385 -21 callsubr
          -158 vlineto
          -33 -63 -66 -46 -87 -35 14 callsubr
          endchar
        </CharString>
        <CharString name="uni05D3">
          -33 -16 callsubr
          263 -31 callsubr
          endchar
        </CharString>
        <CharString name="uni05D4">
          -6 -16 callsubr
          48 145 189 -47 callgsubr
          endchar
        </CharString>
        <CharString name="uni05D5">
          -320 0 571 hstem
          61 -5 callsubr
          61 hmoveto
          -24 callgsubr
          endchar
        </CharString>
        <CharString name="uni05D6">
          -178 -16 callsubr
          112 -30 callsubr
          endchar
        </CharString>
        <CharString name="uni05D7">
          16 -16 callsubr
          54 144 201 145 vstem
          371 571 rmoveto
          -317 -65 hlineto
          -506 144 463 134 vlineto
          45 22 -27 -51 hvcurveto
          -385 145 378 vlineto
          135 -71 58 -102 vhcurveto
          endchar
        </CharString>
        <CharString name="uni05D8">
          12 469.5 111 hstem
          424 -61 callsubr
          endchar
        </CharString>
        <CharString name="uni05D9">
          -320 210 361 hstem
          61 -20 callsubr
          endchar
        </CharString>
        <CharString name="uni05DA">
          -67 -16 callsubr
          314 -26 callgsubr
          endchar
        </CharString>
        <CharString name="uni05DB">
          -94 0 callgsubr
          302 -50 callgsubr
          endchar
        </CharString>
        <CharString name="uni05DC">
          -81 -16 callsubr
          31 130 vstem
          -25 callgsubr
          endchar
        </CharString>
        <CharString name="uni05DD">
          13 0 callgsubr
          53 144 200 145 vstem
          369 571 rmoveto
          -172 hlineto
          -144 -571 30 hlineto
          314 hlineto
          -37 callsubr
          -172 -463 rmoveto
          355 133 vlineto
          42 25 -21 -52 hvcurveto
          -282 vlineto
          endchar
        </CharString>
        <CharString name="uni05DE">
          8 callsubr
          367.43 114 hstemhm
          464 137 hintmask 10110000
          601 26 callsubr
          -59 -43 -82 -28 26 callgsubr
          hintmask 01110000
          -15 callsubr
          hintmask 10110000
          -14 callgsubr
          endchar
        </CharString>
        <CharString name="uni05DF">
          -320 -200 771 hstem
          61 -5 callsubr
          61 -200 rmoveto
          144 654 hlineto
          -51 callsubr
          endchar
        </CharString>
        <CharString name="uni05E0">
          -198 0 -30 callgsubr
          185 -34 callgsubr
          endchar
        </CharString>
        <CharString name="uni05E1">
          26 -10 128 345 -30 callgsubr
          414 -66 callgsubr
          endchar
        </CharString>
        <CharString name="uni05E2">
          -2 -39 610 hstem
          392 143 vstem
          392 571 rmoveto
          -253 8 -128 -102 -53 vhcurveto
          -101 434 rlineto
          -144 hlineto
          115 -467 -159 -30 20 -113 214 42 rlineto
          287 60 5 186 322 vvcurveto
          endchar
        </CharString>
        <CharString name="uni05E3">
          -15 224 87 152 -30 callgsubr
          37 callgsubr
          194.24 -5 callsubr
          -57 callsubr
          endchar
        </CharString>
        <CharString name="uni05E4">
          -22 0 callgsubr
          45.21 128.22 204.56999 -67 callsubr
          endchar
        </CharString>
        <CharString name="uni05E5">
          -46 -200 771 hstem
          33 479 vstem
          512 571 rmoveto
          -27 callsubr
          -117 -279 -88 279 rlineto
          -27 callsubr
          241 -771 rlineto
          138 hlineto
          -99 314 rlineto
          endchar
        </CharString>
        <CharString name="uni05E6">
          -20 0 -30 callgsubr
          30 493 -41 callgsubr
          endchar
        </CharString>
        <CharString name="uni05E7">
          11 -1 108 356 -30 callgsubr
          43 145 206.5 -59 callgsubr
          endchar
        </CharString>
        <CharString name="uni05E8">
          -91 -16 callsubr
          290 -22 callgsubr
          endchar
        </CharString>
        <CharString name="uni05E9">
          28 callsubr
          hstem
          273 16 callsubr
          vstem
          639 404 rmoveto
          -1 167 rlineto
          -145 hlineto
          2 -175 1 -163 -64 -111 -200 -13 rlinecurve
          -14 115 149 51 41 95 2 137 rlinecurve
          63 -137 -66 vlineto
          -101 -11 -51 -56 -28 vhcurveto
          -29 247 rlineto
          -64 callsubr
          endchar
        </CharString>
        <CharString name="uni05EA">
          56 -16 callsubr
          107 145 186 -5 callsubr
          30 -49 callsubr
          endchar
        </CharString>
        <CharString name="uni1E06">
          24 24 callgsubr
          98 106 181 102 158 106 6 callsubr
          -48 291 -57 134 -101 134 hintmask 11111001
          -4 callsubr
          hintmask 11111010
          -45 callgsubr
          hintmask 11111001
          86 45 -25 -61 -64 -46 -31 -85 hvcurveto
          hintmask 11110100
          -136 -292 -73 callgsubr
          endchar
        </CharString>
        <CharString name="uni1E07">
          -9 24 callgsubr
          86 -35 callsubr
          hstemhm
          -8 callsubr
          -62 291 -43 140 hintmask 11111010
          -70 callgsubr
          hintmask 11110100
          -148 -286 -73 callgsubr
          endchar
        </CharString>
        <CharString name="uni1E0C">
          53 -40 callsubr
          77 111 431 111 6 callsubr
          19 154 55 141 hintmask 01110100
          -78 callsubr
          hintmask 11111100
          60 -335 rmoveto
          -104 callsubr
        </CharString>
        <CharString name="uni1E0D">
          -9 -40 callsubr
          65 -35 callsubr
          hstemhm
          41 140 40 154 -9 137 hintmask 11111010
          -92 callsubr
          hintmask 11111100
          20 -324 rmoveto
          -104 callsubr
        </CharString>
        <CharString name="uni1E0E">
          53 24 callgsubr
          98 111 431 111 6 callsubr
          -49 291 -14 141 hintmask 11110100
          -78 callsubr
          hintmask 11101000
          -85 -297 -73 callgsubr
          endchar
        </CharString>
        <CharString name="uni1E0F">
          -9 24 callgsubr
          86 -35 callsubr
          hstemhm
          41 140 -28 291 -78 137 hintmask 11111010
          -92 callsubr
          hintmask 11110100
          -125 -286 -73 callgsubr
          endchar
        </CharString>
        <CharString name="uni1E20">
          -28 callgsubr
          59 88 hstemhm
          24 callsubr
          29 297 -60 122 hintmask 00000000
          hintmask 11111100
          217 -12 callsubr
          hintmask 11111010
          146 -824 rmoveto
          -96 callgsubr
          -1 callgsubr
          hvcurveto
          endchar
        </CharString>
        <CharString name="uni1E21">
          -37 callgsubr
          86 88 -21 callgsubr
          -43 291 -92 119 -61 131 hintmask 0000000000000000
          hintmask 1110110001000000
          127 -13 callgsubr
          hintmask 1110111000010000
          116 -894 -83 callsubr
          hintmask 1110111000010000
          18 callgsubr
          hintmask 1110110100100000
          -61 callgsubr
          hintmask 1110111000010000
          -79 callgsubr
        </CharString>
        <CharString name="uni1E24">
          91 -40 callsubr
          355 120 255 -20 hstem
          7 callgsubr
          41 154 43 -39 callgsubr
          -52 callsubr
          255 -877 rmoveto
          -104 callsubr
        </CharString>
        <CharString name="uni1E25">
          -12 -40 callsubr
          467 117 196 -20 hstemhm
          -8 callsubr
          14 154 -3 137 hintmask 11110100
          -90 callsubr
          hintmask 11111000
          227 -927 rmoveto
          -104 callsubr
        </CharString>
        <CharString name="uni1E2A">
          91 -234 86 426 120 255 -20 6 callsubr
          207 78 -47 137 hintmask 11110100
          -52 callsubr
          255 -887 rmoveto
          114 50 71 86 3 hvcurveto
          hintmask 11111000
          -78 13 rlineto
          -45 -7 -27 -39 -55 hhcurveto
          -55 -27 39 45 22 callgsubr
          hintmask 11110100
          -86 4 50 -71 113 hhcurveto
          endchar
        </CharString>
        <CharString name="uni1E2B">
          -12 -234 86 538 117 196 -20 13 callgsubr
          165 -39 callgsubr
          -90 callsubr
          227 -937 rmoveto
          114 50 71 86 3 hvcurveto
          -78 13 rlineto
          -45 -7 -27 -39 -55 hhcurveto
          -55 -27 39 45 22 callgsubr
          -86 4 50 -71 113 hhcurveto
          endchar
        </CharString>
        <CharString name="uni1E32">
          30 -40 callsubr
          730 -20 hstem
          7 callgsubr
          39 154 vstem
          -75 callsubr
          253 -877 rmoveto
          -104 callsubr
        </CharString>
        <CharString name="uni1E33">
          -40 -40 callsubr
          780 -20 hstemhm
          68 133 13 154 hintmask 11100000
          -74 callgsubr
          hintmask 11110000
          223 -927 rmoveto
          -104 callsubr
        </CharString>
        <CharString name="uni1E34">
          30 24 callgsubr
          751 -20 6 callsubr
          -29 291 hintmask 11100000
          -75 callsubr
          hintmask 11010000
          108 -839 -73 callgsubr
          endchar
        </CharString>
        <CharString name="uni1E35">
          -40 24 callgsubr
          801 -20 hstem
          68 133 vstem
          -74 callgsubr
          78 -889 -73 callgsubr
          endchar
        </CharString>
        <CharString name="uni1E62">
          -27 -40 callsubr
          65 -49 callgsubr
          hstemhm
          63 139 0 154 22 140 hintmask 11110100
          276 -12 -102 callsubr
          hintmask 11101100
          3 -212 rmoveto
          -104 callsubr
        </CharString>
        <CharString name="uni1E63">
          -140 -40 callsubr
          65 102 315 102 hstemhm
          47 128 -25 154 -21 128 hintmask 11110100
          211 -12 -100 callgsubr
          hintmask 11101000
          16 -212 rmoveto
          -104 callsubr
        </CharString>
        <CharString name="uni1E6C">
          -26 -40 callsubr
          615 115 hstemhm
          200 154 -146 137 hintmask 01010000
          -32 callsubr
          hintmask 11100000
          69 -762 rmoveto
          -104 callsubr
        </CharString>
        <CharString name="uni1E6D">
          -203 -40 callsubr
          65 108 291 108 hstemhm
          87 136 -79 154 hintmask 01110000
          253 -12 -94 callgsubr
          hintmask 11101000
          -32 -212 rmoveto
          -104 callsubr
        </CharString>
        <CharString name="uni1E6E">
          -26 24 callgsubr
          636 115 hstem
          208 -39 callgsubr
          -32 callsubr
          -76 -724 -73 callgsubr
          endchar
        </CharString>
        <CharString name="uni1E6F">
          -203 24 callgsubr
          86 108 291 108 hstemhm
          76 291 -280 136 hintmask 11101000
          253 -12 -94 callgsubr
          hintmask 11110000
          -177 -174 -73 callgsubr
          endchar
        </CharString>
        <CharString name="uni1E7E">
          -29 -40 callsubr
          77 130 523 -20 hstem
          196 154 -40 callgsubr
          279 -877 rmoveto
          -104 callsubr
        </CharString>
        <CharString name="uni1E7F">
          -65 -40 callsubr
          77 103 hstem
          182 154 -41 callsubr
          247 -719 rmoveto
          -104 callsubr
        </CharString>
        <CharString name="uni1E92">
          -38 -40 callsubr
          77 115 423 115 hstem
          205 154 vstem
          37 hmoveto
          -69 callgsubr
          245 -307 rmoveto
          -104 callsubr
        </CharString>
        <CharString name="uni1E93">
          -124 -40 callsubr
          77 20 callgsubr
          hstem
          164 154 vstem
          37 hmoveto
          -69 callsubr
          204 -297 rmoveto
          -104 callsubr
        </CharString>
        <CharString name="uni1E94">
          -38 24 callgsubr
          98 115 423 115 hstemhm
          37 469 -369 291 hintmask 11110000
          37 hmoveto
          -69 callgsubr
          hintmask 11101000
          100 -269 -73 callgsubr
          endchar
        </CharString>
        <CharString name="uni1E95">
          -124 24 callgsubr
          98 20 callgsubr
          hstemhm
          37 393 -334 291 hintmask 11110000
          37 hmoveto
          -69 callsubr
          hintmask 11101000
          59 -259 -73 callgsubr
          endchar
        </CharString>
        <CharString name="uni1E96">
          -12 24 callgsubr
          488 117 196 -20 13 callgsubr
          165 -39 callgsubr
          -90 callsubr
          82 -889 -73 callgsubr
          endchar
        </CharString>
        <CharString name="uni1EA0">
          -11 -40 callsubr
          240 106 279 105 hstem
          204 154 vstem
          573 hmoveto
          -207 653 rlineto
          -163 hlineto
          -208 -653 rlineto
          140 hlineto
          44 163 rlineto
          205 hlineto
          44 -163 rlineto
          -220 269 rmoveto
          18 67 19 67 18 75 16 70 rlinecurve
          4 hlineto
          18 -69 18 -76 19 -67 18 -67 rcurveline
          -75 -346 -2 callgsubr
        </CharString>
        <CharString name="uni1EA1">
          -55 -40 callsubr
          65 106 304 109 29 callsubr
          4 154 -7 137 hintmask 11110100
          191 -12 -107 callgsubr
          hintmask 11101000
          20 -318 rmoveto
          -104 callsubr
        </CharString>
        <CharString name="uni1EB8">
          -34 -40 callsubr
          77 -71 callsubr
          6 callsubr
          -3 154 hintmask 01111000
          79 hmoveto
          -93 callgsubr
          hintmask 11110100
          211 -877 rmoveto
          -104 callsubr
        </CharString>
        <CharString name="uni1EB9">
          -65 -40 callsubr
          65 -36 callgsubr
          hstemhm
          188 154 19 117 hintmask 11110100
          478 270 -107 callsubr
          hintmask 11111100
          -96 -376 -2 callgsubr
        </CharString>
        <CharString name="uni1ECC">
          102 -40 callsubr
          65 4 callgsubr
          76 154 76 14 callgsubr
          341 -12 rmoveto
          -106 callgsubr
          -331 vmoveto
          -104 callsubr
        </CharString>
        <CharString name="uni1ECD">
          -26 -40 callsubr
          65 111 297 111 hstemhm
          31 callsubr
          22 154 22 140 hintmask 11110100
          277 -12 rmoveto
          -105 callgsubr
          hintmask 11111100
          -323 vmoveto
          -104 callsubr
        </CharString>
        <CharString name="uni200E">
          29 callgsubr
          -114 258 11 callgsubr
          -191 -36 191 hlineto
          -63 -66 rlineto
          endchar
        </CharString>
        <CharString name="uni200F">
          29 callgsubr
          -144 260 35 callsubr
          192 36 -193 hlineto
          63 64 -25 26 -105 -109 rlineto
          endchar
        </CharString>
        <CharString name="uni2010">
          -63 callsubr
        </CharString>
        <CharString name="uni2010.lat">
          -63 callsubr
        </CharString>
        <CharString name="uni202D">
          29 callgsubr
          -156 327 vstem
          -31 767 rmoveto
          104 108 -104 109 -26 -27 61 -63 rlineto
          -160 -36 162 hlineto
          -63 -66 rlineto
          123 -25 rmoveto
          105 108 -105 109 -25 -27 82 -82 -82 -83 rlineto
          endchar
        </CharString>
        <CharString name="uni202E">
          895 34 hstem
          -171 328 vstem
          -66 805 rmoveto
          25 26 -80 83 80 81 -25 26 -105 -107 rlineto
          202 -109 rmoveto
          28 26 -63 64 rlineto
          161 34 -161 hlineto
          63 66 -28 26 -102 -107 rlineto
          endchar
        </CharString>
        <CharString name="uni210A">
          0 -198 107 -31 -21 155 110 273 100 -100 112 hstemhm
          45 139 187 28 callgsubr
          hintmask 10110110
          261 -198 rmoveto
          157 89 71 127 hvcurveto
          495 -110 vlineto
          hintmask 10101110
          -10 -46 rlineto
          -4 hlineto
          40 -38 -40 18 -50 hhcurveto
          -106 -104 -99 -152 -145 80 -99 123 48 44 21 31 34 hvcurveto
          -3 -67 rlineto
          -52 -5 -30 -36 -75 hhcurveto
          -41 -50 11 27 -47 hvcurveto
          hintmask 01101110
          -46 -90 rlineto
          hintmask 10110110
          -37 57 72 -18 55 hhcurveto
          hintmask 01101110
          22 320 rmoveto
          -62 -37 50 86 86 45 51 54 29 30 -9 -26 29 hvcurveto
          -188 vlineto
          -36 -29 -26 -14 -33 hhcurveto
          endchar
        </CharString>
        <CharString name="uni2215">
          -80 callgsubr
        </CharString>
        <CharString name="uni2215.lat">
          -80 callgsubr
        </CharString>
        <CharString name="uni2219">
          -54 241 175 hstem
          177 168 vstem
          261 241 rmoveto
          48 36 38 49 50 -36 38 -48 -48 -36 -38 -50 -49 36 -38 48 hvcurveto
          endchar
        </CharString>
        <CharString name="uniFB2A">
          28 callsubr
          511 71 hstemhm
          272 16 callsubr
          -103.5 67 12 callsubr
          568 620 -65 callgsubr
          hintmask 11110000
          70 -216 -103 callsubr
          endchar
        </CharString>
        <CharString name="uniFB2B">
          28 callsubr
          511 71 hstem
          64 67 141 16 callsubr
          vstem
          98 620 -65 callgsubr
          540 -216 -103 callsubr
          endchar
        </CharString>
        <CharString name="uniFB2C">
          28 callsubr
          107 71 333 71 hstemhm
          272 4 callsubr
          -103.5 67 hintmask 00000000
          hintmask 11110010
          568 620 -65 callgsubr
          hintmask 11110100
          70 -216 -103 callsubr
          hintmask 11101100
          -48 callgsubr
        </CharString>
        <CharString name="uniFB2D">
          28 callsubr
          107 71 333 71 hstemhm
          64 67 141 4 callsubr
          hintmask 11111010
          98 620 -65 callgsubr
          540 -216 -103 callsubr
          hintmask 11110110
          -48 callgsubr
        </CharString>
        <CharString name="uniFB2E">
          38 -94 39 hstem
          233 166 -95 callsubr
          -36 -55 rmoveto
          -166 -39 166 hlineto
          endchar
        </CharString>
        <CharString name="uniFB2F">
          38 -94 39 hstem
          296.5 38.5 -95 callsubr
          -36 -55 rmoveto
          -166 -39 66 hlineto
          -5 -100 rlineto
          44 hlineto
          -6 100 rlineto
          67 hlineto
          endchar
        </CharString>
        <CharString name="uniFB30">
          38 56 71 hstem
          248 67 -95 callsubr
          -153 127 -102 callgsubr
        </CharString>
        <CharString name="uniFB31">
          -36 33 callgsubr
          132 67 103 -46 callsubr
          -314 189 rmoveto
          18 -13 17 -20 17 callgsubr
          20 13 17 19 vhcurveto
          endchar
        </CharString>
        <CharString name="uniFB32">
          -155 261 71 hstem
          73 67 67 145 vstem
          384 -21 callsubr
          -159 vlineto
          -33 -63 -66 -44 -87 -36 14 callsubr
          -140 261 rmoveto
          21 12 17 19 -9 callsubr
          hvcurveto
          endchar
        </CharString>
        <CharString name="uniFB33">
          -33 -27 callgsubr
          hstem
          109 67 87 -31 callsubr
          -120 -14 -102 callgsubr
        </CharString>
        <CharString name="uniFB34">
          -6 -27 callgsubr
          hstem
          48 145 59 67 63 -47 callgsubr
          238 59 -102 callgsubr
        </CharString>
        <CharString name="uniFB35">
          -320 261 71 hstem
          -42 67 36 -5 callsubr
          61 hmoveto
          -24 callgsubr
          -69 -122 -2 callsubr
        </CharString>
        <CharString name="uniFB36">
          -178 -27 callgsubr
          hstem
          7 67 38 -30 callsubr
          -71 -14 -102 callgsubr
        </CharString>
        <CharString name="uniFB38">
          12 276 71 122.5 111 hstem
          278 67 79 -61 callsubr
          272 -224 -102 callgsubr
        </CharString>
        <CharString name="uniFB39">
          -320 357 71 hstem
          -41 67 35 -20 callsubr
          -68 -26 -2 callsubr
        </CharString>
        <CharString name="uniFB3A">
          -67 -27 callgsubr
          hstem
          127 67 120 -26 callgsubr
          -153 -58 -102 callgsubr
        </CharString>
        <CharString name="uniFB3B">
          -94 33 callgsubr
          124 67 111 -50 callgsubr
          129 224 -102 callgsubr
        </CharString>
        <CharString name="uniFB3C">
          -81 -27 callgsubr
          hstemhm
          31 130 -72 67 hintmask 01100000
          -25 callgsubr
          hintmask 11010000
          -310 -274 -35 callgsubr
        </CharString>
        <CharString name="uniFB3E">
          8 callsubr
          161.43 71 135 114 hstemhm
          311 67 85 137 hintmask 10110100
          600 26 callsubr
          -58 -43 -82 -29 26 callgsubr
          hintmask 01110100
          -15 callsubr
          hintmask 10110100
          -14 callgsubr
          hintmask 10111100
          -222 7 -35 callgsubr
        </CharString>
        <CharString name="uniFB40">
          -198 0 108 153 71 hstem
          57 67 61 -34 callgsubr
          52 224 -102 callgsubr
        </CharString>
        <CharString name="uniFB41">
          26 -10 128 151 71 123 -30 callgsubr
          274 67 73 -66 callgsubr
          73 222 -102 callgsubr
        </CharString>
        <CharString name="uniFB43">
          -15 224 87 -50 71 131 108 hstemhm
          37 callgsubr
          81.24 67 46 144 hintmask 10110100
          -57 callsubr
          hintmask 01111100
          -14 -239 -102 callgsubr
        </CharString>
        <CharString name="uniFB44">
          -22 0 108 145 71 139 -30 callgsubr
          45.21 128.22 87.56999 67 50 -67 callsubr
          242 216 -102 callgsubr
        </CharString>
        <CharString name="uniFB46">
          -20 0 108 71 71 hstem
          98 67 -41 callgsubr
          -211 -19 -35 callgsubr
        </CharString>
        <CharString name="uniFB47">
          11 -1 108 169 71 116 -30 callgsubr
          43 145 65 67 74.5 -59 callgsubr
          244 68 -102 callgsubr
        </CharString>
        <CharString name="uniFB48">
          -91 -27 callgsubr
          hstem
          118 67 105 -22 callgsubr
          -138 -58 -102 callgsubr
        </CharString>
        <CharString name="uniFB49">
          28 callsubr
          107 71 hstemhm
          272 4 callsubr
          hintmask 11101000
          638 404 -103 callsubr
          hintmask 11011000
          -48 callgsubr
        </CharString>
        <CharString name="uniFB4A">
          56 -27 callgsubr
          hstem
          106 145 58 67 61 -5 callsubr
          29 -49 callsubr
          326 251 -102 callgsubr
        </CharString>
        <CharString name="uniFB4B">
          -320 637 71 hstemhm
          61 144 -129 67 hintmask 00000000
          hintmask 10100000
          110 708 rmoveto
          -21 -13 -17 -18 -19 13 -17 21 20 13 17 19 18 -13 17 -20 hvcurveto
          hintmask 11000000
          -49 -708 rmoveto
          -24 callgsubr
          endchar
        </CharString>
        <CharString name="upsilonlatin">
          -24 1 callsubr
          288 108 hstemhm
          31 209 -199 137 137 210 -148 137 hintmask 11010100
          278 -12 rmoveto
          150 86 107 108 hvcurveto
          hintmask 11011000
          82 -37 63 -37 36 vhcurveto
          3 85 108 -210 -89 vlineto
          hintmask 11010100
          40 -46 22 -48 -80 vvcurveto
          -74 -32 -59 -67 -68 -32 59 74 vhcurveto
          hintmask 11100100
          80 22 48 40 46 vhcurveto
          89 -209 -108 84 -3 vlineto
          hintmask 11010100
          -37 -36 -37 -63 -82 vvcurveto
          -108 86 -107 151 vhcurveto
          endchar
        </CharString>
        <CharString name="v">
          -65 0 103 hstem
          12 490 -41 callsubr
          endchar
        </CharString>
        <CharString name="w">
          188 0 111 242 142 hstem
          24 719 vstem
          150 hmoveto
          157 hlineto
          47 208 10 46 8 46 9 53 rlinecurve
          4 hlineto
          9 -53 9 -45 9 -46 50 -209 rcurveline
          160 hlineto
          121 495 rlineto
          -127 hlineto
          -51 -238 -9 -49 -6 -47 -9 -50 -7 callgsubr
          -10 50 -9 47 -12 49 -59 238 rcurveline
          -120 hlineto
          -58 -238 -12 -47 -9 -49 -9 -50 -7 callgsubr
          -8 50 -6 47 -9 49 -52 238 rcurveline
          -136 hlineto
          endchar
        </CharString>
        <CharString name="x">
          -76 0 495 hstem
          14 475 vstem
          14 hmoveto
          142 hlineto
          43 87 13 29 13 30 14 28 rlinecurve
          4 hlineto
          16 -28 15 -30 16 -29 53 -87 rcurveline
          146 hlineto
          -153 242 144 253 rlineto
          -142 hlineto
          -38 -85 -11 -27 -13 -29 -11 -28 -7 callgsubr
          -15 28 -15 29 -13 27 -48 85 rcurveline
          -146 hlineto
          144 -237 rlineto
          endchar
        </CharString>
        <CharString name="y">
          -66 -197 -30 callgsubr
          12 489 vstem
          116 -197 -91 callgsubr
        </CharString>
        <CharString name="yacute">
          -66 -197 108 729 -20 hstem
          12 489 vstem
          273 -71 callgsubr
          -89 -837 -91 callgsubr
        </CharString>
        <CharString name="ydieresis">
          -66 -197 108 661 136 hstem
          91 1 callgsubr
          vstem
          159 10 callsubr
          -98 callgsubr
          214 hmoveto
          -98 callgsubr
          -257 -769 -91 callgsubr
        </CharString>
        <CharString name="yen">
          -77 callsubr
        </CharString>
        <CharString name="yen.heb">
          -39 endchar
        </CharString>
        <CharString name="yen.lat">
          -77 callsubr
        </CharString>
        <CharString name="z">
          -124 0 20 callgsubr
          hstem
          37 393 vstem
          37 hmoveto
          -69 callsubr
          endchar
        </CharString>
        <CharString name="zcaron">
          -124 0 20 callgsubr
          82 5 callgsubr
          37 393 vstem
          180 -67 callgsubr
          -34 -709 rmoveto
          -69 callsubr
          endchar
        </CharString>
        <CharString name="zero">
          -92 callgsubr
        </CharString>
        <CharString name="zero.heb">
          -92 callgsubr
        </CharString>
        <CharString name="zero.lat">
          -92 callgsubr
        </CharString>
        <CharString name="zero.pnumheb">
          -48 endchar
        </CharString>
        <CharString name="zero.pnumlat">
          -78 endchar
        </CharString>
        <CharString name="zero.slash">
          -79 endchar
        </CharString>
        <CharString name="zero.slashpnum">
          -79 endchar
        </CharString>
      <CharString index="0">
        rmoveto
        56 48 27 37 43 hvcurveto
        3 hlineto
        10 -52 rlineto
        112 286 hlineto
        147 -67 74 -126 -78 -70 -28 -37 -60 vhcurveto
        49 -90 rlineto
        27 46 43 19 44 hhcurveto
        58 22 -34 -46 2 hvcurveto
        -198 -21 -84 -56 -105 vvcurveto
        -84 58 -64 89 vhcurveto
        45 106 rmoveto
        -37 -24 17 36 41 37 32 114 15 hvcurveto
        -95 vlineto
        -28 -29 -25 -18 -36 hhcurveto
        return
      </CharString>
      <CharString index="1">
        174 119 129 212 212 -119 124 -174 -174 -120 -123 -213 -212 120 -129 174 hvcurveto
        119 vmoveto
        -94 -59 86 136 136 59 81 94 93 60 -81 -136 -136 -60 -86 -93 hvcurveto
        return
      </CharString>
      <CharString index="2">
        124 115 95 164 165 -115 95 -124 -125 -114 -16 callgsubr
        114 -95 125 hvcurveto
        111 vmoveto
        -65 -34 58 90 90 34 59 65 64 35 -59 -90 -90 -35 -58 -64 hvcurveto
        return
      </CharString>
      <CharString index="3">
        -56 1 callsubr
        178 98 165 108 hstemhm
        316 137 -116 137 hintmask 11101000
        242 -12 rmoveto
        126 106 67 118 83 -54 52 -74 21 hvcurveto
        4 vlineto
        hintmask 11110000
        68 28 39 47 67 vvcurveto
        111 -86 62 -128 -77 -63 -32 -49 -57 vhcurveto
        69 -84 rlineto
        36 39 36 21 47 hhcurveto
        52 31 -27 -48 -53 -37 -37 -118 hvcurveto
        -98 vlineto
        hintmask 11101000
        140 36 -37 -59 -52 -43 -30 -65 -57 -47 28 38 -39 hvcurveto
        -63 -87 rlineto
        -52 46 70 -38 103 hhcurveto
        endchar
      </CharString>
      <CharString index="4">
        -56 -12 96 468 96 hstemhm
        42 118 -94 121 158 112 -102 128 hintmask 11100100
        261 -12 rmoveto
        133 89 76 99 85 -50 48 -60 33 hvcurveto
        4 vlineto
        hintmask 11011000
        43 29 41 51 61 vvcurveto
        105 -76 69 -115 -116 -84 -67 -107 -66 37 -47 49 -36 vhcurveto
        -4 vlineto
        hintmask 11100100
        -60 -32 -50 -49 -77 vvcurveto
        -103 93 -72 126 vhcurveto
        hintmask 11011000
        41 378 rmoveto
        -67 27 -48 26 55 vvcurveto
        51 33 27 43 52 30 -35 -52 -35 -15 -33 -28 -31 vhcurveto
        hintmask 11100100
        -38 -282 rmoveto
        -57 -47 36 58 42 23 38 32 27 hvcurveto
        82 -34 58 -23 -60 vvcurveto
        -55 -38 -29 -53 vhcurveto
        endchar
      </CharString>
      <CharString index="5">
        rmoveto
        16 callgsubr
        21 12 17 19 18 -12 17 -21 hvcurveto
        endchar
      </CharString>
      <CharString index="6">
        48 36 38 50 50 -36 38 -48 -48 -36 -38 -50 -50 36 -38 48 hvcurveto
        return
      </CharString>
      <CharString index="7">
        rmoveto
        130 70 70 88 91 -72 34 -64 24 hvcurveto
        -52 19 -48 13 34 vvcurveto
        26 20 18 42 36 35 -17 -25 35 vhcurveto
        61 82 rlineto
        32 -41 -56 30 -74 hhcurveto
        -113 -73 -63 -90 -82 72 -39 62 -24 hvcurveto
        51 -20 51 -16 -35 vvcurveto
        -29 -21 -19 -47 -45 -41 19 34 -45 vhcurveto
        -62 -86 rlineto
        -40 50 73 -29 66 hhcurveto
        return
      </CharString>
      <CharString index="8">
        -56 1 callsubr
        141 97 208 103 hstem
        35 125 194 126 vstem
        243 648 rmoveto
        -113 -95 -81 -131 -134 79 -62 109 41 55 25 44 35 hvcurveto
        -157 -5 -59 -53 -73 hhcurveto
        -38 -40 21 25 -22 hvcurveto
        -72 -82 rlineto
        -40 39 60 -35 81 hhcurveto
        133 122 106 240 220 -114 94 -123 hvcurveto
        6 -311 rmoveto
        -53 -36 29 70 74 39 35 46 50 43 -38 -104 13 hvcurveto
        -48 -31 -38 -18 -33 hhcurveto
        endchar
      </CharString>
      <CharString index="9">
        40 28 30 38 38 -28 30 -40 -40 -28 -30 -38 -38 28 -30 40 hvcurveto
        return
      </CharString>
      <CharString index="10">
        -56 1 callsubr
        212 96 114 115 hstem
        83 121.5 133.5 -39 callgsubr
        245 -12 rmoveto
        122 108 81 140 136 -92 62 -109 -29 -21 -6 -11 -25 hvcurveto
        11 131 rlineto
        236 115 -354 hlineto
        -18 -319 62 -40 rlineto
        25 38 21 9 38 hhcurveto
        62 43 -38 -67 -69 -45 -38 -67 -57 -46 29 36 -38 hvcurveto
        -62 -87 rlineto
        -49 49 70 -40 103 hhcurveto
        endchar
      </CharString>
      <CharString index="11">
        90 78 35 44 45 hvcurveto
        296 -235 -112 113 -122 vlineto
        -14 -18 -30 -8 -29 hhcurveto
        -126 -63 82 139 136 73 82 106 57 36 -23 -30 33 hvcurveto
        72 88 rlineto
        43 -43 -66 41 -94 hhcurveto
        -174 -141 -126 -216 return
      </CharString>
      <CharString index="12">
        79 -12 105 481 91 hstemhm
        26 130 -50 113 111 105 hintmask 11101000
        640 99 rmoveto
        -34 6 -39 16 -42 22 51 68 35 75 25 80 rrcurveto
        -125 hlineto
        -17 -63 -27 -54 -34 -45 -51 38 -48 45 -38 46 rrcurveto
        69 47 70 54 86 vvcurveto
        87 -60 58 -95 vhcurveto
        hintmask 11011000
        -106 -68 -77 -91 -43 15 -48 26 -48 hvcurveto
        hintmask 11101000
        -65 -41 -56 -53 -90 vvcurveto
        -101 76 -85 139 81 66 26 41 54 vhcurveto
        56 -33 57 -23 52 -11 rrcurveto
        hintmask 11011000
        -388 509 rmoveto
        47 27 30 36 33 15 -22 -32 -46 -39 -31 -49 -29 vhcurveto
        -14 29 -9 28 26 vvcurveto
        hintmask 11101000
        -63 -315 rmoveto
        33 20 27 29 26 vhcurveto
        40 -52 50 -50 53 -44 rrcurveto
        -18 -30 -30 -11 -30 hhcurveto
        -60 -42 36 53 hvcurveto
        endchar
      </CharString>
      <CharString index="13">
        rmoveto
        45 35 9 9 27 hvcurveto
        -22 100 rlineto
        -5 -14 -18 -5 -17 hhcurveto
        -41 -25 24 57 hvcurveto
        210 121 108 -121 132 -113 vlineto
        -16 -132 -76 -6 rlineto
        -102 69 -211 vlineto
        -112 46 -76 120 vhcurveto
        return
      </CharString>
      <CharString index="14">
        414 115 -277 165 227 115 -227 143 267 115 -404 hlineto
        return
      </CharString>
      <CharString index="15">
        -56 -12 106 448 106 hstem
        38 130 188 129 vstem
        262 -12 rmoveto
        135 88 117 216 215 -88 112 -135 -135 -89 -112 -215 -216 89 -117 135 hvcurveto
        106 vmoveto
        -54 -40 51 176 175 40 46 54 53 41 -46 -175 -176 -41 -51 -53 hvcurveto
        endchar
      </CharString>
      <CharString index="16">
        rmoveto
        113 53 66 120 45 hvcurveto
        174 506 rlineto
        -131 hlineto
        -65 -223 -12 -46 -12 -47 -11 -47 -7 callgsubr
        -14 48 -12 48 -15 44 -75 223 rcurveline
        -138 hlineto
        192 -484 -8 -28 rlineto
        -42 -14 -27 -30 -49 hhcurveto
        -11 -14 4 3 -9 hvcurveto
        -25 -105 rlineto
        -6 20 19 -4 30 hhcurveto
        endchar
      </CharString>
      <CharString index="17">
        -56 156 104 256 120 hstem
        296 127 vstem
        499 260 rmoveto
        -76 376 -165 hlineto
        -239 -386 rlineto
        -94 277 -156 127 156 76 vlineto
        -348 104 rmoveto
        94 152 18 35 18 34 16 35 rlinecurve
        4 hlineto
        -2 -39 -3 -61 -39 vvcurveto
        -117 vlineto
        endchar
      </CharString>
      <CharString index="18">
        -56 -110 209 438 209 -103 -20 22 -20 hstemhm
        66 131 19 92 24 131 hintmask 00000000
        hintmask 11001110
        463 183 rmoveto
        195 -266 -14 104 vvcurveto
        47 28 22 50 44 31 -18 -33 36 vhcurveto
        hintmask 10010110
        69 78 rlineto
        hintmask 10010100
        -38 41 -46 31 -63 9 rrcurveto
        hintmask 11000100
        101 -92 vlineto
        hintmask 10100100
        -103 vlineto
        hintmask 10101110
        -93 -18 -57 -67 -97 -183 266 8 -113 vvcurveto
        -48 -27 -26 -59 -50 -45 21 39 -50 vhcurveto
        -60 -93 rlineto
        hintmask 10010100
        47 -43 69 -26 59 -7 rrcurveto
        -100 92 104 vlineto
        hintmask 11001110
        101 20 54 73 96 vvcurveto
        endchar
      </CharString>
      <CharString index="19">
        -56 -97 108 302 100 143 109 0 -20 hstemhm
        28 461 hintmask 01101000
        415 556 rmoveto
        20 16 -7 -5 12 hvcurveto
        hintmask 01011000
        26 103 rlineto
        hintmask 11101000
        9 -20 -39 9 -26 hhcurveto
        -127 -54 -62 -145 -16 hvcurveto
        -6 -45 rlineto
        -14 hlineto
        -73 -5 rlineto
        -95 76 vlineto
        -17 -158 -13 -111 -18 -31 -50 -2 rlinecurve
        -15 1 -15 2 -15 6 -19 -101 rcurveline
        15 -9 32 -6 37 -1 rrcurveto
        132 39 94 120 14 hvcurveto
        23 196 rlineto
        119 100 -107 hlineto
        7 56 rlineto
        hintmask 01101000
        51 6 22 36 48 hhcurveto
        endchar
      </CharString>
      <CharString index="20">
        -123 313 47 118 39 55 42 54 47 hstem
        31 52 65 55 54 59 56 52 vstem
        228 313 rmoveto
        108 88 83 118 117 -88 84 -108 -109 -88 -84 -117 -118 88 -83 109 hvcurveto
        47 vmoveto
        -84 -61 61 93 93 61 61 84 84 60 -61 -93 -93 -60 -61 -84 hvcurveto
        -80 57 rmoveto
        55 61 31 hlineto
        31 -61 rlineto
        58 hlineto
        -43 77 rlineto
        24 11 12 21 23 vvcurveto
        45 -35 20 -46 vhcurveto
        -87 hlineto
        55 -97 rmoveto
        55 22 vlineto
        22 10 -11 -16 -16 -11 -12 -22 hvcurveto
        endchar
      </CharString>
      <CharString index="21">
        -37 -58 -30 vhcurveto
        31 -60 rlineto
        91 46 45 70 92 vvcurveto
        79 -31 45 -58 vhcurveto
        return
      </CharString>
      <CharString index="22">
        -241 -152 73 317 81 316 73 hstemhm
        32 119 -43 115 hintmask 11101000
        234 -152 rmoveto
        60 73 -20 hlineto
        -44 -12 16 57 hvcurveto
        55 5 50 62 vvcurveto
        73 -23 30 -49 12 vhcurveto
        4 vlineto
        49 12 23 30 74 62 -5 49 55 vvcurveto
        57 12 16 44 vhcurveto
        20 73 -60 hlineto
        -87 -39 -33 -108 hvcurveto
        -71 10 -39 -64 vvcurveto
        hintmask 11110000
        -36 -21 -37 -65 -1 vhcurveto
        -81 vlineto
        hintmask 11101000
        65 -2 21 -37 -36 -64 -10 -39 -71 vvcurveto
        -108 39 -33 87 vhcurveto
        endchar
      </CharString>
      <CharString index="23">
        -56 138 -21 387 -20 171 -20 hstem
        61 132 80 76 vstem
        482 117 rmoveto
        -55 86 -22 -17 -26 -16 -30 -4 rlinecurve
        284 vlineto
        22 -3 20 -10 21 -17 63 84 rcurveline
        -30 30 -43 22 -53 4 rrcurveto
        95 -76 -99 vlineto
        -122 -20 -90 -88 -140 vvcurveto
        -145 84 -90 128 -16 vhcurveto
        -97 76 96 vlineto
        46 6 48 20 39 35 rrcurveto
        -289 191 rmoveto
        64 27 47 53 21 vhcurveto
        -265 vlineto
        -52 20 -28 47 66 vvcurveto
        endchar
      </CharString>
      <CharString index="24">
        -83 hlineto
        -56 -20 14 25 19 7 10 13 11 hvcurveto
        -7 22 21 -3 19 hhcurveto
        107 86 54 113 28 -9 27 -12 16 hvcurveto
        83 100 -179 hlineto
        return
      </CharString>
      <CharString index="25">
        -78 87 100.5 257 100.5 167 -20 hstem
        200 102 vstem
        196 -80 rmoveto
        110 hlineto
        -8 171 158 -8 rlineto
        110 vlineto
        -158 -11 8 134 -8 134 158 -11 -72 callgsubr
        11 -8 -134 8 -134 -158 11 37 callsubr
      </CharString>
      <CharString index="26">
        -222 371 74 88 56 49 77 hstem
        31 93 95 97 vstem
        131 371 rmoveto
        38 32 18 24 25 hvcurveto
        4 hlineto
        9 -34 rlineto
        77 190 hlineto
        97 -47 49 -84 -52 -49 -19 -25 -42 vhcurveto
        34 -64 rlineto
        18 32 32 13 28 hhcurveto
        35 14 -18 -31 2 hvcurveto
        -132 -12 -56 -37 -70 vvcurveto
        -55 38 -44 62 vhcurveto
        32 74 rmoveto
        -25 -14 11 22 25 23 22 72 8 hvcurveto
        -60 vlineto
        -18 -18 -17 -10 -21 hhcurveto
        endchar
      </CharString>
      <CharString index="27">
        -484 665 -20 hstem
        -170 434 vstem
        -170 -12 rmoveto
        80 hlineto
        354 677 rlineto
        -80 hlineto
        endchar
      </CharString>
      <CharString index="28">
        12 -367 rmoveto
        -70 -45 22 40 19 10 18 21 17 hvcurveto
        -5 17 20 -2 31 hhcurveto
        57 hlineto
        51 28 -8 -34 -37 -49 -30 -71 hvcurveto
        endchar
      </CharString>
      <CharString index="29">
        45 32 30 43 43 -32 30 -45 -45 -32 -30 -43 -43 32 -30 45 hvcurveto
        return
      </CharString>
      <CharString index="30">
        137 236 hlineto
        197 417 rlineto
        -143 hlineto
        -63 -156 -18 -49 -19 -45 -20 -50 -7 callgsubr
        -19 50 -17 45 -18 49 -63 156 rcurveline
        -147 hlineto
        197 -417 rlineto
        endchar
      </CharString>
      <CharString index="31">
        688 rmoveto
        105 85 -5 callgsubr
        105 -85 59 37 -92 111 rlineto
        -148 hlineto
        -92 -111 rlineto
        return
      </CharString>
      <CharString index="32">
        -234 371 74 73 56 67 74 hstem
        25 91 124 82 vstem
        192 371 rmoveto
        41 44 13 24 35 hvcurveto
        -34 58 rlineto
        -15 -23 -25 -6 -25 hhcurveto
        -46 -34 21 52 -7 hvcurveto
        199 hlineto
        4 14 1 9 17 vvcurveto
        80 -41 77 -99 -84 -73 -67 -105 -108 73 -64 94 vhcurveto
        -76 203 rmoveto
        45 7 25 22 34 hhcurveto
        43 15 -33 -34 hvcurveto
        endchar
      </CharString>
      <CharString index="33">
        68 hmoveto
        133 123 hlineto
        68 77 116 -200 rlineto
        148 hlineto
        -186 292 172 203 rlineto
        -149 hlineto
        -165 -207 rlineto
        -4 415 -133 hlineto
        return
      </CharString>
      <CharString index="34">
        rmoveto
        291 88 -291 hlineto
        return
      </CharString>
      <CharString index="35">
        rlineto
        110 vlineto
        -158 -8 8 171 rlineto
        -110 hlineto
        8 -171 -158 8 rlineto
        -110 vlineto
        158 return
      </CharString>
      <CharString index="36">
        573 rmoveto
        177 156 -93 90 -152 -179 rlineto
        return
      </CharString>
      <CharString index="37">
        321 -12 rmoveto
        108 101 98 170 152 -74 99 -121 -48 -48 -23 -34 -38 hvcurveto
        3 78 rlineto
        175 -136 -703 107 vlineto
        11 53 -5 callgsubr
        -42 40 46 -23 45 hhcurveto
        -31 112 rmoveto
        -26 -31 9 26 -29 hvcurveto
        212 vlineto
        33 32 29 15 32 hhcurveto
        64 29 -49 -92 -106 -44 -48 -56 hvcurveto
        return
      </CharString>
      <CharString index="38">
        469 115 -300 hlineto
        298 455 rlineto
        83 -439 -115 270 vlineto
        -298 -455 rlineto
        return
      </CharString>
      <CharString index="39">
        562 rmoveto
        124 96 -5 callgsubr
        124 -96 53 -17 callgsubr
        return
      </CharString>
      <CharString index="40">
        577 rmoveto
        139 hlineto
        109 132 -53 49 -124 -95 rlineto
        -4 hlineto
        -124 95 -52 -49 rlineto
        return
      </CharString>
      <CharString index="41">
        143 vstem
        557 330 rmoveto
        -1 33 rlineto
        128 -4 -73 80 -132 hhcurveto
        -307 hlineto
        14 -108 55 -473 276 9 180 84 -8 247 rlinecurve
        -322 -212 rmoveto
        -38 345 rlineto
        139 hlineto
        48 30 -39 -61 hvcurveto
        -30 vlineto
        4 -139 -39 -65 -144 -11 rrcurveto
        return
      </CharString>
      <CharString index="42">
        rmoveto
        21 12 17 19 18 -12 17 -21 -20 -14 -17 -18 20 callsubr
        return
      </CharString>
      <CharString index="43">
        -207 371 77 190 77 hstem
        25 99 123 99 vstem
        186 371 rmoveto
        84 76 63 108 109 -76 64 -84 -85 -76 -64 -109 -108 76 -63 85 hvcurveto
        77 vmoveto
        -42 -20 37 57 58 20 38 42 41 20 -38 -58 -57 -20 -37 -41 hvcurveto
        endchar
      </CharString>
      <CharString index="44">
        683 rmoveto
        178 118 -73 89 -166 -138 rlineto
        return
      </CharString>
      <CharString index="45">
        -287 353 147 0 -20 hstemhm
        55 80 hintmask 01100000
        144 500 rmoveto
        -3 -3 0 -1 -3 hvcurveto
        59 29 37 59 30 vhcurveto
        -31 60 rlineto
        -92 -46 -45 -70 -92 vvcurveto
        hintmask 10100000
        0 callsubr
        vhcurveto
        hintmask 01100000
        43 -33 26 -40 vhcurveto
        endchar
      </CharString>
      <CharString index="46">
        9 453 rmoveto
        -41 -32 31 57 56 31 30 42 42 32 -30 -56 -57 -32 -31 -42 hvcurveto
        return
      </CharString>
      <CharString index="47">
        -219 403 67 149 67 hstem
        39 73 137 73 vstem
        181 403 rmoveto
        78 63 59 82 83 -63 59 -78 -79 -63 -59 -83 -82 63 -59 79 hvcurveto
        67 vmoveto
        -41 -28 30 44 45 28 30 41 40 28 -30 -45 -44 -28 -30 -40 hvcurveto
        endchar
      </CharString>
      <CharString index="48">
        151 vstem
        256 -1 rmoveto
        204 2 71 145 9 181 11 151 rcurveline
        5 93 rlineto
        -505 -108 350 hlineto
        -13 -174 -8 -133 -48 -41 -87 -8 rlinecurve
        -202 -307 rmoveto
        145 548 -125 hlineto
        -20 -69 rlineto
        return
      </CharString>
      <CharString index="49">
        -19 14 -17 20 return
      </CharString>
      <CharString index="50">
        -128 504 -20 228 -20 hstem
        183 85 vstem
        147 360 rmoveto
        79 89 78 -89 58 43 -59 101 107 48 -23 68 -113 -25 -12 117 rlineto
        -73 hlineto
        -12 -116 -114 24 -22 -68 106 -48 -58 -101 rlineto
        endchar
      </CharString>
      <CharString index="51">
        7 -22 -26 5 -28 hhcurveto
        -105 -96 -62 -117 -58 31 -46 35 -25 hvcurveto
        -4 vlineto
        return
      </CharString>
      <CharString index="52">
        -12 -49 callgsubr
        return
      </CharString>
      <CharString index="53">
        -298 1 callsubr
        604 -20 13 callgsubr
        vstem
        195 -12 rmoveto
        32 22 5 6 16 hvcurveto
        -17 102 rlineto
        -2 -8 -4 0 -6 hhcurveto
        -12 -14 10 30 hvcurveto
        564 -136 -558 vlineto
        -95 33 -62 94 vhcurveto
        endchar
      </CharString>
      <CharString index="54">
        45 31 callgsubr
        hstem
        39 297 55 -39 callgsubr
        296 202 rmoveto
        40 451 -44 hlineto
        -139 -114 -55 -166 -154 115 -76 142 hvcurveto
        95 -282 rmoveto
        137 733 -27 callsubr
        endchar
      </CharString>
      <CharString index="55">
        574 rmoveto
        76 42 50 99 2 hvcurveto
        -86 5 rlineto
        -40 -3 -12 -19 -21 hhcurveto
        return
      </CharString>
      <CharString index="56">
        rmoveto
        76 hlineto
        27 194 4 126 rlineto
        -138 hlineto
        4 -126 rlineto
        return
      </CharString>
      <CharString index="57">
        145 vstem
        29 hmoveto
        199 hlineto
        145 74 101 155 hvcurveto
        59 vlineto
        155 -74 101 -145 vhcurveto
        -199 -108 160 hlineto
        81 32 -60 -80 hvcurveto
        -75 vlineto
        -80 -32 -60 -81 vhcurveto
        -160 hlineto
        return
      </CharString>
      <CharString index="58">
        119 439 119 return
      </CharString>
      <CharString index="59">
        -261 -117 rmoveto
        17 callgsubr
        20 13 17 19 18 -13 17 -20 hvcurveto
        endchar
      </CharString>
      <CharString index="60">
        145 vstem
        382 hmoveto
        -37 callsubr
        -300 -108 261 hlineto
        42 25 -21 -52 hvcurveto
        -334 -390 rmoveto
        145 340 -125 hlineto
        -20 -67 rlineto
        return
      </CharString>
      <CharString index="61">
        -56 callsubr
        -52 -44 callgsubr
        return
      </CharString>
      <CharString index="62">
        55 20 33 62 59 vvcurveto
        123 -103 39 -135 vhcurveto
        -219 hlineto
        137 -264 rmoveto
        158 75 vlineto
        74 37 -21 -55 -50 -34 -32 -78 hvcurveto
        -74 -283 rmoveto
        181 88 vlineto
        return
      </CharString>
      <CharString index="63">
        -42 112 -153 -112 -153 rlineto
        return
      </CharString>
      <CharString index="64">
        -11 163 106 279 105 return
      </CharString>
      <CharString index="65">
        68 50 44 97 5 hvcurveto
        -89 6 rlineto
        -37 -4 -15 -14 -19 hhcurveto
        return
      </CharString>
      <CharString index="66">
        vstem
        523 571 rmoveto
        -142 hlineto
        -82 -201 -113 201 rlineto
        -145 hlineto
        261 -463 rlineto
        -272 -108 333 hlineto
        145 hlineto
        -132 234 rlineto
        return
      </CharString>
      <CharString index="67">
        vstem
        193 hmoveto
        164 hlineto
        199 653 rlineto
        -140 hlineto
        -82 -312 -19 -73 -14 -65 -21 -73 -7 callgsubr
        -20 73 -14 65 -20 73 -83 312 rcurveline
        -145 hlineto
        return
      </CharString>
      <CharString index="68">
        137 vstem
        return
      </CharString>
      <CharString index="69">
        -55 -36 77 -82 hhcurveto
        -48 -51 -27 -74 -47 hvcurveto
        72 -54 rlineto
        38 21 24 20 27 hhcurveto
        return
      </CharString>
      <CharString index="70">
        -49 -213 86 109 106 69 83 155 100 -81 93 return
      </CharString>
      <CharString index="71">
        105 115 91 103 105 return
      </CharString>
      <CharString index="72">
        rmoveto
        -9 callsubr
        21 12 17 19 vhcurveto
        endchar
      </CharString>
      <CharString index="73">
        -5 callsubr
        39 hmoveto
        290 401 hlineto
        92 -44 63 -82 11 vhcurveto
        -125 16 -18 -106 70 -10 rlineto
        35 -5 20 -14 -51 vvcurveto
        -289 -146 vlineto
        return
      </CharString>
      <CharString index="74">
        rmoveto
        -48 -39 -32 -48 -51 40 -28 44 hvcurveto
        8 hlineto
        -51 -38 -46 -70 -25 vhcurveto
        28 -74 rlineto
        111 35 61 81 106 vvcurveto
        83 -35 50 -62 vhcurveto
        endchar
      </CharString>
      <CharString index="75">
        101 rlineto
        7 -18 -22 6 -35 hhcurveto
        -137 -43 -86 -107 hvcurveto
        -532 vlineto
        -1 callsubr
        -13 vhcurveto
        -25 -101 rlineto
        -8 20 26 -6 return
      </CharString>
      <CharString index="76">
        137 653 -137 return
      </CharString>
      <CharString index="77">
        108 hstem
        return
      </CharString>
      <CharString index="78">
        -20 -14 -18 -18 -19 14 -16 20 21 12 16 19 18 -12 18 -21 hvcurveto
        return
      </CharString>
      <CharString index="79">
        56 -12 119 144 112 183 119 return
      </CharString>
      <CharString index="80">
        261 71 131 108 return
      </CharString>
      <CharString index="81">
        -5 callsubr
        314 -200 rmoveto
        144 583 hlineto
        136 -72 52 -100 vhcurveto
        -247 -108 207 hlineto
        43 25 -21 -52 hvcurveto
        return
      </CharString>
      <CharString index="82">
        161 571 rmoveto
        146 -130 -254 290 vlineto
        -179 -463 rlineto
        144 hlineto
        180 452 rlineto
        119 vlineto
        return
      </CharString>
      <CharString index="83">
        144 454 hlineto
        -51 callsubr
        return
      </CharString>
      <CharString index="84">
        hstem
        76 137 241 132 vstem
        return
      </CharString>
      <CharString index="85">
        145 vstem
        290 hmoveto
        -37 callsubr
        -234 -108 195 hlineto
        42 25 -21 -52 hvcurveto
        return
      </CharString>
      <CharString index="86">
        hstemhm
        36 113 -98 128 -117 108 return
      </CharString>
      <CharString index="87">
        49 50 28 73 47 hvcurveto
        -71 54 rlineto
        -37 -21 -24 -21 -28 hhcurveto
        return
      </CharString>
      <CharString index="88">
        67 -64 hhcurveto
        -76 -42 -50 -99 -2 hvcurveto
        86 -5 rlineto
        41 3 12 18 21 hhcurveto
        hintmask 10110000
        34 34 -67 64 hhcurveto
        endchar
      </CharString>
      <CharString index="89">
        -238 710 -20 hstem
        26 302 vstem
        238 -160 rmoveto
        90 hlineto
        -212 870 rlineto
        -90 hlineto
        endchar
      </CharString>
      <CharString index="90">
        49 -109 133 rlineto
        return
      </CharString>
      <CharString index="91">
        -95 -165 -164 return
      </CharString>
      <CharString index="92">
        -238 710 -20 hstem
        13 302 vstem
        13 -160 rmoveto
        90 hlineto
        212 870 rlineto
        -90 hlineto
        endchar
      </CharString>
      <CharString index="93">
        1 -141 -42 -75 -145 33 -13 -108 rcurveline
        214 -51 124 122 -2 220 rrcurveto
        return
      </CharString>
      <CharString index="94">
        593 -73 callgsubr
        return
      </CharString>
      <CharString index="95">
        hstem
        44 131 151 -39 callgsubr
        return
      </CharString>
      <CharString index="96">
        176 hstem
        62 168 vstem
        146 return
      </CharString>
      <CharString index="97">
        hstem
        79 -39 callgsubr
        return
      </CharString>
      <CharString index="98">
        9 -22 -34 9 -40 hhcurveto
        -128 -48 -83 -103 hvcurveto
        return
      </CharString>
      <CharString index="99">
        141 306 140 return
      </CharString>
      <CharString index="100">
        rlinecurve
        -4 hlineto
        return
      </CharString>
</ttFont>
